G04*
G04 #@! TF.GenerationSoftware,Altium Limited,Altium Designer,22.11.1 (43)*
G04*
G04 Layer_Physical_Order=1*
G04 Layer_Color=255*
%FSLAX44Y44*%
%MOMM*%
G71*
G04*
G04 #@! TF.SameCoordinates,06BBF7B1-46A0-4337-B342-F52713360293*
G04*
G04*
G04 #@! TF.FilePolarity,Positive*
G04*
G01*
G75*
%ADD10C,0.2000*%
%ADD11C,0.5000*%
%ADD12C,0.2540*%
%ADD13R,1.1500X1.1500*%
%ADD14R,1.0000X1.4000*%
%ADD15R,1.2700X0.7600*%
%ADD16R,1.7000X0.9000*%
%ADD17R,1.5000X3.0000*%
%ADD18R,3.0000X1.5000*%
%ADD19R,1.4500X0.9000*%
%ADD20R,1.5260X0.6500*%
%ADD21R,2.0000X1.6000*%
%ADD22R,2.0000X2.0000*%
%ADD23R,1.2000X1.5000*%
%ADD24R,1.5250X0.6500*%
%ADD25C,0.3000*%
%ADD26C,0.4000*%
%ADD27R,0.9500X1.4500*%
%ADD28R,1.4500X0.9500*%
%ADD29R,1.4500X1.0000*%
%ADD30R,1.1500X1.4500*%
%ADD31R,1.5200X1.1900*%
%ADD32R,1.1900X1.5200*%
%ADD33R,1.5000X0.6000*%
%ADD34R,0.9400X1.4300*%
%ADD35R,1.4300X0.9400*%
%ADD36R,0.6500X1.5260*%
%ADD37R,1.0000X1.4500*%
%ADD38R,0.4000X1.2000*%
%ADD39R,1.4000X1.0000*%
%ADD40R,3.6830X1.2700*%
%ADD41R,0.6000X1.5000*%
%ADD42C,0.7000*%
G36*
X506760Y889380D02*
X511744Y888183D01*
X516479Y886221D01*
X520849Y883543D01*
X524747Y880215D01*
X528075Y876317D01*
X530754Y871947D01*
X532715Y867212D01*
X533912Y862228D01*
X534300Y857293D01*
X534277Y857118D01*
Y513710D01*
X534300Y513535D01*
X533912Y508600D01*
X532715Y503616D01*
X530754Y498881D01*
X528075Y494511D01*
X524747Y490613D01*
X520849Y487285D01*
X516479Y484606D01*
X511744Y482645D01*
X506760Y481448D01*
X501825Y481060D01*
X501650Y481083D01*
X113660D01*
X113485Y481060D01*
X108550Y481448D01*
X103566Y482645D01*
X98831Y484606D01*
X94461Y487285D01*
X90563Y490613D01*
X87234Y494511D01*
X84556Y498881D01*
X82595Y503616D01*
X81398Y508600D01*
X81053Y512990D01*
X81165Y513842D01*
X81165Y513842D01*
Y857118D01*
X81142Y857293D01*
X81530Y862228D01*
X82727Y867212D01*
X84689Y871947D01*
X87367Y876317D01*
X90695Y880215D01*
X94593Y883543D01*
X98963Y886221D01*
X103698Y888183D01*
X108682Y889380D01*
X113535Y889761D01*
X113660Y889745D01*
X501650D01*
X501825Y889768D01*
X506760Y889380D01*
D02*
G37*
G36*
X1118739Y754502D02*
X1122503Y753360D01*
X1125972Y751506D01*
X1129013Y749011D01*
X1131508Y745970D01*
X1133362Y742501D01*
X1134504Y738737D01*
X1134877Y734946D01*
X1134861Y734822D01*
Y49766D01*
X1134861Y49766D01*
X1134861D01*
X1134768Y48534D01*
X1134504Y45851D01*
X1133362Y42087D01*
X1131508Y38618D01*
X1129013Y35577D01*
X1125972Y33082D01*
X1122503Y31228D01*
X1118739Y30086D01*
X1114947Y29713D01*
X1114824Y29729D01*
X603269D01*
X603268Y29729D01*
X603152Y29714D01*
X599371Y30086D01*
X595607Y31228D01*
X592138Y33082D01*
X589097Y35577D01*
X586602Y38618D01*
X584748Y42087D01*
X583606Y45851D01*
X583232Y49653D01*
X583249Y49784D01*
Y734822D01*
X583232Y734946D01*
X583606Y738737D01*
X584748Y742501D01*
X586602Y745970D01*
X589097Y749011D01*
X592138Y751506D01*
X595607Y753360D01*
X599371Y754502D01*
X603163Y754876D01*
X603286Y754859D01*
X1114824D01*
X1114947Y754876D01*
X1118739Y754502D01*
D02*
G37*
G36*
X506760Y428370D02*
X511744Y427173D01*
X516479Y425211D01*
X520849Y422533D01*
X524747Y419205D01*
X528075Y415307D01*
X530754Y410937D01*
X532715Y406202D01*
X533912Y401218D01*
X534300Y396283D01*
X534277Y396108D01*
X534277Y66040D01*
X534486Y64450D01*
X534277Y62860D01*
X534277D01*
X534311Y62823D01*
X533912Y57750D01*
X532715Y52766D01*
X530754Y48031D01*
X528075Y43661D01*
X524747Y39763D01*
X520849Y36435D01*
X516479Y33756D01*
X511744Y31795D01*
X506760Y30598D01*
X501825Y30210D01*
X501650Y30233D01*
X62860D01*
X62685Y30210D01*
X57750Y30598D01*
X52766Y31795D01*
X48031Y33756D01*
X43661Y36435D01*
X39763Y39763D01*
X36435Y43661D01*
X33756Y48031D01*
X31795Y52766D01*
X30598Y57750D01*
X30259Y62058D01*
X30365Y62860D01*
X30365Y396108D01*
X30342Y396283D01*
X30730Y401218D01*
X31927Y406202D01*
X33888Y410937D01*
X36567Y415307D01*
X39895Y419205D01*
X43793Y422533D01*
X48163Y425211D01*
X52898Y427173D01*
X57882Y428370D01*
X62817Y428758D01*
X62992Y428735D01*
X501650D01*
X501825Y428758D01*
X506760Y428370D01*
D02*
G37*
%LPC*%
G36*
X500961Y861664D02*
Y856923D01*
X505703D01*
X504812Y859074D01*
X503113Y860773D01*
X500961Y861664D01*
D02*
G37*
G36*
X498421D02*
X496270Y860773D01*
X494571Y859074D01*
X493680Y856923D01*
X498421D01*
Y861664D01*
D02*
G37*
G36*
X505703Y854383D02*
X500961D01*
Y849641D01*
X503113Y850532D01*
X504812Y852231D01*
X505703Y854383D01*
D02*
G37*
G36*
X498421D02*
X493680D01*
X494571Y852231D01*
X496270Y850532D01*
X498421Y849641D01*
Y854383D01*
D02*
G37*
G36*
X130883Y872942D02*
X126350Y872585D01*
X121929Y871524D01*
X117729Y869784D01*
X113852Y867408D01*
X110395Y864455D01*
X107442Y860998D01*
X105066Y857121D01*
X103326Y852921D01*
X102265Y848499D01*
X101908Y843967D01*
X101909D01*
X101916Y843931D01*
X102248Y839714D01*
X103244Y835565D01*
X104877Y831624D01*
X107106Y827986D01*
X109877Y824742D01*
X113121Y821971D01*
X116758Y819742D01*
X120700Y818109D01*
X124848Y817113D01*
X129065Y816782D01*
X129101Y816774D01*
X158741D01*
Y803363D01*
X164903D01*
Y797741D01*
X164914Y797687D01*
X164696Y796031D01*
X164036Y794438D01*
X162986Y793070D01*
X161618Y792020D01*
X160025Y791360D01*
X158433Y791151D01*
X157164Y791179D01*
Y794565D01*
X133164D01*
Y778565D01*
X157164D01*
Y781976D01*
X158315D01*
X158438Y782001D01*
X161388Y782291D01*
X164343Y783188D01*
X167066Y784643D01*
X169454Y786602D01*
X171413Y788989D01*
X172868Y791713D01*
X173764Y794668D01*
X174055Y797618D01*
X174079Y797741D01*
Y803363D01*
X180241D01*
Y816774D01*
X181799D01*
Y803363D01*
X187961D01*
Y761165D01*
X188002Y760957D01*
X187621Y757092D01*
X186434Y753177D01*
X184505Y749568D01*
X181909Y746405D01*
X178745Y743809D01*
X175137Y741880D01*
X171221Y740692D01*
X167356Y740312D01*
X167149Y740353D01*
X157164D01*
Y743765D01*
X133164D01*
Y727765D01*
X157164D01*
Y731176D01*
X167149D01*
Y731172D01*
X171841Y731541D01*
X176417Y732640D01*
X180765Y734441D01*
X184778Y736900D01*
X188357Y739957D01*
X191413Y743536D01*
X193872Y747548D01*
X195673Y751896D01*
X196772Y756473D01*
X197141Y761165D01*
X197137D01*
Y803363D01*
X203299D01*
Y816774D01*
X204856D01*
Y803363D01*
X211018D01*
Y745783D01*
X210981D01*
X211480Y741993D01*
X212943Y738461D01*
X215270Y735428D01*
X218303Y733101D01*
X221835Y731638D01*
X225625Y731139D01*
Y731139D01*
X226664Y730581D01*
Y727765D01*
X250664D01*
Y743765D01*
X226664D01*
Y740353D01*
X225625D01*
X225457Y740319D01*
X223521Y740704D01*
X221738Y741896D01*
X220546Y743680D01*
X220161Y745616D01*
X220195Y745783D01*
Y803363D01*
X226356D01*
Y816774D01*
X227914D01*
Y803363D01*
X234076D01*
Y794565D01*
X226664D01*
Y778565D01*
X250664D01*
Y794565D01*
X243252D01*
Y803363D01*
X249414D01*
Y816774D01*
X269567D01*
X269621Y816785D01*
X271277Y816567D01*
X272870Y815907D01*
X274238Y814857D01*
X275288Y813489D01*
X275948Y811896D01*
X276166Y810240D01*
X276155Y810187D01*
X276162Y810150D01*
X276496Y806765D01*
X277494Y803475D01*
X279115Y800443D01*
X281296Y797785D01*
X283953Y795604D01*
X286986Y793983D01*
X290276Y792985D01*
X293660Y792652D01*
X293697Y792644D01*
X308683D01*
X308795Y792667D01*
X310341Y792359D01*
X311747Y791420D01*
X312686Y790014D01*
X312751Y789684D01*
X311946Y788703D01*
X308309D01*
Y770203D01*
X312971D01*
Y758457D01*
X299559D01*
Y737457D01*
X302971D01*
Y729735D01*
X298059D01*
Y707735D01*
X317059D01*
Y719998D01*
X318255Y720426D01*
X318704Y719879D01*
X321673Y717442D01*
X323059Y716702D01*
Y707735D01*
X342059D01*
Y729735D01*
X323059D01*
X323059Y729735D01*
Y729735D01*
X322540Y730818D01*
X322453Y731027D01*
X322117Y733581D01*
X322147Y733735D01*
Y737457D01*
X335559D01*
Y743368D01*
X351101D01*
Y743365D01*
X351816Y743223D01*
X352421Y742819D01*
X352826Y742213D01*
X352968Y741499D01*
X352971D01*
Y729735D01*
X348059D01*
Y707735D01*
X352971D01*
Y702853D01*
X352938D01*
X353420Y699196D01*
X354831Y695789D01*
X357076Y692863D01*
X360002Y690618D01*
X363409Y689207D01*
X367065Y688726D01*
Y688758D01*
X384733D01*
Y685235D01*
X367827D01*
X367661Y685202D01*
X364932Y684933D01*
X362149Y684088D01*
X359583Y682717D01*
X357334Y680872D01*
X355489Y678623D01*
X354117Y676057D01*
X353273Y673274D01*
X353004Y670545D01*
X352971Y670379D01*
Y664735D01*
X348059D01*
Y642735D01*
X352971D01*
Y635543D01*
X353014Y635325D01*
X352561Y633044D01*
X351146Y630926D01*
X349028Y629511D01*
X346747Y629057D01*
X346529Y629101D01*
X335559D01*
Y635013D01*
X322147D01*
Y638735D01*
X322117Y638888D01*
X322453Y641442D01*
X322534Y641637D01*
X323059Y642735D01*
Y642735D01*
X323059Y642735D01*
X342059D01*
Y664735D01*
X323059D01*
Y655768D01*
X321673Y655027D01*
X318704Y652590D01*
X318255Y652043D01*
X317059Y652471D01*
Y664735D01*
X298059D01*
Y642735D01*
X302971D01*
Y635013D01*
X299559D01*
Y614013D01*
X312971D01*
Y600743D01*
X308309D01*
Y582365D01*
X303309D01*
Y600743D01*
X284809D01*
Y597466D01*
X283789Y596710D01*
X281547Y597390D01*
X278468Y599035D01*
X275769Y601250D01*
X273554Y603949D01*
X271908Y607029D01*
X270895Y610370D01*
X270568Y613687D01*
X270599Y613845D01*
Y669217D01*
X270570Y669364D01*
X270292Y672190D01*
X269424Y675049D01*
X268016Y677684D01*
X266120Y679994D01*
X263811Y681889D01*
X261176Y683298D01*
X258317Y684165D01*
X255490Y684444D01*
X255343Y684473D01*
X250664D01*
Y687996D01*
X255343D01*
X255490Y688026D01*
X258317Y688304D01*
X261176Y689171D01*
X263811Y690580D01*
X266120Y692475D01*
X268016Y694785D01*
X269424Y697420D01*
X270292Y700279D01*
X270570Y703105D01*
X270599Y703253D01*
Y757355D01*
X270569Y757508D01*
X270891Y760779D01*
X271890Y764073D01*
X273512Y767108D01*
X275696Y769768D01*
X278356Y771952D01*
X281391Y773574D01*
X283539Y774225D01*
X284809Y773283D01*
Y770203D01*
X303309D01*
Y788703D01*
X284809D01*
Y783775D01*
X283936Y783706D01*
X279865Y782729D01*
X275997Y781127D01*
X272427Y778939D01*
X269244Y776220D01*
X266525Y773037D01*
X264337Y769467D01*
X262735Y765599D01*
X261758Y761528D01*
X261433Y757404D01*
X261423Y757355D01*
Y703253D01*
X261463Y703053D01*
X261034Y700895D01*
X259699Y698897D01*
X257700Y697562D01*
X255543Y697133D01*
X255343Y697173D01*
X250664D01*
Y699885D01*
X230964D01*
Y685285D01*
Y672585D01*
X250664D01*
Y675296D01*
X255343D01*
X255543Y675336D01*
X257700Y674907D01*
X259699Y673572D01*
X261034Y671574D01*
X261463Y669416D01*
X261423Y669217D01*
Y613845D01*
X261432Y613802D01*
X261760Y609631D01*
X262747Y605521D01*
X264364Y601616D01*
X266572Y598013D01*
X269317Y594799D01*
X272531Y592054D01*
X276135Y589845D01*
X280040Y588228D01*
X284150Y587241D01*
X284809Y587189D01*
Y582243D01*
X284809Y582243D01*
X283664Y581985D01*
X283012Y581899D01*
X279446Y580422D01*
X276384Y578072D01*
X274034Y575010D01*
X272557Y571444D01*
X272053Y567617D01*
X272091D01*
Y565077D01*
X272116Y564950D01*
X271812Y562638D01*
X270870Y560365D01*
X269373Y558413D01*
X267421Y556916D01*
X265148Y555974D01*
X262836Y555670D01*
X262709Y555695D01*
X249414D01*
Y569201D01*
X243252D01*
Y577905D01*
X250664D01*
Y593905D01*
X226664D01*
Y577905D01*
X234076D01*
Y569201D01*
X227914D01*
Y555695D01*
X226356D01*
Y569201D01*
X220195D01*
Y626686D01*
X220161Y626854D01*
X220546Y628789D01*
X221738Y630573D01*
X223521Y631765D01*
X225457Y632150D01*
X225625Y632116D01*
X226664D01*
Y628705D01*
X250664D01*
Y644705D01*
X226664D01*
Y641888D01*
X225625Y641330D01*
Y641330D01*
X221835Y640831D01*
X218303Y639368D01*
X215270Y637041D01*
X212943Y634008D01*
X211480Y630476D01*
X210981Y626686D01*
X211018D01*
Y569201D01*
X204856D01*
Y555695D01*
X203299D01*
Y569201D01*
X197137D01*
Y611305D01*
X197141D01*
X196772Y615997D01*
X195673Y620573D01*
X193872Y624921D01*
X191413Y628934D01*
X188357Y632513D01*
X184778Y635569D01*
X180765Y638028D01*
X176417Y639829D01*
X171841Y640928D01*
X167149Y641297D01*
Y641293D01*
X157164D01*
Y644705D01*
X133164D01*
Y628705D01*
X157164D01*
Y632116D01*
X167149D01*
X167356Y632158D01*
X171221Y631777D01*
X175137Y630589D01*
X178745Y628660D01*
X181909Y626064D01*
X184505Y622901D01*
X186434Y619292D01*
X187621Y615377D01*
X188002Y611512D01*
X187961Y611305D01*
Y569201D01*
X181799D01*
Y555695D01*
X180241D01*
Y569201D01*
X174079D01*
Y574475D01*
X174058Y574585D01*
X173761Y577597D01*
X172850Y580600D01*
X171371Y583368D01*
X169380Y585793D01*
X166954Y587784D01*
X164187Y589263D01*
X161184Y590174D01*
X158172Y590471D01*
X158061Y590493D01*
X157164D01*
Y593905D01*
X133164D01*
Y577905D01*
X157164D01*
Y580526D01*
X158434Y581287D01*
X159837Y581102D01*
X161492Y580417D01*
X162913Y579327D01*
X164004Y577905D01*
X164689Y576250D01*
X164915Y574535D01*
X164903Y574475D01*
Y569201D01*
X158741D01*
Y555695D01*
X136725D01*
Y555700D01*
X131994Y555327D01*
X127378Y554219D01*
X122993Y552403D01*
X118946Y549923D01*
X115337Y546841D01*
X112255Y543232D01*
X109775Y539184D01*
X107958Y534799D01*
X106850Y530184D01*
X106478Y525453D01*
X106447D01*
X106941Y520438D01*
X108404Y515616D01*
X110780Y511171D01*
X113976Y507276D01*
X117872Y504079D01*
X122316Y501704D01*
X127138Y500241D01*
X132153Y499747D01*
Y499783D01*
X158569D01*
X158582Y499785D01*
X162091Y500131D01*
X165476Y501158D01*
X168597Y502826D01*
X171332Y505070D01*
X173576Y507805D01*
X175244Y510926D01*
X176271Y514311D01*
X176617Y517820D01*
X176619Y517833D01*
X176580Y518032D01*
X177009Y520190D01*
X178344Y522188D01*
X180342Y523523D01*
X182499Y523952D01*
X182699Y523912D01*
X294309D01*
Y521751D01*
X316569D01*
Y524158D01*
X317148Y524234D01*
X319354Y525148D01*
X321250Y526602D01*
X322704Y528497D01*
X323618Y530704D01*
X323910Y532926D01*
X323939Y533073D01*
Y548313D01*
X323936Y548329D01*
X323592Y550946D01*
X322575Y553400D01*
X321583Y554693D01*
X321852Y555343D01*
X322092Y557164D01*
X322147Y557443D01*
Y561642D01*
X322344Y562848D01*
X322397Y562976D01*
X322397D01*
X322299Y563129D01*
X322157Y564027D01*
Y569094D01*
X322157Y569851D01*
X322397Y570225D01*
X322344Y570353D01*
X322233Y570459D01*
X322151Y571695D01*
X322147Y572963D01*
Y582243D01*
X326809D01*
Y600743D01*
X322147D01*
Y614013D01*
X335559D01*
Y617204D01*
X336829Y617820D01*
X337413Y617361D01*
X337640Y616218D01*
X337623Y616131D01*
Y548821D01*
X337607D01*
X338023Y545657D01*
X339244Y542708D01*
X341187Y540177D01*
X343719Y538234D01*
X346667Y537013D01*
X348549Y536765D01*
Y521751D01*
X370809D01*
Y522383D01*
X380607D01*
Y517501D01*
X417607D01*
Y522383D01*
X446647D01*
Y517501D01*
X483647D01*
Y539501D01*
X446647D01*
Y534618D01*
X417607D01*
Y539501D01*
X380607D01*
Y534618D01*
X370809D01*
Y547783D01*
X383867D01*
X384015Y547812D01*
X388031Y548208D01*
X392035Y549422D01*
X395725Y551395D01*
X398959Y554049D01*
X401613Y557283D01*
X403585Y560973D01*
X404800Y564977D01*
X405052Y567539D01*
X417607D01*
Y572421D01*
X446647D01*
Y567539D01*
X483647D01*
Y589539D01*
X446647D01*
Y584656D01*
X417607D01*
Y589539D01*
X380607D01*
Y567539D01*
X391863D01*
X392542Y566269D01*
X391828Y564545D01*
X390367Y562641D01*
X388463Y561180D01*
X386246Y560262D01*
X384077Y559977D01*
X383867Y560018D01*
X370809D01*
Y573351D01*
X348549D01*
Y559851D01*
Y548813D01*
X347279Y548139D01*
X346858Y548425D01*
X346790Y548771D01*
X346799Y548821D01*
Y616131D01*
X346822D01*
X346490Y618654D01*
X346495Y618808D01*
X347381Y619966D01*
X347530Y620036D01*
X349574Y620237D01*
X352501Y621125D01*
X355199Y622567D01*
X357564Y624508D01*
X359505Y626873D01*
X360947Y629571D01*
X361835Y632498D01*
X362122Y635413D01*
X362147Y635543D01*
Y642735D01*
X367059D01*
Y664735D01*
X362147D01*
Y670379D01*
X362112Y670559D01*
X362514Y672580D01*
X363760Y674445D01*
X365626Y675692D01*
X367647Y676094D01*
X367827Y676058D01*
X384733D01*
Y661197D01*
X389746D01*
Y647331D01*
X384863D01*
Y610331D01*
X406863D01*
Y647331D01*
X401981D01*
Y661197D01*
X406993D01*
Y673897D01*
Y686597D01*
Y699297D01*
Y712797D01*
X384733D01*
Y710635D01*
X382851D01*
Y710635D01*
X382080Y710788D01*
X381426Y711225D01*
X380989Y711879D01*
X380835Y712651D01*
X380835D01*
Y763921D01*
X406577D01*
Y790921D01*
X379577D01*
Y781773D01*
X378826Y781674D01*
X376496Y780709D01*
X374495Y779173D01*
X372959Y777172D01*
X371994Y774842D01*
X371949Y774503D01*
X370679Y774586D01*
Y809891D01*
X365797D01*
Y811913D01*
X370809D01*
Y824613D01*
Y837945D01*
X380607D01*
Y833063D01*
X417607D01*
Y855063D01*
X380607D01*
Y850180D01*
X370809D01*
Y863513D01*
X348549D01*
Y850013D01*
Y835925D01*
X345588Y835535D01*
X342493Y834253D01*
X339836Y832214D01*
X337797Y829557D01*
X336515Y826462D01*
X336077Y823141D01*
X336099D01*
Y759503D01*
X335559Y758457D01*
X322147D01*
Y770203D01*
X326809D01*
Y788703D01*
X322129D01*
X321715Y791848D01*
X320367Y795102D01*
X318223Y797896D01*
X315429Y800041D01*
X312175Y801388D01*
X309675Y801717D01*
X309320Y802116D01*
X308889Y803102D01*
X309704Y805791D01*
X310008Y808879D01*
X310027Y808975D01*
Y811913D01*
X316569D01*
Y814340D01*
X317029Y814400D01*
X319275Y815331D01*
X321204Y816810D01*
X322683Y818739D01*
X323614Y820985D01*
X323914Y823268D01*
X323939Y823395D01*
Y840667D01*
X323880Y840965D01*
X323648Y842728D01*
X322852Y844649D01*
X321587Y846298D01*
X319937Y847564D01*
X318016Y848359D01*
X316569Y848550D01*
Y863513D01*
X294309D01*
Y848651D01*
X183621D01*
X183557Y848638D01*
X181804Y848869D01*
X180110Y849570D01*
X178655Y850686D01*
X177539Y852141D01*
X176838Y853835D01*
X176607Y855588D01*
X176619Y855653D01*
X176610Y855702D01*
X176282Y859024D01*
X175299Y862267D01*
X173702Y865255D01*
X171552Y867874D01*
X168933Y870023D01*
X165945Y871620D01*
X162703Y872604D01*
X159380Y872931D01*
X159331Y872941D01*
X130883D01*
Y872942D01*
D02*
G37*
G36*
X249704Y768205D02*
X239934D01*
Y762435D01*
X249704D01*
Y768205D01*
D02*
G37*
G36*
X237394D02*
X227624D01*
Y762435D01*
X237394D01*
Y768205D01*
D02*
G37*
G36*
X156204D02*
X146434D01*
Y762435D01*
X156204D01*
Y768205D01*
D02*
G37*
G36*
X143894D02*
X134124D01*
Y762435D01*
X143894D01*
Y768205D01*
D02*
G37*
G36*
X249704Y759895D02*
X239934D01*
Y754125D01*
X249704D01*
Y759895D01*
D02*
G37*
G36*
X237394D02*
X227624D01*
Y754125D01*
X237394D01*
Y759895D01*
D02*
G37*
G36*
X156204D02*
X146434D01*
Y754125D01*
X156204D01*
Y759895D01*
D02*
G37*
G36*
X143894D02*
X134124D01*
Y754125D01*
X143894D01*
Y759895D01*
D02*
G37*
G36*
X446577Y800671D02*
X419577D01*
Y778441D01*
X419577Y777671D01*
X419577Y776401D01*
Y754171D01*
X427219D01*
X428261Y752901D01*
X428222Y752702D01*
X427350Y751398D01*
X426046Y750526D01*
X424604Y750239D01*
X424507Y750259D01*
X401139D01*
Y750280D01*
X397818Y749843D01*
X394723Y748561D01*
X392066Y746522D01*
X390027Y743865D01*
X388745Y740770D01*
X388307Y737449D01*
X387173Y737121D01*
X384917D01*
Y716121D01*
X401917D01*
Y737121D01*
X398629D01*
X397661Y738391D01*
X397753Y738851D01*
X398547Y740041D01*
X399737Y740835D01*
X401060Y741098D01*
X401139Y741082D01*
X424507D01*
Y741058D01*
X427919Y741507D01*
X431099Y742824D01*
X433829Y744919D01*
X435924Y747649D01*
X437241Y750829D01*
X437681Y754171D01*
X446577D01*
Y776401D01*
X446577Y777171D01*
X446577Y778441D01*
Y781874D01*
X447832Y782983D01*
X448461Y781899D01*
Y737121D01*
X444049D01*
Y716121D01*
X461049D01*
Y737121D01*
X457637D01*
Y781899D01*
X457651D01*
X457246Y784972D01*
X456060Y787835D01*
X454173Y790294D01*
X451714Y792181D01*
X448850Y793368D01*
X446577Y793667D01*
Y800671D01*
D02*
G37*
G36*
X488847Y751217D02*
X466847D01*
Y714217D01*
X471730D01*
Y712651D01*
X471792Y712335D01*
X471381Y709211D01*
X470053Y706005D01*
X467941Y703253D01*
X465189Y701141D01*
X462503Y700028D01*
X461233Y700722D01*
Y712797D01*
X438973D01*
Y710635D01*
X437637D01*
Y716121D01*
X442049D01*
Y737121D01*
X425049D01*
Y731209D01*
X420917D01*
Y737121D01*
X403917D01*
Y716121D01*
X420917D01*
Y722032D01*
X425049D01*
Y716121D01*
X428461D01*
Y710459D01*
X428494Y710291D01*
X428779Y708132D01*
X429677Y705964D01*
X431105Y704102D01*
X432967Y702674D01*
X435135Y701776D01*
X437294Y701492D01*
X437461Y701458D01*
X438973D01*
Y686597D01*
X438973Y673897D01*
X439933Y673148D01*
X439933Y672627D01*
Y669217D01*
X460273D01*
X460273Y673148D01*
X461233Y673897D01*
X461233Y674485D01*
Y675783D01*
X475643D01*
X475869Y675828D01*
X478919Y675427D01*
X481971Y674162D01*
X484592Y672151D01*
X486603Y669530D01*
X487542Y667263D01*
X486694Y665993D01*
X474587D01*
Y643993D01*
X511587D01*
Y665993D01*
X497690D01*
X497536Y667557D01*
X496266Y671745D01*
X494203Y675604D01*
X491427Y678986D01*
X488044Y681762D01*
X484185Y683825D01*
X479998Y685095D01*
X475643Y685524D01*
Y685510D01*
X461233D01*
Y687489D01*
X463504Y687713D01*
X468274Y689160D01*
X472669Y691509D01*
X476522Y694671D01*
X479685Y698524D01*
X482034Y702920D01*
X483481Y707690D01*
X483970Y712651D01*
X483965D01*
Y714217D01*
X488847D01*
Y751217D01*
D02*
G37*
G36*
X173504Y698925D02*
X165884D01*
Y693855D01*
X173504D01*
Y698925D01*
D02*
G37*
G36*
X163344D02*
X155724D01*
Y693855D01*
X163344D01*
Y698925D01*
D02*
G37*
G36*
X136097Y706767D02*
X127327D01*
Y690497D01*
X136097D01*
Y706767D01*
D02*
G37*
G36*
X124787D02*
X116017D01*
Y690497D01*
X124787D01*
Y706767D01*
D02*
G37*
G36*
X173504Y691315D02*
X155724D01*
Y687495D01*
X155724Y686245D01*
X155724Y684975D01*
Y681155D01*
X173504D01*
Y684975D01*
X173504Y686225D01*
X173504Y687495D01*
Y691315D01*
D02*
G37*
G36*
Y678615D02*
X165884D01*
Y673545D01*
X173504D01*
Y678615D01*
D02*
G37*
G36*
X163344D02*
X155724D01*
Y673545D01*
X163344D01*
Y678615D01*
D02*
G37*
G36*
X136097Y687957D02*
X127327D01*
Y671687D01*
X136097D01*
Y687957D01*
D02*
G37*
G36*
X124787D02*
X116017D01*
Y671687D01*
X124787D01*
Y687957D01*
D02*
G37*
G36*
X460273Y666677D02*
X451373D01*
Y662157D01*
X460273D01*
Y666677D01*
D02*
G37*
G36*
X448833D02*
X439933D01*
Y662157D01*
X448833D01*
Y666677D01*
D02*
G37*
G36*
X510627Y640014D02*
X494357D01*
Y631244D01*
X510627D01*
Y640014D01*
D02*
G37*
G36*
X491817D02*
X475547D01*
Y631244D01*
X491817D01*
Y640014D01*
D02*
G37*
G36*
X510627Y628704D02*
X494357D01*
Y619934D01*
X510627D01*
Y628704D01*
D02*
G37*
G36*
X491817D02*
X475547D01*
Y619934D01*
X491817D01*
Y628704D01*
D02*
G37*
G36*
X249704Y618345D02*
X239934D01*
Y612575D01*
X249704D01*
Y618345D01*
D02*
G37*
G36*
X237394D02*
X227624D01*
Y612575D01*
X237394D01*
Y618345D01*
D02*
G37*
G36*
X156204D02*
X146434D01*
Y612575D01*
X156204D01*
Y618345D01*
D02*
G37*
G36*
X143894D02*
X134124D01*
Y612575D01*
X143894D01*
Y618345D01*
D02*
G37*
G36*
X249704Y610035D02*
X239934D01*
Y604265D01*
X249704D01*
Y610035D01*
D02*
G37*
G36*
X237394D02*
X227624D01*
Y604265D01*
X237394D01*
Y610035D01*
D02*
G37*
G36*
X156204D02*
X146434D01*
Y604265D01*
X156204D01*
Y610035D01*
D02*
G37*
G36*
X143894D02*
X134124D01*
Y604265D01*
X143894D01*
Y610035D01*
D02*
G37*
G36*
X482687Y563560D02*
X466417D01*
Y554790D01*
X482687D01*
Y563560D01*
D02*
G37*
G36*
X463877D02*
X447607D01*
Y554790D01*
X463877D01*
Y563560D01*
D02*
G37*
G36*
X482687Y552250D02*
X466417D01*
Y543480D01*
X482687D01*
Y552250D01*
D02*
G37*
G36*
X463877D02*
X447607D01*
Y543480D01*
X463877D01*
Y552250D01*
D02*
G37*
%LPD*%
G36*
X130883Y863764D02*
X135213D01*
X135377Y862563D01*
X135377D01*
Y825951D01*
X129101D01*
X128939Y825919D01*
X125577Y826250D01*
X122189Y827278D01*
X119065Y828947D01*
X116328Y831193D01*
X114082Y833931D01*
X112412Y837054D01*
X111384Y840443D01*
X111053Y843805D01*
X111085Y843967D01*
X111047Y844157D01*
X111410Y847840D01*
X112540Y851565D01*
X114375Y854997D01*
X116844Y858006D01*
X119853Y860475D01*
X123285Y862310D01*
X127010Y863440D01*
X130692Y863802D01*
X130883Y863764D01*
D02*
G37*
G36*
X294309Y811913D02*
X300851D01*
Y808975D01*
X300865Y808906D01*
X300629Y807117D01*
X299912Y805386D01*
X298772Y803900D01*
X297285Y802760D01*
X295555Y802043D01*
X293869Y801821D01*
X293697D01*
X293597Y801801D01*
X291523Y802074D01*
X289498Y802913D01*
X287758Y804248D01*
X286424Y805987D01*
X285585Y808013D01*
X285312Y810087D01*
X285331Y810187D01*
X285307Y810309D01*
X285016Y813260D01*
X284120Y816215D01*
X282665Y818938D01*
X280706Y821325D01*
X278319Y823284D01*
X275595Y824739D01*
X273073Y825504D01*
X273262Y826774D01*
X294309D01*
Y811913D01*
D02*
G37*
G36*
X348071Y826126D02*
X348549Y825733D01*
Y811913D01*
X353562D01*
Y809891D01*
X348679D01*
Y772891D01*
X370456D01*
X370939Y772705D01*
X371659Y772190D01*
Y712651D01*
X371651D01*
X372033Y709752D01*
X373152Y707051D01*
X374932Y704731D01*
X377251Y702951D01*
X379953Y701832D01*
X382851Y701451D01*
Y701458D01*
X384733D01*
Y697935D01*
X367065D01*
X366923Y697906D01*
X365162Y698257D01*
X363548Y699335D01*
X362469Y700949D01*
X362119Y702710D01*
X362147Y702853D01*
Y707735D01*
X367059D01*
Y729735D01*
X362147D01*
Y741499D01*
X362154D01*
X361777Y744359D01*
X360673Y747025D01*
X358917Y749314D01*
X356628Y751070D01*
X353962Y752175D01*
X351101Y752551D01*
Y752545D01*
X346043D01*
X345206Y753500D01*
X345279Y754053D01*
X345275D01*
Y823141D01*
X345260Y823220D01*
X345523Y824543D01*
X346317Y825732D01*
X347279Y826375D01*
X348071Y826126D01*
D02*
G37*
G36*
X286839Y573188D02*
X294309D01*
Y559851D01*
Y546064D01*
X268035D01*
X267847Y547334D01*
X269812Y547930D01*
X273020Y549645D01*
X275833Y551953D01*
X278141Y554766D01*
X279856Y557974D01*
X280912Y561456D01*
X281269Y565077D01*
X281267D01*
Y567617D01*
X281233Y567791D01*
X281627Y569776D01*
X282850Y571606D01*
X284680Y572829D01*
X286664Y573223D01*
X286839Y573188D01*
D02*
G37*
G36*
X135377Y545503D02*
Y510001D01*
X134826Y508959D01*
X132153D01*
X132016Y508932D01*
X128927Y509236D01*
X125826Y510177D01*
X122967Y511705D01*
X120462Y513761D01*
X118405Y516267D01*
X116877Y519125D01*
X115936Y522227D01*
X115632Y525315D01*
X115659Y525453D01*
X115617Y525664D01*
X116003Y529575D01*
X117205Y533538D01*
X119157Y537191D01*
X121785Y540393D01*
X124987Y543021D01*
X128640Y544973D01*
X132603Y546175D01*
X134436Y546356D01*
X135377Y545503D01*
D02*
G37*
%LPC*%
G36*
X855274Y715446D02*
X846854D01*
Y709476D01*
X855274D01*
Y715446D01*
D02*
G37*
G36*
X825010Y716396D02*
X816140D01*
Y709176D01*
X825010D01*
Y716396D01*
D02*
G37*
G36*
X855274Y706936D02*
X846854D01*
Y700966D01*
X855274D01*
Y706936D01*
D02*
G37*
G36*
X1041432Y706236D02*
X1025162D01*
Y697466D01*
X1041432D01*
Y706236D01*
D02*
G37*
G36*
X1022622D02*
X1006352D01*
Y697466D01*
X1022622D01*
Y706236D01*
D02*
G37*
G36*
X987330D02*
X971060D01*
Y697466D01*
X987330D01*
Y706236D01*
D02*
G37*
G36*
X968520D02*
X952250D01*
Y697466D01*
X968520D01*
Y706236D01*
D02*
G37*
G36*
X1100600Y693064D02*
Y688322D01*
X1105342D01*
X1104450Y690473D01*
X1102751Y692173D01*
X1100600Y693064D01*
D02*
G37*
G36*
X1098060D02*
X1095909Y692173D01*
X1094210Y690473D01*
X1093318Y688322D01*
X1098060D01*
Y693064D01*
D02*
G37*
G36*
X1041432Y694926D02*
X1025162D01*
Y686156D01*
X1041432D01*
Y694926D01*
D02*
G37*
G36*
X1022622D02*
X1006352D01*
Y686156D01*
X1022622D01*
Y694926D01*
D02*
G37*
G36*
X987330D02*
X971060D01*
Y686156D01*
X987330D01*
Y694926D01*
D02*
G37*
G36*
X968520D02*
X952250D01*
Y686156D01*
X968520D01*
Y694926D01*
D02*
G37*
G36*
X812530Y718706D02*
X776530D01*
Y697706D01*
X792277D01*
X793050Y696259D01*
X795725Y693001D01*
X798983Y690327D01*
X802701Y688339D01*
X806735Y687116D01*
X810930Y686703D01*
Y686708D01*
X815680D01*
Y683156D01*
X836880D01*
Y684106D01*
X838697D01*
X839334Y683100D01*
X839334Y682836D01*
Y677058D01*
X804018D01*
Y680720D01*
X783518D01*
Y677058D01*
X781535D01*
Y680470D01*
X761035D01*
Y677058D01*
X758552D01*
Y680720D01*
X738052D01*
Y676681D01*
X737655Y676642D01*
X733379Y675345D01*
X729438Y673239D01*
X725984Y670404D01*
X723150Y666950D01*
X721043Y663009D01*
X719746Y658733D01*
X719308Y654286D01*
X719330D01*
Y602906D01*
X713668D01*
Y586906D01*
X734168D01*
Y602906D01*
X728506D01*
Y654286D01*
X728459Y654522D01*
X728894Y657825D01*
X730260Y661123D01*
X732433Y663955D01*
X735265Y666128D01*
X736996Y666845D01*
X738052Y666140D01*
Y665220D01*
X758552D01*
Y667882D01*
X761035D01*
Y664470D01*
X781535D01*
Y667882D01*
X783518D01*
Y665220D01*
X804018D01*
Y667882D01*
X839334D01*
Y661840D01*
X850764D01*
X851834Y661840D01*
X853104Y661840D01*
X863464D01*
X864534Y661840D01*
X865804Y661840D01*
X876815D01*
X877234Y661840D01*
X878314Y662300D01*
X878504Y662300D01*
X882414D01*
Y682640D01*
X878314Y682640D01*
X877234Y683100D01*
X876404Y684370D01*
X877050Y685931D01*
X878873Y688307D01*
X881249Y690130D01*
X884017Y691276D01*
X886807Y691644D01*
X886986Y691608D01*
X903530D01*
Y685696D01*
X939530D01*
Y706696D01*
X903530D01*
Y700784D01*
X886986D01*
Y700795D01*
X882967Y700399D01*
X879102Y699227D01*
X875541Y697323D01*
X872419Y694761D01*
X869857Y691640D01*
X867953Y688078D01*
X866781Y684213D01*
X866671Y683100D01*
X864280Y683100D01*
X863382Y683998D01*
Y686036D01*
X863367Y686111D01*
X863007Y688848D01*
X861922Y691468D01*
X860195Y693717D01*
X857946Y695444D01*
X855734Y696360D01*
Y699506D01*
X836880D01*
Y700966D01*
X844314D01*
Y708206D01*
Y715446D01*
X836420D01*
Y716396D01*
X827550D01*
Y707906D01*
X826280D01*
Y706636D01*
X816140D01*
Y701056D01*
X815680D01*
Y696904D01*
X813468D01*
X812530Y697706D01*
Y718706D01*
D02*
G37*
G36*
X1105342Y685782D02*
X1100600D01*
Y681040D01*
X1102751Y681932D01*
X1104450Y683631D01*
X1105342Y685782D01*
D02*
G37*
G36*
X1098060D02*
X1093318D01*
X1094210Y683631D01*
X1095909Y681932D01*
X1098060Y681040D01*
Y685782D01*
D02*
G37*
G36*
X889474Y682640D02*
X884954D01*
Y673740D01*
X889474D01*
Y682640D01*
D02*
G37*
G36*
Y671200D02*
X884954D01*
Y662300D01*
X889474D01*
Y671200D01*
D02*
G37*
G36*
X902480Y641870D02*
X894060D01*
Y635900D01*
X902480D01*
Y641870D01*
D02*
G37*
G36*
X934210Y642820D02*
X925340D01*
Y635600D01*
X934210D01*
Y642820D01*
D02*
G37*
G36*
X781535Y661470D02*
X761035D01*
Y645470D01*
X766828D01*
Y632304D01*
X766049Y631526D01*
X765558Y631406D01*
X764416D01*
X764146Y631406D01*
X752890D01*
Y645220D01*
X758552D01*
Y660720D01*
X738052D01*
Y645220D01*
X743714D01*
Y626819D01*
X743712D01*
X744070Y624100D01*
X745119Y621567D01*
X746788Y619392D01*
X748963Y617723D01*
X751496Y616674D01*
X752416Y616553D01*
Y610406D01*
X764146D01*
X764416Y610406D01*
X765416D01*
X765686Y610406D01*
X777146D01*
X777416Y610406D01*
X778416D01*
X778686Y610406D01*
X790416D01*
Y616582D01*
X791001Y616659D01*
X793393Y617650D01*
X795448Y619226D01*
X797024Y621281D01*
X798015Y623673D01*
X798346Y626191D01*
X798356Y626240D01*
Y645220D01*
X804018D01*
Y660720D01*
X783518D01*
Y645220D01*
X789180D01*
Y631406D01*
X778686D01*
X778416Y631406D01*
X777274Y631406D01*
X776004Y631715D01*
Y645470D01*
X781535D01*
Y661470D01*
D02*
G37*
G36*
X902480Y633360D02*
X894060D01*
Y627390D01*
X902480D01*
Y633360D01*
D02*
G37*
G36*
X922800Y642820D02*
X913930D01*
X913158Y641870D01*
X912660Y641870D01*
X905020D01*
Y634630D01*
Y627390D01*
X911894D01*
X912335Y626707D01*
X912451Y626120D01*
X912277Y625930D01*
X893600D01*
Y623328D01*
X889934D01*
Y628860D01*
X878504D01*
X877434Y628860D01*
X876164Y628860D01*
X865804D01*
X864734Y628860D01*
X863464Y628860D01*
X853104D01*
X852034Y628860D01*
X850764Y628860D01*
X839334D01*
Y622818D01*
X811814D01*
Y622835D01*
X808647Y622418D01*
X805696Y621195D01*
X803161Y619251D01*
X801217Y616716D01*
X799994Y613765D01*
X799577Y610598D01*
X799577D01*
X799455Y609379D01*
X799373Y608756D01*
X798662Y607039D01*
X797531Y605565D01*
X796057Y604434D01*
X794340Y603723D01*
X792565Y603489D01*
X792498Y603502D01*
X785386D01*
Y603503D01*
X781765Y603147D01*
X778284Y602091D01*
X775075Y600376D01*
X772262Y598068D01*
X769954Y595255D01*
X768239Y592047D01*
X767183Y588565D01*
X766971Y586406D01*
X765686D01*
X765416Y586406D01*
X764416D01*
X764146Y586406D01*
X752416D01*
Y580494D01*
X734168D01*
Y583906D01*
X713668D01*
Y567906D01*
X734168D01*
Y571318D01*
X752416D01*
Y565406D01*
X764146D01*
X764416Y565406D01*
X765416D01*
X765686Y565406D01*
X777146D01*
X777416Y565406D01*
X778416D01*
X778686Y565406D01*
X790416D01*
Y586406D01*
X778686D01*
X778416Y586406D01*
X777416D01*
X777118Y586406D01*
X776811Y586756D01*
X776405Y587676D01*
X777225Y589656D01*
X778723Y591608D01*
X780674Y593105D01*
X782947Y594047D01*
X785260Y594351D01*
X785386Y594326D01*
X792498D01*
X792596Y594346D01*
X795671Y594648D01*
X798721Y595574D01*
X801533Y597076D01*
X803997Y599099D01*
X806020Y601563D01*
X807522Y604375D01*
X808448Y607425D01*
X808751Y610500D01*
X808770Y610598D01*
X808760Y610648D01*
X808983Y611771D01*
X809648Y612765D01*
X810641Y613429D01*
X811764Y613652D01*
X811814Y613642D01*
X839334D01*
Y607600D01*
X852317Y607600D01*
X853022Y606544D01*
X852700Y605767D01*
X851488Y604187D01*
X849907Y602974D01*
X848067Y602212D01*
X846172Y601962D01*
X846092Y601978D01*
X826280D01*
Y601983D01*
X821588Y601613D01*
X817012Y600515D01*
X812664Y598714D01*
X808651Y596255D01*
X805072Y593198D01*
X802016Y589619D01*
X799557Y585606D01*
X797756Y581258D01*
X796657Y576682D01*
X796288Y571990D01*
X796292D01*
Y537192D01*
X796302Y537142D01*
X796079Y536024D01*
X795418Y535034D01*
X794428Y534373D01*
X793260Y534177D01*
Y534177D01*
X790096Y533760D01*
X787148Y532539D01*
X784616Y530596D01*
X782673Y528064D01*
X781452Y525116D01*
X781035Y521952D01*
X781052D01*
Y444623D01*
X780286Y443670D01*
X779782Y443670D01*
X759286D01*
Y431940D01*
X759286Y431670D01*
Y430670D01*
X759286Y430400D01*
Y418940D01*
X759286Y418670D01*
Y417670D01*
X759286Y417400D01*
Y405670D01*
X765198D01*
Y387274D01*
X759786D01*
Y371274D01*
X779786D01*
Y387274D01*
X774374D01*
Y405670D01*
X780286D01*
Y417400D01*
X780286Y417670D01*
Y418670D01*
X780286Y419125D01*
X781227Y419978D01*
X782858Y419818D01*
X785796Y418926D01*
X788503Y417479D01*
X790877Y415531D01*
X792016Y414143D01*
Y394456D01*
X795428D01*
Y387886D01*
X795423D01*
X795793Y383195D01*
X796891Y378618D01*
X798692Y374270D01*
X801152Y370257D01*
X804208Y366679D01*
X807787Y363622D01*
X811800Y361163D01*
X816148Y359362D01*
X820724Y358263D01*
X825416Y357894D01*
Y357898D01*
X831795D01*
X832104Y356628D01*
X832104Y356486D01*
X832104D01*
Y355486D01*
X832104D01*
Y354074D01*
X779786D01*
Y368274D01*
X759786D01*
Y364862D01*
X757286D01*
Y368274D01*
X737286D01*
Y364862D01*
X734786D01*
Y368274D01*
X715077D01*
X713667Y369431D01*
X711711Y371814D01*
X710258Y374533D01*
X709363Y377482D01*
X709073Y380426D01*
X709098Y380550D01*
Y483812D01*
X709510D01*
Y488224D01*
X721030D01*
Y484812D01*
X741030D01*
Y488224D01*
X752187D01*
Y484162D01*
X758198D01*
Y482284D01*
X754787D01*
Y461784D01*
X770787D01*
Y482284D01*
X767375D01*
Y484162D01*
X773387D01*
Y517862D01*
X752187D01*
Y516400D01*
X741030D01*
Y519812D01*
X735618D01*
Y533042D01*
X749030D01*
Y554042D01*
X713030D01*
Y533042D01*
X726442D01*
Y519812D01*
X721030D01*
Y516400D01*
X709510D01*
Y520812D01*
X699210D01*
Y539292D01*
X700160D01*
Y560492D01*
X682260D01*
Y560032D01*
X676680D01*
Y549892D01*
X675410D01*
Y548622D01*
X666920D01*
Y539752D01*
X667870D01*
Y532112D01*
X682350D01*
Y539292D01*
X683810D01*
Y520692D01*
X686412D01*
Y516910D01*
X655050D01*
Y522312D01*
X619050D01*
Y501312D01*
X655050D01*
Y506714D01*
X686510D01*
Y502812D01*
X691140D01*
X691896Y501542D01*
X691794Y501352D01*
X686970D01*
Y494082D01*
X691510D01*
Y491542D01*
X686970D01*
Y484292D01*
X682260D01*
Y483832D01*
X676680D01*
Y473692D01*
X675410D01*
Y472422D01*
X666920D01*
Y463552D01*
X667870D01*
Y455912D01*
X675110D01*
Y454642D01*
X676380D01*
Y444952D01*
X681249D01*
X681689Y444292D01*
X681784Y443682D01*
X679672Y441949D01*
X677032Y440538D01*
X674168Y439669D01*
X671340Y439390D01*
X671190Y439420D01*
X655050D01*
Y444822D01*
X619050D01*
Y423822D01*
X652759D01*
X653612Y422881D01*
X653509Y421841D01*
X653484Y421714D01*
Y379136D01*
X649332D01*
Y378676D01*
X643752D01*
Y368536D01*
X642482D01*
Y367266D01*
X633992D01*
Y358396D01*
X634942D01*
Y351010D01*
X642182D01*
Y349740D01*
X643452D01*
Y340050D01*
X645952D01*
X647082Y339712D01*
Y321712D01*
X647082D01*
Y320712D01*
X647082D01*
Y302712D01*
X647082D01*
X647053Y301454D01*
X641832D01*
Y298042D01*
X636082D01*
Y301454D01*
X616082D01*
Y295756D01*
X612963Y294088D01*
X609385Y291152D01*
X606448Y287573D01*
X604266Y283491D01*
X602922Y279061D01*
X602468Y274454D01*
X602494D01*
Y178486D01*
X599082D01*
Y158486D01*
X615082D01*
Y178486D01*
X611670D01*
Y274454D01*
X611619Y274712D01*
X612079Y278207D01*
X613527Y281703D01*
X615831Y284705D01*
X616807Y285454D01*
X636082D01*
Y288866D01*
X641832D01*
Y285454D01*
X662332D01*
Y301454D01*
X662332D01*
X662361Y302712D01*
X670082D01*
X670142Y302462D01*
X670205D01*
X670602Y301657D01*
Y296882D01*
X680742D01*
Y295612D01*
X682011D01*
Y287122D01*
X690882D01*
Y288072D01*
X698472D01*
Y295312D01*
Y302552D01*
X691341D01*
Y304012D01*
X709892D01*
Y306614D01*
X715704D01*
Y293712D01*
X736704D01*
Y316194D01*
X786910D01*
X787013Y316215D01*
X787642Y316089D01*
X787914Y314932D01*
X787914Y314932D01*
X787914Y314932D01*
Y296332D01*
X786454D01*
Y303512D01*
X771974D01*
Y295872D01*
X771024D01*
Y287002D01*
X779514D01*
Y284462D01*
X771024D01*
Y275592D01*
X775442D01*
X776664Y275476D01*
Y254216D01*
X789164D01*
Y254216D01*
X789364D01*
Y254216D01*
X795665D01*
X795917Y252946D01*
X794086Y252188D01*
X790916Y251770D01*
X790694Y251814D01*
X771506D01*
Y255226D01*
X751006D01*
Y239226D01*
X771506D01*
Y242638D01*
X790694D01*
Y242619D01*
X795030Y243046D01*
X799200Y244311D01*
X803043Y246365D01*
X806411Y249129D01*
X809175Y252498D01*
X810094Y254216D01*
X814564Y254216D01*
X815834Y254216D01*
X827264D01*
Y259748D01*
X830100D01*
Y257146D01*
X848700D01*
Y255686D01*
X841520D01*
Y248446D01*
Y241206D01*
X849160D01*
Y240256D01*
X858030D01*
Y248746D01*
X859300D01*
Y250016D01*
X869440D01*
Y255596D01*
X869900D01*
Y256224D01*
X870740Y257146D01*
X871170Y257146D01*
X891040D01*
Y272546D01*
X885988D01*
Y274298D01*
X886800Y275232D01*
X887117Y275232D01*
X894054D01*
Y254216D01*
X906472D01*
X906872Y254139D01*
X907656Y253275D01*
X907584Y252548D01*
X906425Y248726D01*
X904542Y245205D01*
X902009Y242118D01*
X898922Y239584D01*
X895400Y237702D01*
X891578Y236542D01*
X887836Y236174D01*
X887604Y236220D01*
X872000D01*
X871877Y236196D01*
X868530Y235866D01*
X865194Y234854D01*
X862119Y233210D01*
X859424Y230998D01*
X857212Y228303D01*
X855568Y225228D01*
X854556Y221892D01*
X854226Y218545D01*
X854202Y218422D01*
Y212292D01*
X848800D01*
Y176292D01*
X869800D01*
Y212292D01*
X864398D01*
Y218422D01*
X864376Y218532D01*
X864622Y220399D01*
X865385Y222241D01*
X866599Y223823D01*
X868181Y225037D01*
X870023Y225800D01*
X871890Y226046D01*
X872000Y226024D01*
X887604D01*
X887637Y226031D01*
X892374Y226404D01*
X897027Y227521D01*
X901448Y229352D01*
X905528Y231852D01*
X909167Y234960D01*
X912274Y238598D01*
X914775Y242678D01*
X916606Y247099D01*
X917723Y251752D01*
X917917Y254216D01*
X919254Y254216D01*
X921406Y254216D01*
X921563Y253027D01*
X922968Y249636D01*
X925202Y246724D01*
X928114Y244490D01*
X931505Y243085D01*
X935144Y242606D01*
Y242638D01*
X949888D01*
Y239226D01*
X970388D01*
Y255226D01*
X949888D01*
Y251814D01*
X935144D01*
X935004Y251787D01*
X933266Y252132D01*
X932725Y252494D01*
X932585Y253870D01*
X932868Y254216D01*
X944654D01*
Y259748D01*
X949888D01*
Y257146D01*
X970188D01*
Y272546D01*
X949888D01*
Y269944D01*
X944654D01*
Y275476D01*
X943502D01*
Y287324D01*
X947654D01*
Y287784D01*
X950348D01*
Y282516D01*
X969728D01*
Y288486D01*
X962994D01*
Y296654D01*
X954504D01*
Y297924D01*
X953234D01*
Y308064D01*
X947654D01*
Y308524D01*
X945861D01*
X945299Y309663D01*
X945401Y309796D01*
X946762Y310840D01*
X948348Y311497D01*
X949968Y311711D01*
X950050Y311694D01*
X981000D01*
Y306292D01*
X1017000D01*
Y311694D01*
X1023140D01*
Y309092D01*
X1041740D01*
Y307632D01*
X1034560D01*
Y300392D01*
Y293152D01*
X1042200D01*
Y292274D01*
X1051070D01*
Y300764D01*
X1053610D01*
Y292274D01*
X1062480D01*
X1062706Y291098D01*
Y287384D01*
X1082706D01*
Y290796D01*
X1088456D01*
Y287384D01*
X1108956D01*
Y289279D01*
X1110012Y289985D01*
X1111156Y289511D01*
X1113214Y287932D01*
X1114793Y285874D01*
X1115785Y283478D01*
X1116106Y281046D01*
X1116078Y280906D01*
Y193022D01*
X1116110Y192860D01*
X1115779Y189498D01*
X1114751Y186109D01*
X1113081Y182985D01*
X1110835Y180247D01*
X1108097Y178001D01*
X1104974Y176331D01*
X1101584Y175303D01*
X1100647Y175211D01*
X1099706Y176064D01*
Y180416D01*
X1083706D01*
Y160416D01*
X1099706D01*
Y165962D01*
X1102313Y166167D01*
X1106462Y167163D01*
X1110404Y168796D01*
X1114042Y171025D01*
X1117286Y173796D01*
X1120057Y177040D01*
X1122286Y180678D01*
X1123919Y184620D01*
X1124915Y188769D01*
X1125247Y192986D01*
X1125254Y193022D01*
Y280906D01*
X1125258D01*
X1124891Y284627D01*
X1123806Y288204D01*
X1122044Y291501D01*
X1119672Y294391D01*
X1116783Y296762D01*
X1113486Y298524D01*
X1109908Y299610D01*
X1108956Y299703D01*
Y303384D01*
X1088456D01*
Y299972D01*
X1082706D01*
Y303384D01*
X1077294D01*
Y327786D01*
X1077706D01*
Y345786D01*
X1077706D01*
Y346786D01*
X1077706D01*
Y364786D01*
X1078912Y364942D01*
X1083346D01*
Y373362D01*
X1076106D01*
Y375902D01*
X1083346D01*
Y383542D01*
X1084296D01*
Y392412D01*
X1075806D01*
Y393682D01*
X1074536D01*
Y403822D01*
X1068956D01*
Y404282D01*
X1064804D01*
Y460552D01*
X1068956D01*
Y461012D01*
X1074536D01*
Y471152D01*
X1075806D01*
Y472422D01*
X1084296D01*
Y481292D01*
X1083346D01*
Y488932D01*
X1068866D01*
Y481752D01*
X1067406D01*
Y500352D01*
X1064804D01*
Y504207D01*
X1091490D01*
Y498805D01*
X1127490D01*
Y519804D01*
X1091490D01*
Y514402D01*
X1064706D01*
Y518304D01*
X1060075D01*
X1059319Y519574D01*
X1059422Y519765D01*
X1064246D01*
Y527035D01*
X1059706D01*
Y529575D01*
X1064246D01*
Y536845D01*
X1065177Y537662D01*
X1068336D01*
Y547352D01*
X1069606D01*
Y548622D01*
X1076846D01*
Y556262D01*
X1077796D01*
Y565132D01*
X1069306D01*
Y566402D01*
X1068036D01*
Y576542D01*
X1063464D01*
X1062863Y577812D01*
X1063099Y578100D01*
X1065605Y580157D01*
X1068465Y581686D01*
X1071569Y582627D01*
X1074626Y582928D01*
X1074796Y582894D01*
X1091490D01*
Y577492D01*
X1127490D01*
Y598492D01*
X1091490D01*
Y593090D01*
X1074796D01*
X1074665Y593064D01*
X1070624Y592746D01*
X1066554Y591769D01*
X1062687Y590167D01*
X1059119Y587980D01*
X1055936Y585262D01*
X1053218Y582080D01*
X1051031Y578511D01*
X1050406Y577002D01*
X1044556D01*
Y555802D01*
X1045506D01*
Y537305D01*
X1041706D01*
Y534032D01*
X1041277Y533656D01*
X1040436Y533305D01*
X1038096Y534274D01*
X1035880Y535975D01*
X1034179Y538191D01*
X1033110Y540772D01*
X1032908Y542306D01*
X1032825Y543542D01*
X1032825D01*
X1032365Y547038D01*
X1031016Y550295D01*
X1028870Y553092D01*
X1026073Y555238D01*
X1022815Y556587D01*
X1019320Y557048D01*
Y557020D01*
X991380D01*
X991336Y557011D01*
X987987Y556682D01*
X984725Y555692D01*
X981719Y554085D01*
X979083Y551922D01*
X976921Y549287D01*
X975314Y546281D01*
X974324Y543018D01*
X973994Y539670D01*
X973986Y539626D01*
Y498304D01*
X968574D01*
Y494892D01*
X963894D01*
Y498304D01*
X943894D01*
Y482304D01*
X963894D01*
Y485716D01*
X968574D01*
Y482304D01*
X988574D01*
Y485716D01*
X992108D01*
Y481654D01*
X1013308D01*
Y485716D01*
X1016788D01*
Y482304D01*
X1036788D01*
Y483980D01*
X1037908Y484578D01*
X1038468Y484204D01*
X1039635Y482458D01*
X1040012Y480561D01*
X1039980Y480398D01*
Y434670D01*
X1036568D01*
Y414670D01*
X1039016D01*
X1039915Y413400D01*
X1039744Y412103D01*
X1038971Y410238D01*
X1037742Y408636D01*
X1036141Y407407D01*
X1034276Y406634D01*
X1032357Y406382D01*
X1032274Y406398D01*
X1032262Y406396D01*
X1028753Y406050D01*
X1025367Y405023D01*
X1022246Y403355D01*
X1019511Y401111D01*
X1017267Y398376D01*
X1015599Y395255D01*
X1014572Y391869D01*
X1014226Y388360D01*
X1014224Y388348D01*
Y373108D01*
X1014242Y373019D01*
X1013981Y371040D01*
X1013183Y369113D01*
X1011913Y367459D01*
X1010414Y366308D01*
X1009755Y366462D01*
X1009144Y366870D01*
Y368560D01*
X988644D01*
Y352560D01*
X1009144D01*
Y356261D01*
X1009606Y356307D01*
X1012820Y357281D01*
X1015781Y358865D01*
X1018377Y360995D01*
X1020508Y363591D01*
X1022091Y366553D01*
X1023065Y369766D01*
X1023389Y373052D01*
X1023400Y373108D01*
Y388348D01*
X1023378Y388461D01*
X1023666Y390654D01*
X1024557Y392804D01*
X1025973Y394649D01*
X1027818Y396065D01*
X1029968Y396956D01*
X1032161Y397244D01*
X1032274Y397222D01*
X1032343Y397236D01*
X1035566Y397553D01*
X1038732Y398513D01*
X1041649Y400073D01*
X1044207Y402172D01*
X1046305Y404729D01*
X1047865Y407646D01*
X1048825Y410812D01*
X1049143Y414035D01*
X1049156Y414104D01*
Y414670D01*
X1052568D01*
Y434670D01*
X1049156D01*
Y480398D01*
X1049192D01*
X1048697Y484159D01*
X1047246Y487663D01*
X1044937Y490673D01*
X1041927Y492982D01*
X1038423Y494433D01*
X1036788Y494649D01*
Y498304D01*
X1016788D01*
Y494892D01*
X1013308D01*
Y504716D01*
X1016788D01*
Y501305D01*
X1036788D01*
Y504716D01*
X1041706D01*
Y500304D01*
X1052006D01*
Y481752D01*
X1051056D01*
Y460552D01*
X1054608D01*
Y404282D01*
X1051056D01*
Y383082D01*
X1052006D01*
Y364482D01*
X1054608D01*
Y355786D01*
X1054706Y355294D01*
Y346786D01*
X1054706D01*
Y345786D01*
X1054706D01*
Y341884D01*
X963948D01*
X963923Y341879D01*
X963174Y342028D01*
X962517Y342467D01*
X962078Y343124D01*
X961929Y343873D01*
X961934Y343898D01*
X961914Y343996D01*
X961563Y346662D01*
X960497Y349238D01*
X958799Y351450D01*
X956588Y353147D01*
X954012Y354214D01*
X951346Y354565D01*
X951248Y354584D01*
X898992D01*
X898104Y355486D01*
Y356486D01*
X898104D01*
X898104Y356628D01*
X898413Y357898D01*
X900296D01*
Y357894D01*
X904988Y358263D01*
X909564Y359362D01*
X913912Y361163D01*
X917925Y363622D01*
X921504Y366679D01*
X924560Y370257D01*
X927020Y374270D01*
X928821Y378618D01*
X929919Y383195D01*
X930288Y387886D01*
X930284D01*
Y394456D01*
X933696D01*
Y414456D01*
X931865D01*
X931159Y415512D01*
X931357Y415991D01*
X932668Y417699D01*
X934375Y419009D01*
X936364Y419833D01*
X938402Y420101D01*
X938498Y420082D01*
X942496D01*
X943275Y419304D01*
X943394Y418812D01*
Y417670D01*
X943394Y417400D01*
Y405670D01*
X964394D01*
Y417400D01*
X964394Y417670D01*
Y418670D01*
X964394Y418940D01*
Y430400D01*
X964394Y430670D01*
X964394D01*
Y431670D01*
X964394D01*
Y443670D01*
X958482D01*
Y463304D01*
X963894D01*
Y479304D01*
X943894D01*
Y463304D01*
X949306D01*
Y443670D01*
X943394D01*
Y438548D01*
X942124Y438120D01*
X941699Y438680D01*
X941317Y441586D01*
X941358Y441794D01*
Y572752D01*
X941362D01*
X940993Y577444D01*
X939894Y582020D01*
X938093Y586368D01*
X935634Y590381D01*
X932578Y593960D01*
X928999Y597016D01*
X924986Y599476D01*
X920638Y601277D01*
X916062Y602375D01*
X911370Y602745D01*
Y602740D01*
X880890D01*
X880728Y602708D01*
X878830Y603085D01*
X877084Y604252D01*
X875918Y605998D01*
X875794Y606618D01*
X876600Y607600D01*
X877234D01*
X878504Y607600D01*
X889934D01*
Y613132D01*
X893600D01*
Y610530D01*
X913470D01*
Y609580D01*
X934670D01*
Y613132D01*
X951790D01*
Y607730D01*
X987790D01*
Y628730D01*
X951790D01*
Y623328D01*
X934670D01*
Y627480D01*
X934210D01*
Y633060D01*
X924070D01*
Y634330D01*
X922800D01*
Y642820D01*
D02*
G37*
G36*
X1077796Y576542D02*
X1070576D01*
Y567672D01*
X1077796D01*
Y576542D01*
D02*
G37*
G36*
X674140Y560032D02*
X666920D01*
Y551162D01*
X674140D01*
Y560032D01*
D02*
G37*
G36*
X1076846Y546082D02*
X1070876D01*
Y537662D01*
X1076846D01*
Y546082D01*
D02*
G37*
G36*
X682350Y529572D02*
X676380D01*
Y521152D01*
X682350D01*
Y529572D01*
D02*
G37*
G36*
X673840D02*
X667870D01*
Y521152D01*
X673840D01*
Y529572D01*
D02*
G37*
G36*
X1083346Y499892D02*
X1077376D01*
Y491472D01*
X1083346D01*
Y499892D01*
D02*
G37*
G36*
X1074836D02*
X1068866D01*
Y491472D01*
X1074836D01*
Y499892D01*
D02*
G37*
G36*
X674140Y483832D02*
X666920D01*
Y474962D01*
X674140D01*
Y483832D01*
D02*
G37*
G36*
X1084296Y469882D02*
X1077076D01*
Y461012D01*
X1084296D01*
Y469882D01*
D02*
G37*
G36*
X673840Y453372D02*
X667870D01*
Y444952D01*
X673840D01*
Y453372D01*
D02*
G37*
G36*
X751786Y482284D02*
X735786D01*
Y461784D01*
X739198D01*
Y446824D01*
X739223Y446699D01*
X738897Y445058D01*
X737896Y443561D01*
X736556Y442665D01*
X735889Y442845D01*
X735286Y443340D01*
Y443670D01*
X714286D01*
Y431940D01*
X714286Y431670D01*
Y430670D01*
X714286Y430400D01*
Y418940D01*
X714286Y418670D01*
Y417670D01*
X714286Y417400D01*
Y405670D01*
X720198D01*
Y387274D01*
X714786D01*
Y371274D01*
X734786D01*
Y387274D01*
X729374D01*
Y405670D01*
X735286D01*
Y417400D01*
X735286Y417670D01*
Y418536D01*
X736324Y419230D01*
X737524Y418733D01*
X739688Y417072D01*
X741349Y414908D01*
X742392Y412388D01*
X742728Y409837D01*
X742698Y409684D01*
Y387274D01*
X737286D01*
Y371274D01*
X757286D01*
Y387274D01*
X751874D01*
Y409684D01*
X751880D01*
X751504Y413504D01*
X750390Y417177D01*
X748580Y420562D01*
X746145Y423530D01*
X743178Y425965D01*
X739793Y427774D01*
X736120Y428888D01*
X735286Y428970D01*
Y430400D01*
X735286Y430670D01*
Y431670D01*
X735286Y431940D01*
Y433139D01*
X738197Y433522D01*
X741518Y434898D01*
X744370Y437086D01*
X746559Y439939D01*
X747935Y443260D01*
X748404Y446824D01*
X748374D01*
Y461784D01*
X751786D01*
Y482284D01*
D02*
G37*
G36*
X988574Y479304D02*
X968574D01*
Y463304D01*
X988574D01*
Y464929D01*
X989630Y465634D01*
X989840Y465547D01*
X991705Y464116D01*
X993137Y462250D01*
X994037Y460077D01*
X994329Y457861D01*
X994306Y457746D01*
Y443670D01*
X988394D01*
Y431940D01*
X988394Y431670D01*
Y430670D01*
X988394Y430400D01*
Y418940D01*
X988394Y418670D01*
Y417670D01*
X988394Y417400D01*
Y405670D01*
X994306D01*
Y387560D01*
X988644D01*
Y371560D01*
X1009144D01*
Y387560D01*
X1003482D01*
Y405670D01*
X1009394D01*
Y417400D01*
X1009394Y417670D01*
X1009394Y418812D01*
X1009703Y420082D01*
X1017568D01*
Y414670D01*
X1033568D01*
Y434670D01*
X1017568D01*
Y429258D01*
X1010292D01*
X1009513Y430037D01*
X1009394Y430528D01*
Y431670D01*
X1009394Y431940D01*
Y443670D01*
X1003482D01*
Y457746D01*
X1003480Y457754D01*
X1003132Y461286D01*
X1002100Y464690D01*
X1000423Y467827D01*
X998167Y470577D01*
X995417Y472833D01*
X992280Y474510D01*
X988876Y475543D01*
X988574Y475572D01*
Y479304D01*
D02*
G37*
G36*
X1084296Y403822D02*
X1077076D01*
Y394952D01*
X1084296D01*
Y403822D01*
D02*
G37*
G36*
X641212Y378676D02*
X633992D01*
Y369806D01*
X641212D01*
Y378676D01*
D02*
G37*
G36*
X640912Y348470D02*
X634942D01*
Y340050D01*
X640912D01*
Y348470D01*
D02*
G37*
G36*
X786454Y314472D02*
X780484D01*
Y306052D01*
X786454D01*
Y314472D01*
D02*
G37*
G36*
X777944D02*
X771974D01*
Y306052D01*
X777944D01*
Y314472D01*
D02*
G37*
G36*
X1032020Y307632D02*
X1023600D01*
Y301662D01*
X1032020D01*
Y307632D01*
D02*
G37*
G36*
X962994Y308064D02*
X955774D01*
Y299194D01*
X962994D01*
Y308064D01*
D02*
G37*
G36*
X709432Y302552D02*
X701012D01*
Y296582D01*
X709432D01*
Y302552D01*
D02*
G37*
G36*
X1032020Y299122D02*
X1023600D01*
Y293152D01*
X1032020D01*
Y299122D01*
D02*
G37*
G36*
X709432Y294042D02*
X701012D01*
Y288072D01*
X709432D01*
Y294042D01*
D02*
G37*
G36*
X679472Y294342D02*
X670602D01*
Y287122D01*
X679472D01*
Y294342D01*
D02*
G37*
G36*
X984862Y284674D02*
X977842D01*
Y277654D01*
X984862D01*
Y284674D01*
D02*
G37*
G36*
X1060900Y286174D02*
X1054880D01*
Y277654D01*
X1060900D01*
Y286174D01*
D02*
G37*
G36*
X1052340D02*
X1046320D01*
Y277654D01*
X1052340D01*
Y286174D01*
D02*
G37*
G36*
X753032Y284244D02*
X747012D01*
Y275724D01*
X753032D01*
Y284244D01*
D02*
G37*
G36*
X744472D02*
X738452D01*
Y275724D01*
X744472D01*
Y284244D01*
D02*
G37*
G36*
X684532Y282744D02*
X677512D01*
Y275724D01*
X684532D01*
Y282744D01*
D02*
G37*
G36*
X674972D02*
X667952D01*
Y275724D01*
X674972D01*
Y282744D01*
D02*
G37*
G36*
X969728Y279976D02*
X961308D01*
Y274006D01*
X969728D01*
Y279976D01*
D02*
G37*
G36*
X958768D02*
X950348D01*
Y274006D01*
X958768D01*
Y279976D01*
D02*
G37*
G36*
X984862Y275114D02*
X977842D01*
Y268094D01*
X984862D01*
Y275114D01*
D02*
G37*
G36*
X1060900Y275114D02*
X1054880D01*
Y266594D01*
X1060900D01*
Y275114D01*
D02*
G37*
G36*
X1052340D02*
X1046320D01*
Y266594D01*
X1052340D01*
Y275114D01*
D02*
G37*
G36*
X684532Y273184D02*
X677512D01*
Y266164D01*
X684532D01*
Y273184D01*
D02*
G37*
G36*
X674972D02*
X667952D01*
Y266164D01*
X674972D01*
Y273184D01*
D02*
G37*
G36*
X753032Y273184D02*
X747012D01*
Y264664D01*
X753032D01*
Y273184D01*
D02*
G37*
G36*
X744472D02*
X738452D01*
Y264664D01*
X744472D01*
Y273184D01*
D02*
G37*
G36*
X1108956Y284384D02*
X1088456D01*
Y268384D01*
X1094118D01*
Y257552D01*
X1093340Y256774D01*
X1092848Y256654D01*
X1091706D01*
X1091436Y256654D01*
X1079976D01*
X1079706Y256654D01*
X1078564Y256654D01*
X1077294Y256963D01*
Y268384D01*
X1082706D01*
Y284384D01*
X1062706D01*
Y268384D01*
X1068118D01*
Y256654D01*
X1066706D01*
Y235654D01*
X1078436D01*
X1078706Y235654D01*
X1079706D01*
X1079976Y235654D01*
X1091436D01*
X1091706Y235654D01*
X1092706D01*
X1092977Y235654D01*
X1104706D01*
Y256654D01*
X1103294D01*
Y268384D01*
X1108956D01*
Y284384D01*
D02*
G37*
G36*
X1041360Y286634D02*
X1025860D01*
Y280166D01*
X1024695Y279684D01*
X1022713Y278163D01*
X1021193Y276181D01*
X1020237Y273873D01*
X1019923Y271490D01*
X1019904Y271397D01*
Y257552D01*
X1019126Y256773D01*
X1018634Y256654D01*
X1017492D01*
X1017222Y256654D01*
X1005762D01*
X1005492Y256654D01*
X1004350Y256654D01*
X1003080Y256963D01*
Y267634D01*
X1018382D01*
Y285134D01*
X1000882D01*
Y280391D01*
X998992Y279608D01*
X996885Y277991D01*
X995692Y276436D01*
X994422Y276867D01*
Y284674D01*
X987402D01*
Y268094D01*
X993904D01*
Y256654D01*
X992492D01*
Y235654D01*
X1004222D01*
X1004492Y235654D01*
X1005492D01*
X1005762Y235654D01*
X1017222D01*
X1017492Y235654D01*
X1018493D01*
X1018762Y235654D01*
X1030492D01*
Y256654D01*
X1029081D01*
Y266134D01*
X1041360D01*
Y286634D01*
D02*
G37*
G36*
X733492Y284704D02*
X717992D01*
Y264204D01*
X721108D01*
Y255622D01*
X720394Y254908D01*
X719838Y254724D01*
X718742D01*
X718472Y254724D01*
X707012D01*
X706742Y254724D01*
X705600Y254724D01*
X704330Y255033D01*
Y265704D01*
X708492D01*
Y283204D01*
X690992D01*
Y265704D01*
X695154D01*
Y254724D01*
X693742D01*
Y233724D01*
X705472D01*
X705742Y233724D01*
X706742D01*
X707012Y233724D01*
X718472D01*
X718742Y233724D01*
X719742D01*
X720012Y233724D01*
X731742D01*
Y254724D01*
X730284D01*
Y264204D01*
X733492D01*
Y284704D01*
D02*
G37*
G36*
X662332Y282454D02*
X641832D01*
Y266454D01*
X647494D01*
Y255622D01*
X646715Y254844D01*
X646224Y254724D01*
X645082D01*
X644812Y254724D01*
X633352D01*
X633082Y254724D01*
X631940Y254724D01*
X630670Y255033D01*
Y266454D01*
X636082D01*
Y282454D01*
X616082D01*
Y266454D01*
X621494D01*
Y254724D01*
X620082D01*
Y233724D01*
X631812D01*
X632082Y233724D01*
X633082D01*
X633352Y233724D01*
X644812D01*
X645082Y233724D01*
X646082D01*
X646352Y233724D01*
X658082D01*
Y254724D01*
X656670D01*
Y266454D01*
X662332D01*
Y282454D01*
D02*
G37*
G36*
X890580Y255686D02*
X882160D01*
Y249716D01*
X890580D01*
Y255686D01*
D02*
G37*
G36*
X879620D02*
X871200D01*
Y249716D01*
X879620D01*
Y255686D01*
D02*
G37*
G36*
X838980D02*
X830560D01*
Y249716D01*
X838980D01*
Y255686D01*
D02*
G37*
G36*
X890580Y247176D02*
X882160D01*
Y241206D01*
X890580D01*
Y247176D01*
D02*
G37*
G36*
X879620D02*
X871200D01*
Y241206D01*
X879620D01*
Y247176D01*
D02*
G37*
G36*
X838980D02*
X830560D01*
Y241206D01*
X838980D01*
Y247176D01*
D02*
G37*
G36*
X869440Y247476D02*
X860570D01*
Y240256D01*
X869440D01*
Y247476D01*
D02*
G37*
G36*
X970388Y236226D02*
X949888D01*
Y220226D01*
X952369D01*
X952931Y219087D01*
X952378Y218366D01*
X950096Y216615D01*
X947438Y215514D01*
X945924Y215315D01*
X944654Y216429D01*
Y221236D01*
X942830D01*
X942674Y222421D01*
X941775Y224592D01*
X940344Y226458D01*
X938479Y227889D01*
X936307Y228788D01*
X934141Y229073D01*
X933976Y229106D01*
X917212D01*
X917018Y229068D01*
X914939Y228794D01*
X912821Y227917D01*
X911002Y226521D01*
X909606Y224702D01*
X908728Y222584D01*
X908551Y221236D01*
X906754Y221236D01*
X905484Y221236D01*
X894054D01*
Y199976D01*
X905484D01*
X906554Y199976D01*
X907518Y199976D01*
X908416Y199078D01*
Y195536D01*
X902754D01*
Y191815D01*
X902343Y191775D01*
X898938Y190742D01*
X895800Y189065D01*
X893049Y186807D01*
X890792Y184057D01*
X889114Y180918D01*
X888081Y177513D01*
X887733Y173980D01*
X887732Y173972D01*
Y149842D01*
X887754Y149730D01*
X887446Y148179D01*
X886503Y146769D01*
X885093Y145827D01*
X884631Y145735D01*
X883430Y145568D01*
Y145568D01*
X879934Y145107D01*
X876677Y143758D01*
X873880Y141612D01*
X871734Y138815D01*
X870385Y135558D01*
X869924Y132062D01*
X869952D01*
Y120632D01*
X869968Y120551D01*
X870286Y118131D01*
X871252Y115801D01*
X872787Y113800D01*
X874789Y112264D01*
X877119Y111299D01*
X878889Y111066D01*
Y93502D01*
X895716D01*
Y82896D01*
X895696D01*
X896128Y78507D01*
X897409Y74286D01*
X899488Y70397D01*
X902286Y66988D01*
X905695Y64190D01*
X909585Y62110D01*
X913805Y60830D01*
X916154Y60599D01*
Y54756D01*
X932884D01*
X933654Y54756D01*
X934924Y54756D01*
X951654D01*
Y60418D01*
X986092D01*
Y60414D01*
X990784Y60783D01*
X995360Y61882D01*
X999708Y63683D01*
X1003721Y66142D01*
X1007300Y69198D01*
X1010357Y72777D01*
X1012816Y76790D01*
X1014617Y81138D01*
X1015715Y85714D01*
X1016085Y90406D01*
X1016080D01*
Y189756D01*
X1016859Y190535D01*
X1017350Y190654D01*
X1018493D01*
X1018762Y190654D01*
X1030492D01*
Y211654D01*
X1018762D01*
X1018493Y211654D01*
X1017648D01*
X1016949Y212699D01*
X1017050Y212942D01*
X1018229Y214479D01*
X1019766Y215658D01*
X1021556Y216400D01*
X1023402Y216643D01*
X1023476Y216628D01*
X1074254D01*
X1074314Y216640D01*
X1076036Y216413D01*
X1077696Y215726D01*
X1079122Y214632D01*
X1080216Y213206D01*
X1080421Y212710D01*
X1079716Y211654D01*
X1078706D01*
X1078436Y211654D01*
X1066706D01*
Y190654D01*
X1068118D01*
Y180416D01*
X1064706D01*
Y160416D01*
X1080706D01*
Y180416D01*
X1077294D01*
Y189756D01*
X1078073Y190535D01*
X1078564Y190654D01*
X1079706D01*
X1079976Y190654D01*
X1091436D01*
X1091706Y190654D01*
X1092706D01*
X1092977Y190654D01*
X1104706D01*
Y211654D01*
X1092977D01*
X1092706Y211654D01*
X1091706D01*
X1091436Y211654D01*
X1090097D01*
X1089976Y212891D01*
X1089063Y215898D01*
X1087582Y218669D01*
X1085589Y221098D01*
X1083159Y223092D01*
X1080388Y224573D01*
X1077381Y225485D01*
X1074363Y225783D01*
X1074254Y225804D01*
X1023476D01*
X1023393Y225788D01*
X1020245Y225478D01*
X1017138Y224535D01*
X1014274Y223004D01*
X1011764Y220944D01*
X1009704Y218434D01*
X1008173Y215571D01*
X1007231Y212463D01*
X1007151Y211654D01*
X1005762D01*
X1005492Y211654D01*
X1004492D01*
X1004222Y211654D01*
X992492D01*
Y190654D01*
X993904D01*
Y181686D01*
X990492D01*
Y161686D01*
X1005634D01*
X1006492Y161686D01*
X1006904Y160587D01*
Y90406D01*
X1006945Y90199D01*
X1006565Y86334D01*
X1005377Y82418D01*
X1003448Y78809D01*
X1000852Y75646D01*
X997689Y73050D01*
X994080Y71122D01*
X990164Y69934D01*
X986300Y69553D01*
X986092Y69594D01*
X951654D01*
Y75256D01*
X934924D01*
X934154Y75256D01*
X932884Y75256D01*
X916154D01*
Y70750D01*
X915199Y69913D01*
X914732Y69974D01*
X911506Y71311D01*
X908735Y73437D01*
X906609Y76207D01*
X905273Y79434D01*
X904847Y82668D01*
X904892Y82896D01*
Y93502D01*
X921719D01*
Y110964D01*
X973484D01*
X974262Y110186D01*
X974382Y109694D01*
Y108552D01*
X974382Y108282D01*
Y96552D01*
X995382D01*
Y108282D01*
X995382Y108552D01*
Y109552D01*
X995382Y109822D01*
Y121282D01*
X995382Y121552D01*
Y122552D01*
X995382Y122822D01*
Y134552D01*
X974382D01*
Y122822D01*
X974382Y122552D01*
X974382Y121410D01*
X974073Y120140D01*
X932319D01*
X931198Y120632D01*
Y137142D01*
X931163Y137317D01*
X931558Y139301D01*
X932781Y141131D01*
X934611Y142354D01*
X936595Y142749D01*
X936770Y142714D01*
X948200D01*
Y142702D01*
X951231Y143101D01*
X954056Y144271D01*
X956482Y146132D01*
X958343Y148558D01*
X959513Y151383D01*
X959912Y154414D01*
X959900D01*
Y193698D01*
X959916D01*
X959502Y197895D01*
X958278Y201930D01*
X956290Y205649D01*
X954628Y207675D01*
X954875Y208921D01*
X955780Y209405D01*
X958833Y211911D01*
X961339Y214964D01*
X963201Y218447D01*
X963741Y220226D01*
X970388D01*
Y236226D01*
D02*
G37*
G36*
X987032Y181226D02*
X980762D01*
Y172956D01*
X987032D01*
Y181226D01*
D02*
G37*
G36*
X978222D02*
X971952D01*
Y172956D01*
X978222D01*
Y181226D01*
D02*
G37*
G36*
X688281Y177924D02*
X682011D01*
Y169654D01*
X688281D01*
Y177924D01*
D02*
G37*
G36*
X679472D02*
X673202D01*
Y169654D01*
X679472D01*
Y177924D01*
D02*
G37*
G36*
X987032Y170416D02*
X980762D01*
Y162146D01*
X987032D01*
Y170416D01*
D02*
G37*
G36*
X978222D02*
X971952D01*
Y162146D01*
X978222D01*
Y170416D01*
D02*
G37*
G36*
X688281Y167114D02*
X682011D01*
Y158844D01*
X688281D01*
Y167114D01*
D02*
G37*
G36*
X679472D02*
X673202D01*
Y158844D01*
X679472D01*
Y167114D01*
D02*
G37*
G36*
X1067096Y149682D02*
X1051096D01*
Y144270D01*
X1037756D01*
Y144289D01*
X1034526Y143864D01*
X1031516Y142617D01*
X1028931Y140633D01*
X1026947Y138048D01*
X1025701Y135038D01*
X1025637Y134552D01*
X1019382D01*
Y122822D01*
X1019382Y122552D01*
Y121552D01*
X1019382Y121282D01*
Y109822D01*
X1019382Y109552D01*
Y108552D01*
X1019382Y108282D01*
Y96552D01*
X1025658D01*
X1025719Y96086D01*
X1027038Y92902D01*
X1029136Y90168D01*
X1031870Y88070D01*
X1035054Y86751D01*
X1038470Y86301D01*
Y86326D01*
X1051096D01*
Y80664D01*
X1067096D01*
Y101164D01*
X1051096D01*
Y95502D01*
X1040913D01*
X1040382Y96552D01*
Y108282D01*
X1040382Y108552D01*
X1040382Y109694D01*
X1040691Y110964D01*
X1051096D01*
Y105552D01*
X1067096D01*
Y125552D01*
X1051096D01*
Y120140D01*
X1041280D01*
X1040502Y120919D01*
X1040382Y121410D01*
Y122552D01*
X1040382Y122822D01*
Y134552D01*
X1041428Y135094D01*
X1051096D01*
Y129682D01*
X1067096D01*
Y149682D01*
D02*
G37*
G36*
X1085636Y149222D02*
X1079366D01*
Y140952D01*
X1085636D01*
Y149222D01*
D02*
G37*
G36*
X1076826D02*
X1070556D01*
Y140952D01*
X1076826D01*
Y149222D01*
D02*
G37*
G36*
X646520D02*
X640250D01*
Y140952D01*
X646520D01*
Y149222D01*
D02*
G37*
G36*
X637710D02*
X631440D01*
Y140952D01*
X637710D01*
Y149222D01*
D02*
G37*
G36*
X1085636Y138412D02*
X1079366D01*
Y130142D01*
X1085636D01*
Y138412D01*
D02*
G37*
G36*
X1076826D02*
X1070556D01*
Y130142D01*
X1076826D01*
Y138412D01*
D02*
G37*
G36*
X646520D02*
X640250D01*
Y130142D01*
X646520D01*
Y138412D01*
D02*
G37*
G36*
X637710D02*
X631440D01*
Y130142D01*
X637710D01*
Y138412D01*
D02*
G37*
G36*
X771506Y236226D02*
X751006D01*
Y220226D01*
X771506D01*
Y223638D01*
X785742D01*
X785903Y223670D01*
X787788Y223295D01*
X788969Y222506D01*
X788584Y221236D01*
X776664D01*
Y201420D01*
X769130D01*
X769044Y201403D01*
X765908Y201094D01*
X762809Y200154D01*
X759953Y198628D01*
X757450Y196574D01*
X755396Y194071D01*
X753870Y191215D01*
X752930Y188116D01*
X752621Y184980D01*
X752604Y184894D01*
Y154160D01*
X752583D01*
X753017Y150864D01*
X754289Y147792D01*
X756314Y145154D01*
X758951Y143130D01*
X762023Y141857D01*
X765320Y141423D01*
Y141444D01*
X775480D01*
X775540Y141456D01*
X777256Y141230D01*
X778911Y140545D01*
X780332Y139454D01*
X781422Y138033D01*
X782108Y136378D01*
X782334Y134662D01*
X782322Y134602D01*
Y132189D01*
X782308D01*
X782716Y128046D01*
X783924Y124061D01*
X785341Y121410D01*
X784580Y120140D01*
X743338D01*
X742560Y120919D01*
X742440Y121410D01*
Y122552D01*
X742440Y122822D01*
Y134552D01*
X721440D01*
Y122822D01*
X721440Y122552D01*
Y121552D01*
X721440Y121282D01*
Y109822D01*
X721440Y109552D01*
Y108552D01*
X721440Y108282D01*
Y96552D01*
X742440D01*
Y108282D01*
X742440Y108552D01*
X742440Y109694D01*
X742749Y110964D01*
X793799D01*
Y93502D01*
X810626D01*
Y85436D01*
X810651Y85310D01*
X810359Y82338D01*
X809455Y79359D01*
X807988Y76614D01*
X806013Y74208D01*
X803606Y72233D01*
X800861Y70765D01*
X800384Y70621D01*
X799364Y71377D01*
Y75256D01*
X782634D01*
X781864Y75256D01*
X780594Y75256D01*
X763864D01*
Y69594D01*
X738142D01*
X737935Y69553D01*
X734070Y69934D01*
X730154Y71122D01*
X726545Y73050D01*
X723382Y75646D01*
X720786Y78809D01*
X718857Y82418D01*
X717670Y86334D01*
X717289Y90199D01*
X717330Y90406D01*
Y187826D01*
X718109Y188605D01*
X718600Y188724D01*
X719742D01*
X720012Y188724D01*
X731742D01*
Y209724D01*
X720012D01*
X719742Y209724D01*
X718742D01*
X718472Y209724D01*
X717145D01*
X717026Y210932D01*
X716173Y213743D01*
X714789Y216334D01*
X712925Y218605D01*
X710654Y220469D01*
X708063Y221854D01*
X705252Y222706D01*
X702487Y222979D01*
X702328Y223010D01*
X649750D01*
X649603Y222981D01*
X646777Y222703D01*
X643917Y221835D01*
X641282Y220427D01*
X638973Y218531D01*
X637077Y216222D01*
X635669Y213587D01*
X634801Y210728D01*
X634703Y209724D01*
X633352D01*
X633082Y209724D01*
X632082D01*
X631812Y209724D01*
X620082D01*
Y188724D01*
X621494D01*
Y178486D01*
X618082D01*
Y158486D01*
X634082D01*
Y178486D01*
X630670D01*
Y187826D01*
X631448Y188605D01*
X631940Y188724D01*
X633082D01*
X633352Y188724D01*
X644812D01*
X645082Y188724D01*
X646082D01*
X646352Y188724D01*
X658082D01*
Y209724D01*
X646352D01*
X646082Y209724D01*
X645082D01*
X644650Y210994D01*
X645395Y212109D01*
X647393Y213445D01*
X649550Y213874D01*
X649750Y213834D01*
X702328D01*
X702515Y213871D01*
X704586Y213459D01*
X706500Y212180D01*
X707293Y210994D01*
X706742Y209724D01*
X705742D01*
X705472Y209724D01*
X693742D01*
Y188724D01*
X695154D01*
Y178384D01*
X691742D01*
Y158384D01*
X706884D01*
X707742Y158384D01*
X708154Y157285D01*
Y90406D01*
X708149D01*
X708519Y85714D01*
X709617Y81138D01*
X711419Y76790D01*
X713878Y72777D01*
X716934Y69198D01*
X720513Y66142D01*
X724526Y63683D01*
X728874Y61882D01*
X733450Y60783D01*
X738142Y60414D01*
Y60418D01*
X763864D01*
Y54756D01*
X780594D01*
X781364Y54756D01*
X782634Y54756D01*
X799364D01*
Y60837D01*
X799671Y60867D01*
X804370Y62292D01*
X808701Y64607D01*
X812498Y67723D01*
X815613Y71519D01*
X817928Y75850D01*
X819353Y80549D01*
X819835Y85436D01*
X819802D01*
Y93502D01*
X836629D01*
Y111318D01*
X836732Y111331D01*
X839372Y112425D01*
X841638Y114164D01*
X843377Y116430D01*
X844471Y119070D01*
X844844Y121902D01*
X844838D01*
Y133332D01*
X844855D01*
X844438Y136496D01*
X843217Y139444D01*
X841274Y141976D01*
X838742Y143919D01*
X835794Y145140D01*
X832630Y145557D01*
Y145557D01*
X831411Y145679D01*
X830806Y145759D01*
X829105Y146463D01*
X827645Y147584D01*
X826525Y149043D01*
X825821Y150744D01*
X825589Y152503D01*
X825602Y152568D01*
Y199976D01*
X827264D01*
Y221236D01*
X825320D01*
X825259Y221701D01*
X824261Y224110D01*
X822674Y226178D01*
X820606Y227766D01*
X818197Y228763D01*
X815652Y229098D01*
X815612Y229106D01*
X801778D01*
Y229110D01*
X798994Y228744D01*
X796635Y227766D01*
X795992Y228604D01*
X792990Y230908D01*
X789494Y232356D01*
X785742Y232850D01*
Y232814D01*
X771506D01*
Y236226D01*
D02*
G37*
G36*
X665980Y149682D02*
X649980D01*
Y129682D01*
X665980D01*
Y135094D01*
X675394D01*
X676440Y134552D01*
Y122822D01*
X676440Y122552D01*
X676440Y121410D01*
X676131Y120140D01*
X665980D01*
Y125552D01*
X649980D01*
Y105552D01*
X665980D01*
Y110964D01*
X675542D01*
X676320Y110186D01*
X676440Y109694D01*
Y108552D01*
X676440Y108282D01*
Y96552D01*
X675909Y95502D01*
X665980D01*
Y101164D01*
X649980D01*
Y80664D01*
X665980D01*
Y86326D01*
X678494D01*
Y86302D01*
X681874Y86747D01*
X685023Y88052D01*
X687727Y90127D01*
X689802Y92831D01*
X691107Y95980D01*
X691182Y96552D01*
X697440D01*
Y108282D01*
X697440Y108552D01*
Y109552D01*
X697440Y109822D01*
Y121282D01*
X697440Y121552D01*
Y122552D01*
X697440Y122822D01*
Y134552D01*
X691154D01*
X691115Y134851D01*
X689843Y137923D01*
X687818Y140561D01*
X685180Y142585D01*
X682109Y143857D01*
X678812Y144291D01*
Y144270D01*
X665980D01*
Y149682D01*
D02*
G37*
G36*
X1085636Y125092D02*
X1079366D01*
Y116822D01*
X1085636D01*
Y125092D01*
D02*
G37*
G36*
X1076826D02*
X1070556D01*
Y116822D01*
X1076826D01*
Y125092D01*
D02*
G37*
G36*
X646520D02*
X640250D01*
Y116822D01*
X646520D01*
Y125092D01*
D02*
G37*
G36*
X637710D02*
X631440D01*
Y116822D01*
X637710D01*
Y125092D01*
D02*
G37*
G36*
X1085636Y114282D02*
X1079366D01*
Y106012D01*
X1085636D01*
Y114282D01*
D02*
G37*
G36*
X1076826D02*
X1070556D01*
Y106012D01*
X1076826D01*
Y114282D01*
D02*
G37*
G36*
X646520D02*
X640250D01*
Y106012D01*
X646520D01*
Y114282D01*
D02*
G37*
G36*
X637710D02*
X631440D01*
Y106012D01*
X637710D01*
Y114282D01*
D02*
G37*
G36*
X1085636Y100704D02*
X1079366D01*
Y92184D01*
X1085636D01*
Y100704D01*
D02*
G37*
G36*
X1076826D02*
X1070556D01*
Y92184D01*
X1076826D01*
Y100704D01*
D02*
G37*
G36*
X646520D02*
X640250D01*
Y92184D01*
X646520D01*
Y100704D01*
D02*
G37*
G36*
X637710D02*
X631440D01*
Y92184D01*
X637710D01*
Y100704D01*
D02*
G37*
G36*
X1085636Y89644D02*
X1079366D01*
Y81124D01*
X1085636D01*
Y89644D01*
D02*
G37*
G36*
X1076826D02*
X1070556D01*
Y81124D01*
X1076826D01*
Y89644D01*
D02*
G37*
G36*
X646520D02*
X640250D01*
Y81124D01*
X646520D01*
Y89644D01*
D02*
G37*
G36*
X637710D02*
X631440D01*
Y81124D01*
X637710D01*
Y89644D01*
D02*
G37*
G36*
X876840Y75046D02*
X860570D01*
Y66276D01*
X876840D01*
Y75046D01*
D02*
G37*
G36*
X858030D02*
X841760D01*
Y66276D01*
X858030D01*
Y75046D01*
D02*
G37*
G36*
X876840Y63736D02*
X860570D01*
Y54966D01*
X876840D01*
Y63736D01*
D02*
G37*
G36*
X858030D02*
X841760D01*
Y54966D01*
X858030D01*
Y63736D01*
D02*
G37*
%LPD*%
G36*
X866855Y604297D02*
X868307Y600793D01*
X870616Y597784D01*
X873625Y595475D01*
X877129Y594023D01*
X880890Y593528D01*
Y593564D01*
X911370D01*
X911577Y593605D01*
X915442Y593224D01*
X919358Y592037D01*
X922967Y590108D01*
X926130Y587512D01*
X928726Y584349D01*
X930655Y580740D01*
X931842Y576824D01*
X932223Y572960D01*
X932182Y572752D01*
Y441794D01*
X932165D01*
X932583Y437555D01*
X933819Y433479D01*
X935551Y430240D01*
X935238Y429312D01*
X935073Y429021D01*
X934896Y428856D01*
X931845Y427930D01*
X928839Y426324D01*
X926205Y424162D01*
X924042Y421527D01*
X922436Y418521D01*
X921446Y415260D01*
X921367Y414456D01*
X917696D01*
Y394456D01*
X921108D01*
Y387886D01*
X921149Y387679D01*
X920769Y383814D01*
X919581Y379898D01*
X917652Y376290D01*
X915056Y373126D01*
X911893Y370531D01*
X908284Y368602D01*
X904368Y367414D01*
X900503Y367033D01*
X900296Y367075D01*
X898104D01*
Y368486D01*
X877104D01*
Y363825D01*
X874402Y361608D01*
X872081Y358779D01*
X870355Y355551D01*
X869293Y352048D01*
X868934Y348406D01*
X868936D01*
Y334500D01*
X868960Y334377D01*
X869251Y331427D01*
X870147Y328472D01*
X871603Y325749D01*
X873562Y323362D01*
X875949Y321403D01*
X878672Y319947D01*
X881627Y319051D01*
X883480Y318869D01*
X884632Y318746D01*
X884681Y318736D01*
X884696Y318739D01*
X884716Y318736D01*
X884717Y318736D01*
X884717Y318736D01*
X885965Y318736D01*
X900304D01*
X900512Y318778D01*
X904376Y318397D01*
X908292Y317209D01*
X911901Y315280D01*
X915064Y312684D01*
X917660Y309521D01*
X919589Y305912D01*
X920777Y301997D01*
X921157Y298132D01*
X921116Y297924D01*
Y276374D01*
X920218Y275476D01*
X919454D01*
X918087Y275476D01*
X917652Y278778D01*
X916274Y282104D01*
X914083Y284960D01*
X911226Y287152D01*
X908000Y288489D01*
Y293132D01*
X907540D01*
Y298712D01*
X887260D01*
Y293132D01*
X886800D01*
Y288681D01*
X885725Y288540D01*
X882487Y287198D01*
X879707Y285065D01*
X877574Y282285D01*
X876233Y279047D01*
X875775Y275572D01*
X875792D01*
Y272546D01*
X871170D01*
X870740Y272546D01*
X869900Y273468D01*
Y273496D01*
X851777D01*
X850750Y274082D01*
Y310082D01*
X829750D01*
Y274082D01*
X835152D01*
Y272546D01*
X830100D01*
Y269944D01*
X827264D01*
Y275476D01*
X815834D01*
X814764Y275476D01*
X813800Y275476D01*
X812902Y276374D01*
Y297924D01*
X812861Y298132D01*
X813242Y301996D01*
X814429Y305912D01*
X816358Y309521D01*
X818954Y312684D01*
X822117Y315280D01*
X825726Y317209D01*
X829642Y318396D01*
X833507Y318777D01*
X833714Y318736D01*
X844314D01*
X844326Y318738D01*
X847835Y319084D01*
X851221Y320111D01*
X854341Y321779D01*
X857076Y324024D01*
X859321Y326759D01*
X860989Y329879D01*
X862016Y333265D01*
X862362Y336774D01*
X862364Y336786D01*
Y351264D01*
X862340Y351385D01*
X862048Y354346D01*
X861150Y357310D01*
X859689Y360041D01*
X857725Y362435D01*
X855331Y364400D01*
X853104Y365590D01*
Y368486D01*
X832104D01*
Y367075D01*
X825416D01*
X825209Y367033D01*
X821344Y367414D01*
X817428Y368602D01*
X813819Y370531D01*
X810656Y373126D01*
X808060Y376290D01*
X806131Y379898D01*
X804943Y383814D01*
X804563Y387679D01*
X804604Y387886D01*
Y394456D01*
X808016D01*
Y414456D01*
X802480D01*
X800450Y418253D01*
X797362Y422016D01*
X793599Y425104D01*
X789305Y427399D01*
X789068Y427901D01*
X789808Y429689D01*
X790251Y433052D01*
X790228D01*
Y521952D01*
X790218Y522002D01*
X790441Y523120D01*
X791102Y524110D01*
X792092Y524771D01*
X793260Y524967D01*
Y524968D01*
X796424Y525384D01*
X799372Y526605D01*
X801904Y528548D01*
X803847Y531080D01*
X805068Y534028D01*
X805484Y537192D01*
X805468D01*
Y571990D01*
X805427Y572197D01*
X805808Y576062D01*
X806995Y579978D01*
X808924Y583587D01*
X811520Y586750D01*
X814683Y589346D01*
X818292Y591275D01*
X822208Y592463D01*
X826073Y592843D01*
X826280Y592802D01*
X846092D01*
X846166Y592817D01*
X849364Y593132D01*
X852511Y594086D01*
X855411Y595636D01*
X857952Y597722D01*
X860038Y600264D01*
X861588Y603163D01*
X862543Y606310D01*
X862670Y607600D01*
X864534Y607600D01*
X866420Y607600D01*
X866855Y604297D01*
D02*
G37*
G36*
X1020983Y547558D02*
X1022393Y546616D01*
X1023336Y545205D01*
X1023429Y544735D01*
X1023615Y543542D01*
X1023615D01*
X1023996Y539673D01*
X1025124Y535952D01*
X1026957Y532523D01*
X1029423Y529518D01*
X1032429Y527052D01*
X1035858Y525219D01*
X1039578Y524090D01*
X1041706Y523881D01*
Y519305D01*
X1041706D01*
Y518304D01*
X1041706D01*
Y513893D01*
X1036788D01*
Y517304D01*
X1016788D01*
Y513893D01*
X1013308D01*
Y515354D01*
X1007296D01*
Y524152D01*
X1020708D01*
Y545152D01*
X987232D01*
X986801Y546422D01*
X987255Y546771D01*
X989245Y547595D01*
X991284Y547863D01*
X991380Y547844D01*
X1019320D01*
X1019432Y547866D01*
X1020983Y547558D01*
D02*
G37*
G36*
X752187Y497400D02*
X741030D01*
Y500812D01*
X721030D01*
Y497400D01*
X709510D01*
Y501812D01*
X709510D01*
Y502812D01*
X709510D01*
Y507224D01*
X721030D01*
Y503812D01*
X741030D01*
Y507224D01*
X752187D01*
Y497400D01*
D02*
G37*
G36*
X984708Y540047D02*
Y524152D01*
X998120D01*
Y515354D01*
X992108D01*
Y494892D01*
X988574D01*
Y498304D01*
X983162D01*
Y539626D01*
X983143Y539722D01*
X983254Y540567D01*
X983438Y540699D01*
X984708Y540047D01*
D02*
G37*
G36*
X699922Y443517D02*
Y380550D01*
X699890D01*
X700368Y375693D01*
X701785Y371023D01*
X704086Y366719D01*
X707182Y362946D01*
X710955Y359850D01*
X714786Y357802D01*
Y354074D01*
X711726D01*
Y354102D01*
X708231Y353642D01*
X704973Y352292D01*
X702176Y350146D01*
X700030Y347349D01*
X698681Y344092D01*
X698220Y340596D01*
X698220D01*
X698072Y339388D01*
X697904Y338545D01*
X696742Y336806D01*
X695003Y335644D01*
X693113Y335268D01*
X692952Y335300D01*
X670082D01*
Y339712D01*
X666282D01*
Y357936D01*
X667232D01*
Y379136D01*
X663680D01*
Y421714D01*
X663659Y421822D01*
X663902Y423667D01*
X664655Y425487D01*
X665855Y427050D01*
X667417Y428249D01*
X669237Y429003D01*
X669962Y429098D01*
X671190Y429200D01*
Y429200D01*
X676154Y429688D01*
X680927Y431136D01*
X685325Y433487D01*
X689181Y436652D01*
X692345Y440507D01*
X694475Y444492D01*
X699210D01*
X699922Y443517D01*
D02*
G37*
G36*
X711726Y344898D02*
X832104D01*
Y343486D01*
X832104D01*
Y342486D01*
X832104D01*
Y330486D01*
X848531D01*
X848962Y329216D01*
X848770Y329069D01*
X846620Y328178D01*
X844427Y327890D01*
X844314Y327912D01*
X833714D01*
Y327917D01*
X829022Y327547D01*
X824446Y326449D01*
X820098Y324648D01*
X816085Y322188D01*
X812506Y319132D01*
X809450Y315553D01*
X806991Y311540D01*
X805190Y307192D01*
X804584Y304670D01*
X803314Y304820D01*
Y314932D01*
X800424D01*
X800261Y316166D01*
X798880Y319499D01*
X796684Y322362D01*
X793821Y324558D01*
X790488Y325939D01*
X786910Y326410D01*
Y326390D01*
X736704D01*
Y329712D01*
X715704D01*
Y316810D01*
X709892D01*
Y319412D01*
X691341D01*
Y320362D01*
X670142D01*
X670082Y320712D01*
Y321712D01*
X670082D01*
Y326124D01*
X692952D01*
Y326088D01*
X696707Y326583D01*
X700206Y328032D01*
X703211Y330337D01*
X705516Y333342D01*
X706966Y336841D01*
X707460Y340596D01*
X707460D01*
X707619Y341800D01*
X707710Y342259D01*
X708652Y343670D01*
X710063Y344612D01*
X711614Y344920D01*
X711726Y344898D01*
D02*
G37*
G36*
X951434Y344035D02*
X951437Y344033D01*
X951805Y343342D01*
X952148Y340736D01*
X953368Y337790D01*
X955310Y335260D01*
X957840Y333318D01*
X960786Y332098D01*
X963948Y331682D01*
Y331688D01*
X1054706D01*
Y327786D01*
X1061108D01*
Y325514D01*
X1041740D01*
Y324492D01*
X1023140D01*
Y321890D01*
X1017000D01*
Y327292D01*
X981000D01*
Y321890D01*
X950050D01*
X949876Y321856D01*
X946787Y321551D01*
X943649Y320599D01*
X940757Y319054D01*
X938223Y316974D01*
X936143Y314439D01*
X934597Y311547D01*
X933680Y308524D01*
X929754D01*
Y308277D01*
X928484Y308024D01*
X927028Y311541D01*
X924569Y315554D01*
X921512Y319132D01*
X917933Y322189D01*
X913921Y324648D01*
X909572Y326449D01*
X904996Y327548D01*
X900304Y327917D01*
Y327913D01*
X885913D01*
X884717Y327913D01*
X884715Y327918D01*
X884666Y328083D01*
X884666Y328083D01*
X883400Y328068D01*
X883381Y328068D01*
X882990Y328120D01*
X881397Y328780D01*
X880828Y329216D01*
X881259Y330486D01*
X898104D01*
Y342486D01*
X898104D01*
Y343118D01*
X898992Y344388D01*
X950648D01*
X951434Y344035D01*
D02*
G37*
%LPC*%
G36*
X856587Y585840D02*
X840317D01*
Y577070D01*
X856587D01*
Y585840D01*
D02*
G37*
G36*
X837777D02*
X821507D01*
Y577070D01*
X837777D01*
Y585840D01*
D02*
G37*
G36*
X856587Y574530D02*
X840317D01*
Y565760D01*
X856587D01*
Y574530D01*
D02*
G37*
G36*
X837777D02*
X821507D01*
Y565760D01*
X837777D01*
Y574530D01*
D02*
G37*
G36*
X929030Y573240D02*
X921810D01*
Y564370D01*
X929030D01*
Y573240D01*
D02*
G37*
G36*
X928080Y542780D02*
X922110D01*
Y534360D01*
X928080D01*
Y542780D01*
D02*
G37*
G36*
X919570D02*
X913600D01*
Y534360D01*
X919570D01*
Y542780D01*
D02*
G37*
G36*
X815160Y506242D02*
X809190D01*
Y497822D01*
X815160D01*
Y506242D01*
D02*
G37*
G36*
X806650D02*
X800680D01*
Y497822D01*
X806650D01*
Y506242D01*
D02*
G37*
G36*
X895080Y586300D02*
X859080D01*
Y565300D01*
X895080D01*
X895790Y564324D01*
Y559190D01*
X875287D01*
Y546690D01*
X875287D01*
Y546490D01*
X875287D01*
Y535060D01*
X875287Y533990D01*
X875287Y532720D01*
Y522360D01*
X875287Y521290D01*
X875287Y520020D01*
Y508590D01*
X895790D01*
X896537Y508590D01*
X897060Y507537D01*
Y492689D01*
X897051Y492661D01*
X896005Y491649D01*
X895932Y491634D01*
X895790Y491629D01*
X894758Y491765D01*
X894188Y492799D01*
Y503638D01*
X873688D01*
Y503638D01*
X873362D01*
Y503638D01*
X867700D01*
Y516362D01*
X867700Y516366D01*
X867349Y520815D01*
X866307Y525159D01*
X864597Y529285D01*
X862263Y533094D01*
X859362Y536490D01*
X855966Y539391D01*
X852157Y541725D01*
X848030Y543435D01*
X843687Y544477D01*
X842297Y544587D01*
X842297Y546490D01*
X842297Y547760D01*
Y559190D01*
X821047D01*
Y547760D01*
X821047Y546690D01*
X821047Y545420D01*
Y534410D01*
X821047Y533990D01*
X821507Y532911D01*
X821507Y532720D01*
Y528810D01*
X841837D01*
X841837Y532911D01*
X842297Y533990D01*
X842297Y534400D01*
X843567Y535165D01*
X846637Y534234D01*
X849981Y532446D01*
X852912Y530041D01*
X855318Y527109D01*
X857106Y523765D01*
X858206Y520136D01*
X858560Y516545D01*
X858524Y516362D01*
Y503638D01*
X852862D01*
Y503638D01*
X852282D01*
Y503638D01*
X832282D01*
X832020Y504800D01*
Y506702D01*
X830834D01*
X830122Y507910D01*
X830513Y508590D01*
X842297D01*
Y520671D01*
X842297Y521090D01*
X841837Y522170D01*
X841837Y522360D01*
Y526270D01*
X821507D01*
X821507Y522170D01*
X821047Y521090D01*
X821047Y520671D01*
Y513932D01*
X820883Y513717D01*
X819638Y510713D01*
X819213Y507488D01*
X818269Y506702D01*
X816620D01*
Y488102D01*
X815160D01*
Y495282D01*
X800680D01*
Y487642D01*
X799730D01*
Y478772D01*
X808220D01*
Y477502D01*
X809490D01*
Y467362D01*
X815070D01*
Y466902D01*
X819222D01*
Y465198D01*
X818420Y464260D01*
X797420D01*
Y428260D01*
X818420D01*
Y441605D01*
X818627Y441633D01*
X822147Y443091D01*
X825170Y445410D01*
X827489Y448433D01*
X828948Y451953D01*
X829445Y455730D01*
X829418D01*
Y466902D01*
X832970D01*
Y468638D01*
X837694D01*
Y457286D01*
X837676D01*
X838099Y454067D01*
X839342Y451068D01*
X841318Y448492D01*
X843894Y446516D01*
X844112Y446425D01*
Y438956D01*
X855842D01*
X856112Y438956D01*
X857112D01*
X857382Y438956D01*
X868842D01*
X869112Y438956D01*
X870112D01*
X870382Y438956D01*
X882112D01*
Y446426D01*
X882328Y446515D01*
X884903Y448491D01*
X886879Y451066D01*
X888121Y454064D01*
X888544Y457282D01*
X888526D01*
Y468638D01*
X894188D01*
Y468638D01*
X895140Y468522D01*
Y468522D01*
X895410Y468522D01*
X911140D01*
Y488712D01*
X914140D01*
Y468522D01*
X930140D01*
Y489022D01*
X926728D01*
Y499498D01*
X926741D01*
X926339Y502556D01*
X925158Y505406D01*
X923281Y507853D01*
X920834Y509730D01*
X918060Y510879D01*
Y524712D01*
X911495D01*
X910687Y526662D01*
X908948Y528928D01*
X906682Y530668D01*
X904042Y531761D01*
X901210Y532134D01*
Y532128D01*
X897555D01*
X897236Y532578D01*
X897694Y533730D01*
X897855Y533900D01*
X912140D01*
Y552500D01*
X913600D01*
Y545320D01*
X928080D01*
Y552960D01*
X929030D01*
Y561830D01*
X920540D01*
Y563100D01*
X919270D01*
Y573240D01*
X913690D01*
Y573700D01*
X908133D01*
X907821Y574454D01*
X905769Y577129D01*
X903094Y579181D01*
X899980Y580471D01*
X896638Y580911D01*
Y580898D01*
X895080D01*
Y586300D01*
D02*
G37*
G36*
X806950Y476232D02*
X799730D01*
Y467362D01*
X806950D01*
Y476232D01*
D02*
G37*
G36*
X828523Y423449D02*
X824866Y422968D01*
X821459Y421556D01*
X818533Y419311D01*
X816288Y416385D01*
X815489Y414456D01*
X811016D01*
Y394456D01*
X827016D01*
Y413997D01*
X828380Y414268D01*
X828523Y414240D01*
X844112D01*
Y393956D01*
X856112D01*
X856112Y393956D01*
X857112D01*
Y393956D01*
X857382Y393956D01*
X859413D01*
X860273Y391881D01*
X862624Y388817D01*
X865688Y386466D01*
X869256Y384988D01*
X873085Y384483D01*
Y384522D01*
X873085Y384522D01*
X898297D01*
Y384499D01*
X901664Y384942D01*
X904802Y386242D01*
X907496Y388310D01*
X909564Y391004D01*
X910864Y394142D01*
X910905Y394456D01*
X914696D01*
Y414456D01*
X898696D01*
Y394884D01*
X898499Y394301D01*
X897740Y393698D01*
X883275D01*
X882112Y393956D01*
Y414956D01*
X870112D01*
X870112Y414956D01*
X869112D01*
Y414956D01*
X868842Y414956D01*
X867011D01*
X865900Y417638D01*
X864061Y420036D01*
X861663Y421876D01*
X858870Y423033D01*
X855874Y423427D01*
X855874Y423416D01*
X828523D01*
Y423449D01*
D02*
G37*
G36*
X907540Y308472D02*
X898670D01*
Y301252D01*
X907540D01*
Y308472D01*
D02*
G37*
G36*
X896130D02*
X887260D01*
Y301252D01*
X896130D01*
Y308472D01*
D02*
G37*
%LPD*%
G36*
X947163Y202457D02*
X949131Y199892D01*
X950369Y196904D01*
X950764Y193901D01*
X950724Y193698D01*
Y187396D01*
X949810Y186536D01*
X930292D01*
Y199976D01*
X931954D01*
Y199976D01*
X932154D01*
Y199976D01*
X944654D01*
Y202946D01*
X945793Y203508D01*
X947163Y202457D01*
D02*
G37*
G36*
X928810Y150536D02*
X928810Y150536D01*
X928810D01*
X928550Y149313D01*
X926314Y147598D01*
X923964Y144535D01*
X922487Y140969D01*
X922186Y138679D01*
X921719Y137602D01*
X920904Y137602D01*
X904892D01*
Y160536D01*
X923254D01*
Y163948D01*
X928810D01*
Y150536D01*
D02*
G37*
G36*
X769130Y192244D02*
X785364D01*
Y179536D01*
X803726D01*
Y176536D01*
X785364D01*
Y173124D01*
X782932D01*
Y186536D01*
X763271D01*
X762423Y187806D01*
X762744Y188581D01*
X763916Y190108D01*
X765443Y191280D01*
X767221Y192017D01*
X769057Y192259D01*
X769130Y192244D01*
D02*
G37*
G36*
X785364Y160536D02*
X805081D01*
X806253Y159575D01*
X808124Y157295D01*
X809514Y154693D01*
X810371Y151871D01*
X810648Y149049D01*
X810626Y148936D01*
Y137602D01*
X793799D01*
Y127657D01*
X792529Y127405D01*
X791846Y129054D01*
X791459Y131993D01*
X791498Y132189D01*
Y134602D01*
X791476Y134712D01*
X791180Y137725D01*
X790269Y140728D01*
X788789Y143495D01*
X786799Y145921D01*
X784373Y147912D01*
X781839Y149266D01*
X781917Y150176D01*
X782060Y150536D01*
X782932D01*
Y163948D01*
X785364D01*
Y160536D01*
D02*
G37*
%LPC*%
G36*
X488696Y408348D02*
Y403606D01*
X493438D01*
X492547Y405757D01*
X490847Y407457D01*
X488696Y408348D01*
D02*
G37*
G36*
X486156D02*
X484005Y407457D01*
X482305Y405757D01*
X481414Y403606D01*
X486156D01*
Y408348D01*
D02*
G37*
G36*
X493438Y401066D02*
X488696D01*
Y396324D01*
X490847Y397215D01*
X492547Y398915D01*
X493438Y401066D01*
D02*
G37*
G36*
X486156D02*
X481414D01*
X482305Y398915D01*
X484005Y397215D01*
X486156Y396324D01*
Y401066D01*
D02*
G37*
G36*
X112189Y316412D02*
X102419D01*
Y310642D01*
X112189D01*
Y316412D01*
D02*
G37*
G36*
X99879D02*
X90109D01*
Y310642D01*
X99879D01*
Y316412D01*
D02*
G37*
G36*
X112189Y308102D02*
X102419D01*
Y302332D01*
X112189D01*
Y308102D01*
D02*
G37*
G36*
X99879D02*
X90109D01*
Y302332D01*
X99879D01*
Y308102D01*
D02*
G37*
G36*
X326789Y414260D02*
X304539D01*
Y400760D01*
Y386464D01*
X303362Y386309D01*
X300515Y385129D01*
X298069Y383253D01*
X296193Y380807D01*
X295013Y377960D01*
X294611Y374904D01*
X294624D01*
Y304800D01*
X294644Y304700D01*
X294352Y303236D01*
X293466Y301910D01*
X292814Y301474D01*
X291544Y302153D01*
Y306664D01*
X278132D01*
Y310790D01*
X282794D01*
Y316178D01*
X284490Y316880D01*
X286703Y318579D01*
X288402Y320792D01*
X289469Y323370D01*
X289833Y326136D01*
X289830D01*
Y382966D01*
X289812Y383057D01*
X289506Y386170D01*
X288571Y389251D01*
X287053Y392090D01*
X285011Y394579D01*
X282522Y396621D01*
X279683Y398139D01*
X276602Y399073D01*
X273489Y399380D01*
X273398Y399398D01*
X272549D01*
Y414260D01*
X250299D01*
Y399398D01*
X139860D01*
X139840Y399394D01*
X138927Y399576D01*
X138136Y400104D01*
X137746Y400688D01*
X137433Y401828D01*
X137433D01*
X137072Y404571D01*
X136013Y407127D01*
X134328Y409322D01*
X132133Y411007D01*
X129577Y412066D01*
X126834Y412427D01*
Y412424D01*
X94750D01*
X94670Y412408D01*
X94589Y412421D01*
X85445Y412101D01*
X85438Y412108D01*
X85278Y412095D01*
X85258Y412091D01*
X84215Y411988D01*
X81450Y411716D01*
X77616Y410552D01*
X74082Y408664D01*
X70984Y406122D01*
X68442Y403024D01*
X66554Y399490D01*
X65390Y395656D01*
X64998Y391668D01*
X65008D01*
Y377440D01*
X65018Y377390D01*
X65349Y374874D01*
X66340Y372483D01*
X67915Y370429D01*
X69969Y368853D01*
X72360Y367863D01*
X74876Y367532D01*
X74926Y367522D01*
X114726D01*
Y354110D01*
X120888D01*
Y345948D01*
X120899Y345895D01*
X120681Y344238D01*
X120021Y342645D01*
X118971Y341277D01*
X117603Y340227D01*
X116010Y339567D01*
X114418Y339358D01*
X113149Y339386D01*
Y342772D01*
X89149D01*
Y326772D01*
X113149D01*
Y330184D01*
X114300D01*
X114423Y330208D01*
X117373Y330499D01*
X120328Y331395D01*
X123051Y332851D01*
X125438Y334810D01*
X127397Y337197D01*
X128853Y339920D01*
X129749Y342875D01*
X130040Y345825D01*
X130064Y345948D01*
Y354110D01*
X136226D01*
Y367522D01*
X137784D01*
Y354110D01*
X143945D01*
Y309372D01*
X143987Y309165D01*
X143606Y305300D01*
X142418Y301384D01*
X140489Y297775D01*
X137893Y294612D01*
X134730Y292016D01*
X131122Y290087D01*
X127206Y288900D01*
X123341Y288519D01*
X123134Y288560D01*
X113149D01*
Y291972D01*
X89149D01*
Y275972D01*
X113149D01*
Y279384D01*
X123134D01*
Y279380D01*
X127825Y279749D01*
X132402Y280847D01*
X136750Y282649D01*
X140763Y285108D01*
X144341Y288164D01*
X147398Y291743D01*
X149857Y295756D01*
X151658Y300104D01*
X152757Y304680D01*
X153126Y309372D01*
X153122D01*
Y354110D01*
X159284D01*
Y367522D01*
X160841D01*
Y354110D01*
X167003D01*
Y293941D01*
X166966D01*
X167463Y290164D01*
X168922Y286644D01*
X171241Y283622D01*
X174263Y281302D01*
X177783Y279844D01*
X181560Y279347D01*
Y279347D01*
X182649Y278909D01*
Y275972D01*
X206649D01*
X207502Y275055D01*
Y245298D01*
X202240D01*
Y230698D01*
Y217998D01*
X207502D01*
Y188495D01*
X206649Y187578D01*
X182649D01*
Y184762D01*
X181610Y184203D01*
Y184203D01*
X177820Y183704D01*
X174288Y182241D01*
X171255Y179914D01*
X168928Y176881D01*
X167465Y173349D01*
X166966Y169559D01*
X167003D01*
Y109534D01*
X160841D01*
Y96028D01*
X159284D01*
Y109534D01*
X153122D01*
Y154178D01*
X153126D01*
X152757Y158870D01*
X151658Y163446D01*
X149857Y167794D01*
X147398Y171807D01*
X144341Y175386D01*
X140763Y178442D01*
X136750Y180902D01*
X132402Y182703D01*
X127825Y183801D01*
X123134Y184170D01*
Y184166D01*
X113149D01*
Y187578D01*
X89149D01*
Y171578D01*
X113149D01*
Y174990D01*
X123134D01*
X123341Y175031D01*
X127206Y174650D01*
X131122Y173463D01*
X134730Y171534D01*
X137893Y168938D01*
X140489Y165775D01*
X142418Y162166D01*
X143606Y158250D01*
X143987Y154385D01*
X143945Y154178D01*
Y109534D01*
X137784D01*
Y96028D01*
X136226D01*
Y109534D01*
X130064D01*
Y117509D01*
X130041Y117627D01*
X129748Y120600D01*
X128846Y123573D01*
X127382Y126312D01*
X125411Y128713D01*
X123010Y130684D01*
X120271Y132148D01*
X117298Y133050D01*
X114325Y133343D01*
X114207Y133366D01*
X113149D01*
Y136778D01*
X89149D01*
Y120778D01*
X113149D01*
Y123825D01*
X114419Y124180D01*
X115941Y123980D01*
X117557Y123311D01*
X118944Y122246D01*
X120009Y120859D01*
X120678Y119243D01*
X120899Y117565D01*
X120888Y117509D01*
Y109534D01*
X114726D01*
Y96028D01*
X76887D01*
Y96033D01*
X74065Y95662D01*
X71434Y94572D01*
X69176Y92839D01*
X67442Y90580D01*
X66353Y87950D01*
X65981Y85127D01*
X65986D01*
Y75757D01*
X65997Y75703D01*
X66319Y71613D01*
X67290Y67571D01*
X68880Y63730D01*
X71052Y60186D01*
X73752Y57025D01*
X76913Y54325D01*
X80457Y52154D01*
X84297Y50563D01*
X88339Y49592D01*
X92429Y49271D01*
X92483Y49260D01*
X125476D01*
Y49248D01*
X128507Y49647D01*
X131332Y50817D01*
X133758Y52678D01*
X135619Y55104D01*
X136789Y57929D01*
X137188Y60960D01*
X137188D01*
X137355Y62161D01*
X137507Y62921D01*
X138617Y64583D01*
X140279Y65693D01*
X142090Y66054D01*
X142240Y66024D01*
X191262D01*
Y66024D01*
X192033Y65870D01*
X192687Y65433D01*
X193124Y64779D01*
X193278Y64008D01*
X193278D01*
Y60198D01*
X193309Y60039D01*
X193582Y57274D01*
X194435Y54463D01*
X195819Y51872D01*
X197683Y49601D01*
X199954Y47737D01*
X202545Y46353D01*
X205356Y45500D01*
X208121Y45227D01*
X208280Y45196D01*
X264668D01*
X264815Y45225D01*
X267642Y45504D01*
X270501Y46371D01*
X273136Y47779D01*
X275445Y49675D01*
X277341Y51984D01*
X278749Y54619D01*
X279617Y57478D01*
X279895Y60305D01*
X279924Y60452D01*
Y85852D01*
X279947D01*
X279504Y89215D01*
X278206Y92349D01*
X276141Y95040D01*
X273451Y97104D01*
X272549Y97478D01*
Y113684D01*
X266012D01*
Y119692D01*
X266018D01*
X266148Y120342D01*
X266516Y120892D01*
X267066Y121260D01*
X267716Y121390D01*
Y121395D01*
X270412Y121750D01*
X272925Y122790D01*
X275082Y124446D01*
X276737Y126603D01*
X277778Y129116D01*
X278133Y131812D01*
X278132D01*
Y138070D01*
X282794D01*
Y156570D01*
X278132D01*
Y162220D01*
X291544D01*
X292592Y161684D01*
Y91186D01*
X292558D01*
X293044Y87492D01*
X294470Y84049D01*
X296739Y81093D01*
X299695Y78824D01*
X303138Y77398D01*
X304539Y77214D01*
Y62084D01*
X326789D01*
Y74784D01*
Y88117D01*
X329438D01*
X329713Y88171D01*
X331804Y87755D01*
X333811Y86415D01*
X335151Y84408D01*
X335567Y82317D01*
X335513Y82042D01*
Y76708D01*
X335525Y76646D01*
X335963Y72196D01*
X337279Y67857D01*
X339417Y63858D01*
X342293Y60353D01*
X345798Y57477D01*
X349797Y55339D01*
X354136Y54023D01*
X358587Y53585D01*
X358648Y53573D01*
X480314D01*
X480510Y53611D01*
X485082Y53971D01*
X489732Y55088D01*
X494151Y56918D01*
X498228Y59417D01*
X501865Y62523D01*
X504971Y66160D01*
X507470Y70237D01*
X509300Y74656D01*
X510417Y79306D01*
X510776Y83878D01*
X510816Y84074D01*
Y111252D01*
X510782Y111422D01*
X510407Y116179D01*
X509254Y120985D01*
X507362Y125551D01*
X504780Y129766D01*
X501570Y133524D01*
X497812Y136734D01*
X493597Y139316D01*
X489031Y141208D01*
X484225Y142361D01*
X479468Y142736D01*
X479298Y142769D01*
X473160D01*
Y147652D01*
X460778D01*
Y219964D01*
Y323088D01*
X460782D01*
X460293Y331804D01*
X458831Y340410D01*
X456414Y348798D01*
X453073Y356863D01*
X448851Y364504D01*
X443799Y371623D01*
X437982Y378132D01*
X431473Y383949D01*
X424354Y389001D01*
X416713Y393223D01*
X408648Y396564D01*
X400260Y398981D01*
X391654Y400443D01*
X382938Y400932D01*
Y400928D01*
X326789D01*
Y414260D01*
D02*
G37*
G36*
X144780Y244338D02*
X137160D01*
Y239268D01*
X144780D01*
Y244338D01*
D02*
G37*
G36*
X134620D02*
X127000D01*
Y239268D01*
X134620D01*
Y244338D01*
D02*
G37*
G36*
X98820Y241862D02*
X82550D01*
Y233092D01*
X98820D01*
Y241862D01*
D02*
G37*
G36*
X80010D02*
X63740D01*
Y233092D01*
X80010D01*
Y241862D01*
D02*
G37*
G36*
X144780Y236728D02*
X127000D01*
Y232908D01*
X127000Y231658D01*
X127000Y230388D01*
Y226568D01*
X144780D01*
Y230388D01*
X144780Y231638D01*
X144780Y232908D01*
Y236728D01*
D02*
G37*
G36*
X98820Y230552D02*
X82550D01*
Y221782D01*
X98820D01*
Y230552D01*
D02*
G37*
G36*
X80010D02*
X63740D01*
Y221782D01*
X80010D01*
Y230552D01*
D02*
G37*
G36*
X144780Y224028D02*
X137160D01*
Y218958D01*
X144780D01*
Y224028D01*
D02*
G37*
G36*
X134620D02*
X127000D01*
Y218958D01*
X134620D01*
Y224028D01*
D02*
G37*
G36*
X112189Y161218D02*
X102419D01*
Y155448D01*
X112189D01*
Y161218D01*
D02*
G37*
G36*
X99879D02*
X90109D01*
Y155448D01*
X99879D01*
Y161218D01*
D02*
G37*
G36*
X112189Y152908D02*
X102419D01*
Y147138D01*
X112189D01*
Y152908D01*
D02*
G37*
G36*
X99879D02*
X90109D01*
Y147138D01*
X99879D01*
Y152908D01*
D02*
G37*
%LPD*%
G36*
X275282Y389997D02*
X277038Y389270D01*
X278545Y388113D01*
X279702Y386606D01*
X280429Y384850D01*
X280668Y383037D01*
X280654Y382966D01*
Y329290D01*
X278132D01*
Y329706D01*
X278070Y330018D01*
X277843Y331739D01*
X277059Y333634D01*
X275811Y335261D01*
X274184Y336509D01*
X272289Y337294D01*
X270568Y337520D01*
X270256Y337582D01*
X228346D01*
X228279Y337569D01*
X226504Y337803D01*
X224787Y338514D01*
X223313Y339645D01*
X222182Y341119D01*
X221471Y342836D01*
X221237Y344611D01*
X221250Y344678D01*
Y364236D01*
X221269D01*
X220844Y367466D01*
X219597Y370476D01*
X217613Y373061D01*
X215028Y375045D01*
X212018Y376292D01*
X212234Y377522D01*
X250299D01*
Y376160D01*
X229030D01*
Y339160D01*
X251030D01*
Y351543D01*
X253646D01*
Y351541D01*
X257243Y352015D01*
X260594Y353403D01*
X263473Y355611D01*
X265681Y358490D01*
X267069Y361841D01*
X267177Y362660D01*
X272549D01*
Y375360D01*
Y389412D01*
X273819Y390190D01*
X275282Y389997D01*
D02*
G37*
G36*
X210055Y367295D02*
X211129Y366577D01*
X211847Y365503D01*
X212086Y364298D01*
X212074Y364236D01*
Y344678D01*
X212093Y344580D01*
X212396Y341505D01*
X213322Y338455D01*
X214824Y335643D01*
X216847Y333179D01*
X219311Y331156D01*
X222123Y329654D01*
X225173Y328728D01*
X228248Y328425D01*
X228346Y328406D01*
X240794D01*
Y324628D01*
X237490D01*
Y324632D01*
X232798Y324263D01*
X228222Y323164D01*
X223874Y321363D01*
X219861Y318904D01*
X216282Y315848D01*
X213226Y312269D01*
X210767Y308256D01*
X208965Y303908D01*
X207867Y299332D01*
X207498Y294640D01*
X207502D01*
Y292889D01*
X206649Y291972D01*
X182649D01*
Y288560D01*
X181560D01*
X181395Y288527D01*
X179476Y288909D01*
X177709Y290090D01*
X176528Y291857D01*
X176146Y293775D01*
X176179Y293941D01*
Y354110D01*
X182341D01*
Y367522D01*
X183899D01*
Y354110D01*
X190061D01*
Y342772D01*
X182649D01*
Y326772D01*
X206649D01*
Y342772D01*
X199237D01*
Y354110D01*
X205399D01*
Y367522D01*
X208788D01*
X208850Y367534D01*
X210055Y367295D01*
D02*
G37*
G36*
X264294Y310790D02*
X268956D01*
Y306664D01*
X255544D01*
Y285664D01*
X258956D01*
Y277942D01*
X254044D01*
Y255942D01*
X273044D01*
Y268206D01*
X274240Y268634D01*
X274689Y268087D01*
X277658Y265650D01*
X279044Y264909D01*
Y255942D01*
X298044D01*
Y277942D01*
X279044D01*
X279044Y277942D01*
Y277942D01*
X278524Y279025D01*
X278438Y279234D01*
X278102Y281789D01*
X278132Y281942D01*
Y285664D01*
X291544D01*
Y291576D01*
X307086D01*
Y291573D01*
X307800Y291431D01*
X308406Y291026D01*
X308811Y290420D01*
X308953Y289706D01*
X308956D01*
Y277942D01*
X304044D01*
Y255942D01*
X308956D01*
Y251060D01*
X308923D01*
X309405Y247404D01*
X310816Y243997D01*
X313061Y241071D01*
X315987Y238826D01*
X319394Y237414D01*
X323050Y236933D01*
Y236966D01*
X340718D01*
Y233442D01*
X323812D01*
X323646Y233409D01*
X320917Y233140D01*
X318133Y232296D01*
X315568Y230924D01*
X313319Y229079D01*
X311474Y226830D01*
X310102Y224265D01*
X309258Y221481D01*
X308989Y218752D01*
X308956Y218586D01*
Y212942D01*
X304044D01*
Y190942D01*
X308956D01*
Y183750D01*
X308999Y183532D01*
X308545Y181252D01*
X307130Y179134D01*
X305012Y177719D01*
X302732Y177265D01*
X302514Y177308D01*
X291544D01*
Y183220D01*
X278132D01*
Y186942D01*
X278102Y187095D01*
X278438Y189650D01*
X278519Y189844D01*
X279044Y190942D01*
Y190942D01*
X279044Y190942D01*
X298044D01*
Y212942D01*
X279044D01*
Y203975D01*
X277658Y203234D01*
X274689Y200797D01*
X274240Y200250D01*
X273044Y200678D01*
Y212942D01*
X254044D01*
Y190942D01*
X258956D01*
Y183220D01*
X255544D01*
Y162220D01*
X268956D01*
Y156570D01*
X264294D01*
Y138070D01*
X268956D01*
Y131812D01*
X268975Y131714D01*
X268745Y131158D01*
X267716Y130577D01*
Y130577D01*
X264899Y130206D01*
X262273Y129119D01*
X260019Y127389D01*
X258289Y125134D01*
X257202Y122509D01*
X256831Y119692D01*
X256836D01*
Y113684D01*
X250299D01*
Y110690D01*
X249169Y110222D01*
X247167Y108687D01*
X245632Y106685D01*
X244667Y104355D01*
X244348Y101936D01*
X244332Y101854D01*
X244369Y101667D01*
X243957Y99596D01*
X242678Y97682D01*
X240764Y96403D01*
X238693Y95991D01*
X238506Y96028D01*
X205399D01*
Y109534D01*
X199237D01*
Y120778D01*
X206649D01*
Y136778D01*
X182649D01*
Y120778D01*
X190061D01*
Y109534D01*
X183899D01*
Y96028D01*
X182341D01*
Y109534D01*
X176179D01*
Y169559D01*
X176146Y169727D01*
X176531Y171663D01*
X177723Y173447D01*
X179506Y174638D01*
X181442Y175023D01*
X181610Y174990D01*
X182649D01*
Y171578D01*
X206649D01*
X207640Y170906D01*
X207867Y168028D01*
X208965Y163452D01*
X210767Y159104D01*
X213226Y155091D01*
X216282Y151512D01*
X219861Y148456D01*
X223874Y145997D01*
X228222Y144195D01*
X232798Y143097D01*
X237490Y142728D01*
Y142732D01*
X240794D01*
Y138070D01*
X259294D01*
Y156570D01*
X240794D01*
Y151908D01*
X237490D01*
X237283Y151867D01*
X233418Y152248D01*
X229502Y153435D01*
X225893Y155364D01*
X222730Y157960D01*
X220134Y161123D01*
X218205Y164732D01*
X217018Y168648D01*
X216637Y172513D01*
X216678Y172720D01*
Y217998D01*
X221940D01*
Y230698D01*
Y245298D01*
X216678D01*
Y294640D01*
X216637Y294847D01*
X217018Y298712D01*
X218205Y302628D01*
X220134Y306237D01*
X222730Y309400D01*
X225893Y311996D01*
X229502Y313925D01*
X233418Y315112D01*
X237283Y315493D01*
X237490Y315452D01*
X240794D01*
Y310790D01*
X259294D01*
Y328406D01*
X264294D01*
Y310790D01*
D02*
G37*
G36*
X390294Y388373D02*
X397557Y387139D01*
X404637Y385100D01*
X411443Y382280D01*
X417892Y378716D01*
X423900Y374453D01*
X429394Y369544D01*
X434303Y364050D01*
X438566Y358042D01*
X442130Y351594D01*
X444950Y344787D01*
X446989Y337707D01*
X448223Y330444D01*
X448616Y323456D01*
X448543Y323088D01*
Y244140D01*
X447434Y243520D01*
X445634Y244623D01*
X441622Y246285D01*
X437399Y247299D01*
X433338Y247618D01*
X433070Y247672D01*
X417218D01*
Y261004D01*
X394958D01*
Y258842D01*
X393622D01*
Y264328D01*
X398034D01*
Y285328D01*
X381034D01*
Y279416D01*
X376902D01*
Y285328D01*
X359902D01*
Y264328D01*
X376902D01*
Y270240D01*
X381034D01*
Y264328D01*
X384446D01*
Y258666D01*
X384479Y258499D01*
X384763Y256339D01*
X385661Y254172D01*
X387090Y252310D01*
X388951Y250881D01*
X391119Y249983D01*
X393279Y249699D01*
X393446Y249666D01*
X394958D01*
Y233717D01*
X394208D01*
X394034Y233683D01*
X391132Y233397D01*
X388174Y232500D01*
X385448Y231042D01*
X383058Y229082D01*
X381097Y226692D01*
X379640Y223966D01*
X378743Y221008D01*
X378457Y218106D01*
X378423Y217932D01*
Y199390D01*
X378452Y199240D01*
X378750Y196214D01*
X379677Y193160D01*
X381181Y190346D01*
X383205Y187880D01*
X385672Y185855D01*
X388487Y184351D01*
X391540Y183424D01*
X394566Y183126D01*
X394716Y183097D01*
X395088D01*
Y169460D01*
X417088D01*
Y206460D01*
X395088D01*
Y193910D01*
X393818Y192919D01*
X393010Y193025D01*
X391421Y193683D01*
X390057Y194731D01*
X389009Y196095D01*
X388351Y197684D01*
X388136Y199321D01*
X388149Y199390D01*
Y217932D01*
X388107Y218144D01*
X388533Y220283D01*
X389864Y222276D01*
X391857Y223607D01*
X393688Y223972D01*
X394958Y223265D01*
X394958Y222104D01*
X395918Y221356D01*
X395918Y220834D01*
Y217424D01*
X416258D01*
X416258Y221356D01*
X417218Y222104D01*
X417218Y222692D01*
Y235436D01*
X433070D01*
X433290Y235480D01*
X436101Y235203D01*
X439016Y234319D01*
X441702Y232883D01*
X444057Y230951D01*
X445989Y228596D01*
X447425Y225910D01*
X448309Y222995D01*
X448543Y220628D01*
Y219964D01*
Y147652D01*
X436160D01*
Y125652D01*
X473160D01*
Y130534D01*
X479298D01*
X479580Y130590D01*
X483076Y130246D01*
X486709Y129144D01*
X490057Y127354D01*
X492992Y124946D01*
X495401Y122011D01*
X497190Y118663D01*
X498292Y115030D01*
X498637Y111534D01*
X498581Y111252D01*
Y84074D01*
X498633Y83809D01*
X498307Y80495D01*
X497263Y77053D01*
X495568Y73882D01*
X493286Y71102D01*
X490506Y68820D01*
X487335Y67125D01*
X483893Y66081D01*
X480579Y65755D01*
X480314Y65807D01*
X358648D01*
X358392Y65757D01*
X355805Y66097D01*
X353156Y67195D01*
X350880Y68940D01*
X349135Y71216D01*
X348037Y73865D01*
X347697Y76452D01*
X347747Y76708D01*
Y82042D01*
X347689Y82336D01*
X347367Y85608D01*
X346326Y89038D01*
X344637Y92198D01*
X342364Y94968D01*
X339594Y97241D01*
X336433Y98931D01*
X333004Y99971D01*
X329732Y100293D01*
X329438Y100351D01*
X326789D01*
Y113684D01*
X304539D01*
Y100184D01*
Y88202D01*
X303269Y87523D01*
X303209Y87563D01*
X302099Y89225D01*
X301738Y91036D01*
X301768Y91186D01*
Y165862D01*
X301778D01*
X301605Y167177D01*
X302356Y168034D01*
X302755Y168169D01*
X305558Y168445D01*
X308486Y169333D01*
X311184Y170775D01*
X313549Y172715D01*
X315489Y175080D01*
X316931Y177778D01*
X317819Y180706D01*
X318106Y183620D01*
X318132Y183750D01*
Y190942D01*
X323044D01*
Y212942D01*
X318132D01*
Y218586D01*
X318096Y218766D01*
X318498Y220787D01*
X319745Y222653D01*
X321611Y223900D01*
X323632Y224302D01*
X323812Y224266D01*
X340718D01*
Y209404D01*
X345730D01*
Y133858D01*
X345764Y133688D01*
X346139Y128931D01*
X347293Y124125D01*
X349184Y119559D01*
X351766Y115344D01*
X354976Y111586D01*
X358735Y108376D01*
X362949Y105794D01*
X367515Y103903D01*
X372321Y102749D01*
X374184Y102602D01*
Y97458D01*
X387762D01*
X388129Y95931D01*
X390020Y91365D01*
X392602Y87150D01*
X395812Y83392D01*
X399571Y80182D01*
X403785Y77600D01*
X408351Y75708D01*
X413157Y74555D01*
X417914Y74180D01*
X418084Y74146D01*
X436160D01*
Y69264D01*
X473160D01*
Y91264D01*
X436160D01*
Y86382D01*
X418084D01*
X417802Y86326D01*
X414306Y86670D01*
X410673Y87772D01*
X407325Y89562D01*
X404390Y91970D01*
X401982Y94905D01*
X401199Y96369D01*
X401852Y97458D01*
X411184D01*
Y119458D01*
X374184D01*
Y115796D01*
X372914Y115033D01*
X369837Y115966D01*
X366489Y117755D01*
X363554Y120164D01*
X361146Y123099D01*
X359356Y126447D01*
X358254Y130080D01*
X357910Y133576D01*
X357966Y133858D01*
Y209404D01*
X362978D01*
Y222104D01*
Y234804D01*
Y247504D01*
Y261004D01*
X340718D01*
Y258842D01*
X338836D01*
Y258842D01*
X338065Y258996D01*
X337411Y259433D01*
X336974Y260087D01*
X336820Y260858D01*
X336820D01*
Y312128D01*
X362562D01*
Y339128D01*
X335562D01*
Y329980D01*
X334811Y329881D01*
X332481Y328916D01*
X330480Y327380D01*
X328944Y325379D01*
X327979Y323049D01*
X327660Y320630D01*
X327644Y320548D01*
Y260858D01*
X327636D01*
X328018Y257959D01*
X329137Y255258D01*
X330916Y252938D01*
X333236Y251159D01*
X335937Y250040D01*
X338836Y249658D01*
Y249666D01*
X340718D01*
Y246142D01*
X323050D01*
X322907Y246114D01*
X321146Y246464D01*
X319532Y247542D01*
X318454Y249156D01*
X318104Y250917D01*
X318132Y251060D01*
Y255942D01*
X323044D01*
Y277942D01*
X318132D01*
Y289706D01*
X318139D01*
X317762Y292567D01*
X316658Y295232D01*
X314901Y297521D01*
X312612Y299278D01*
X309947Y300382D01*
X307086Y300759D01*
Y300752D01*
X304372D01*
X303460Y302022D01*
X303825Y304800D01*
X303800D01*
Y361696D01*
X304539Y362660D01*
X326789D01*
Y375360D01*
Y388693D01*
X382938D01*
X383306Y388766D01*
X390294Y388373D01*
D02*
G37*
G36*
X250299Y70702D02*
X246846D01*
Y75584D01*
X209846D01*
Y54372D01*
X208280D01*
X208093Y54335D01*
X206022Y54747D01*
X204108Y56026D01*
X202829Y57940D01*
X202417Y60011D01*
X202454Y60198D01*
Y64008D01*
X202462D01*
X202080Y66907D01*
X200961Y69608D01*
X199181Y71927D01*
X198655Y72331D01*
X199063Y73534D01*
X205399D01*
Y76946D01*
X250299D01*
Y70702D01*
D02*
G37*
G36*
X88814Y67190D02*
X89902Y65772D01*
X91320Y64685D01*
X92971Y64001D01*
X94302Y63825D01*
X94742Y63738D01*
X122174D01*
X122484Y63799D01*
X124211Y64027D01*
X126109Y64813D01*
X126689Y65258D01*
X128414Y64996D01*
X128528Y64836D01*
X128452Y64654D01*
X127966Y60960D01*
X127966Y60960D01*
X127692Y59804D01*
X127268Y59168D01*
X126446Y58619D01*
X125501Y58431D01*
X125476Y58436D01*
X92483D01*
X92333Y58406D01*
X89095Y58725D01*
X85838Y59713D01*
X82836Y61318D01*
X80204Y63478D01*
X78045Y66109D01*
X77865Y66445D01*
X78518Y67534D01*
X88672D01*
X88814Y67190D01*
D02*
G37*
%LPC*%
G36*
X205689Y316412D02*
X195919D01*
Y310642D01*
X205689D01*
Y316412D01*
D02*
G37*
G36*
X193379D02*
X183609D01*
Y310642D01*
X193379D01*
Y316412D01*
D02*
G37*
G36*
X205689Y308102D02*
X195919D01*
Y302332D01*
X205689D01*
Y308102D01*
D02*
G37*
G36*
X193379D02*
X183609D01*
Y302332D01*
X193379D01*
Y308102D01*
D02*
G37*
G36*
X205689Y161218D02*
X195919D01*
Y155448D01*
X205689D01*
Y161218D01*
D02*
G37*
G36*
X193379D02*
X183609D01*
Y155448D01*
X193379D01*
Y161218D01*
D02*
G37*
G36*
X205689Y152908D02*
X195919D01*
Y147138D01*
X205689D01*
Y152908D01*
D02*
G37*
G36*
X193379D02*
X183609D01*
Y147138D01*
X193379D01*
Y152908D01*
D02*
G37*
G36*
X402562Y348878D02*
X375562D01*
Y326648D01*
X375562Y325878D01*
X375562Y324608D01*
Y302378D01*
X383204D01*
X384246Y301108D01*
X384206Y300910D01*
X383335Y299605D01*
X382030Y298734D01*
X380588Y298447D01*
X380492Y298466D01*
X357124D01*
Y298488D01*
X353803Y298050D01*
X350708Y296769D01*
X348051Y294729D01*
X346011Y292072D01*
X344729Y288977D01*
X344292Y285656D01*
X343158Y285328D01*
X340902D01*
Y264328D01*
X357902D01*
Y285328D01*
X354613D01*
X353646Y286598D01*
X353738Y287059D01*
X354532Y288248D01*
X355721Y289042D01*
X357045Y289306D01*
X357124Y289290D01*
X380492D01*
Y289265D01*
X383904Y289714D01*
X387083Y291031D01*
X389814Y293126D01*
X391909Y295857D01*
X393226Y299036D01*
X393666Y302378D01*
X402562D01*
Y324608D01*
X402562Y325378D01*
X402562Y326648D01*
Y330081D01*
X403817Y331190D01*
X404446Y330106D01*
Y285328D01*
X400034D01*
Y264328D01*
X417034D01*
Y285328D01*
X413622D01*
Y330106D01*
X413636D01*
X413231Y333179D01*
X412045Y336043D01*
X410158Y338502D01*
X407699Y340389D01*
X404835Y341575D01*
X402562Y341874D01*
Y348878D01*
D02*
G37*
G36*
X416258Y214884D02*
X407358D01*
Y210364D01*
X416258D01*
Y214884D01*
D02*
G37*
G36*
X404818D02*
X395918D01*
Y210364D01*
X404818D01*
Y214884D01*
D02*
G37*
G36*
X416128Y164098D02*
X407358D01*
Y147828D01*
X416128D01*
Y164098D01*
D02*
G37*
G36*
X404818D02*
X396048D01*
Y147828D01*
X404818D01*
Y164098D01*
D02*
G37*
G36*
X416128Y145288D02*
X407358D01*
Y129018D01*
X416128D01*
Y145288D01*
D02*
G37*
G36*
X404818D02*
X396048D01*
Y129018D01*
X404818D01*
Y145288D01*
D02*
G37*
G36*
X472200Y118498D02*
X455930D01*
Y109728D01*
X472200D01*
Y118498D01*
D02*
G37*
G36*
X453390D02*
X437120D01*
Y109728D01*
X453390D01*
Y118498D01*
D02*
G37*
G36*
X472200Y107188D02*
X455930D01*
Y98418D01*
X472200D01*
Y107188D01*
D02*
G37*
G36*
X453390D02*
X437120D01*
Y98418D01*
X453390D01*
Y107188D01*
D02*
G37*
%LPD*%
D10*
X266011Y613845D02*
G03*
X288363Y591493I22352J0D01*
G01*
X288109Y779453D02*
G03*
X266011Y757355I0J-22098D01*
G01*
X314779Y528501D02*
G03*
X319351Y533073I0J4572D01*
G01*
Y548313D02*
G03*
X313763Y553901I-5588J0D01*
G01*
X314017D02*
G03*
X317559Y557443I0J3542D01*
G01*
X314619Y818663D02*
G03*
X319351Y823395I0J4732D01*
G01*
Y840667D02*
G03*
X315955Y844063I-3396J0D01*
G01*
X255343Y692585D02*
G03*
X266011Y703253I0J10668D01*
G01*
Y669217D02*
G03*
X255343Y679885I-10668J0D01*
G01*
X215606Y745783D02*
G03*
X225625Y735765I10019J0D01*
G01*
X158315Y786565D02*
G03*
X169491Y797741I0J11176D01*
G01*
X167149Y735765D02*
G03*
X192549Y761165I0J25400D01*
G01*
X158569Y504371D02*
G03*
X172031Y517833I0J13462D01*
G01*
X182699Y528501D02*
G03*
X172031Y517833I0J-10668D01*
G01*
X111071Y525453D02*
G03*
X132153Y504371I21082J0D01*
G01*
X172031Y855653D02*
G03*
X183621Y844063I11590J0D01*
G01*
X172031Y855653D02*
G03*
X159331Y868353I-12700J0D01*
G01*
X169491Y836603D02*
G03*
X162031Y844063I-7460J0D01*
G01*
X348909Y831363D02*
G03*
X340687Y823141I0J-8222D01*
G01*
X317559Y733735D02*
G03*
X332559Y718735I15000J0D01*
G01*
X225625Y636705D02*
G03*
X215606Y626686I0J-10019D01*
G01*
X169491Y574475D02*
G03*
X158061Y585905I-11430J0D01*
G01*
X192549Y611305D02*
G03*
X167149Y636705I-25400J0D01*
G01*
X342211Y616131D02*
G03*
X333829Y624513I-8382J0D01*
G01*
X342211Y548821D02*
G03*
X349831Y541201I7620J0D01*
G01*
X332559Y653735D02*
G03*
X317559Y638735I0J-15000D01*
G01*
X136725Y551107D02*
G03*
X111071Y525453I0J-25654D01*
G01*
X262709Y551107D02*
G03*
X276679Y565077I0J13970D01*
G01*
X317562Y563093D02*
G03*
X317559Y563001I1997J-102D01*
G01*
X317562Y563093D02*
G03*
X317559Y563001I1997J-102D01*
G01*
X317562Y563093D02*
G03*
X317569Y563351I-4493J258D01*
G01*
X317562Y563093D02*
G03*
X317569Y563351I-4493J258D01*
G01*
X286839Y577777D02*
G03*
X276679Y567617I0J-10160D01*
G01*
X317569Y569851D02*
G03*
X317562Y570108I-4500J0D01*
G01*
X317569Y569851D02*
G03*
X317562Y570108I-4500J0D01*
G01*
X317559Y570201D02*
G03*
X317562Y570108I2000J10D01*
G01*
X317559Y570201D02*
G03*
X317562Y570108I2000J10D01*
G01*
X317559Y571695D02*
G03*
X311477Y577777I-6082J0D01*
G01*
X346529Y624513D02*
G03*
X357559Y635543I0J11030D01*
G01*
X367827Y680647D02*
G03*
X357559Y670379I0J-10268D01*
G01*
Y702853D02*
G03*
X367065Y693347I9506J0D01*
G01*
X376247Y712651D02*
G03*
X382851Y706047I6604J0D01*
G01*
X433049Y710459D02*
G03*
X437461Y706047I4412J0D01*
G01*
X401139Y745671D02*
G03*
X392917Y737449I0J-8222D01*
G01*
X357559Y741499D02*
G03*
X351101Y747957I-6458J0D01*
G01*
X424507Y745671D02*
G03*
X433077Y754241I0J8570D01*
G01*
X334591Y747957D02*
G03*
X340687Y754053I0J6096D01*
G01*
X381327Y777421D02*
G03*
X376247Y772341I0J-5080D01*
G01*
X317559Y788357D02*
G03*
X308683Y797233I-8876J0D01*
G01*
X453049Y781899D02*
G03*
X445777Y789171I-7272J0D01*
G01*
X280743Y810187D02*
G03*
X293697Y797233I12954J0D01*
G01*
D02*
G03*
X305439Y808975I0J11742D01*
G01*
X280743Y810187D02*
G03*
X269567Y821363I-11176J0D01*
G01*
X106497Y843967D02*
G03*
X129101Y821363I22604J0D01*
G01*
X130883Y868353D02*
G03*
X106497Y843967I0J-24386D01*
G01*
X288363Y591493D02*
X294059D01*
X266011Y613845D02*
Y669217D01*
X288109Y779453D02*
X294059D01*
X266011Y703253D02*
Y757355D01*
X319351Y533073D02*
Y548313D01*
X182699Y528501D02*
X305439D01*
X314779D01*
X313763Y553901D02*
X314017D01*
X305439D02*
X313763D01*
X319351Y823395D02*
Y840667D01*
X305439Y844063D02*
X315955D01*
X305439Y818663D02*
X314619D01*
X240814Y692585D02*
X255343D01*
X240814Y679885D02*
X255343D01*
X225625Y735765D02*
X238664D01*
X215606Y745783D02*
Y811363D01*
X145164Y786565D02*
X158315D01*
X169491Y797741D02*
Y811363D01*
X145164Y735765D02*
X167149D01*
X192549Y761165D02*
Y811363D01*
X238664Y786565D02*
Y811363D01*
X132153Y504371D02*
X158569D01*
X183621Y844063D02*
X305439D01*
X130883Y868353D02*
X159331D01*
X146377Y844063D02*
X162031D01*
X169491Y831363D02*
Y836603D01*
X317559Y779453D02*
Y788357D01*
Y733735D02*
Y779453D01*
X225625Y636705D02*
X238664D01*
X215606Y561201D02*
Y626686D01*
X169491Y561201D02*
Y574475D01*
X145164Y585905D02*
X158061D01*
X192549Y561201D02*
Y611305D01*
X145164Y636705D02*
X167149D01*
X238664Y561201D02*
Y585905D01*
X349831Y541201D02*
X359679D01*
X342211Y548821D02*
Y616131D01*
X317559Y571695D02*
Y591493D01*
Y638735D01*
X136725Y551107D02*
X262709D01*
X317559Y557443D02*
Y563001D01*
Y563001D01*
X317569Y563351D02*
Y569851D01*
X276679Y565077D02*
Y567617D01*
X317559Y570201D02*
Y571695D01*
X286839Y577777D02*
X311477D01*
X327559Y624513D02*
X346529D01*
X307559D02*
Y653735D01*
X357559Y635543D02*
Y670379D01*
X367827Y680647D02*
X395863D01*
X367065Y693347D02*
X395863D01*
X357559Y702853D02*
Y718735D01*
X437461Y706047D02*
X450103D01*
X382851D02*
X395863D01*
X433049Y710459D02*
Y726621D01*
X376247Y712651D02*
Y772341D01*
X307559Y718735D02*
Y747957D01*
X357559Y718735D02*
Y741499D01*
X392917Y726621D02*
Y737449D01*
X453049Y726621D02*
Y781899D01*
X412917Y726621D02*
X433049D01*
X401139Y745671D02*
X424507D01*
X327559Y747957D02*
X351101D01*
X340687Y754053D02*
Y823141D01*
X433077Y754241D02*
Y765671D01*
X381327Y777421D02*
X393077D01*
X433077Y789171D02*
X445777D01*
X293697Y797233D02*
X308683D01*
X305439Y808975D02*
Y818663D01*
X129101Y821363D02*
X269567D01*
X348909Y831363D02*
X359679D01*
X169491D02*
X192549D01*
X215606D02*
X238664D01*
X305439D01*
X192549D02*
X215606D01*
X273544Y281942D02*
G03*
X288544Y266942I15000J0D01*
G01*
X122174Y68326D02*
G03*
X125476Y71628I0J3302D01*
G01*
X92456Y70612D02*
G03*
X94742Y68326I2286J0D01*
G01*
X96774Y401066D02*
G03*
X92456Y396748I0J-4318D01*
G01*
X125476D02*
G03*
X121158Y401066I-4318J0D01*
G01*
X237490Y320040D02*
G03*
X212090Y294640I0J-25400D01*
G01*
X70575Y75757D02*
G03*
X92483Y53848I21909J0D01*
G01*
X125476D02*
G03*
X132588Y60960I0J7112D01*
G01*
X197866Y64008D02*
G03*
X191262Y70612I-6604J0D01*
G01*
X142240D02*
G03*
X132588Y60960I0J-9652D01*
G01*
X264668Y49784D02*
G03*
X275336Y60452I0J10668D01*
G01*
X197866Y60198D02*
G03*
X208280Y49784I10414J0D01*
G01*
X132842Y401828D02*
G03*
X126834Y407836I-6008J0D01*
G01*
X132842Y401828D02*
G03*
X139860Y394810I7018J0D01*
G01*
X76887Y91440D02*
G03*
X70575Y85127I0J-6313D01*
G01*
X85438Y407510D02*
G03*
X69596Y391668I0J-15842D01*
G01*
Y377440D02*
G03*
X74926Y372110I5330J0D01*
G01*
X212090Y172720D02*
G03*
X237490Y147320I25400J0D01*
G01*
X181610Y179578D02*
G03*
X171591Y169559I0J-10019D01*
G01*
X125476Y117509D02*
G03*
X114207Y128778I-11269J0D01*
G01*
X171591Y293941D02*
G03*
X181560Y283972I9969J0D01*
G01*
X114300Y334772D02*
G03*
X125476Y345948I0J11176D01*
G01*
X148534Y154178D02*
G03*
X123134Y179578I-25400J0D01*
G01*
Y283972D02*
G03*
X148534Y309372I0J25400D01*
G01*
X275336Y85852D02*
G03*
X266954Y94234I-8382J0D01*
G01*
X254000Y106934D02*
G03*
X248920Y101854I0J-5080D01*
G01*
X238506Y91440D02*
G03*
X248920Y101854I0J10414D01*
G01*
X297180Y91186D02*
G03*
X306832Y81534I9652J0D01*
G01*
X273544Y329706D02*
G03*
X270256Y332994I-3288J0D01*
G01*
X216662Y344678D02*
G03*
X228346Y332994I11684J0D01*
G01*
X216662Y364236D02*
G03*
X208788Y372110I-7874J0D01*
G01*
X267716Y125984D02*
G03*
X261424Y119692I0J-6292D01*
G01*
X267716Y125984D02*
G03*
X273544Y131812I0J5828D01*
G01*
X297180Y165862D02*
G03*
X290322Y172720I-6858J0D01*
G01*
X306418Y382110D02*
G03*
X299212Y374904I0J-7206D01*
G01*
X290576Y296164D02*
G03*
X299212Y304800I0J8636D01*
G01*
X279146Y320040D02*
G03*
X285242Y326136I0J6096D01*
G01*
Y382966D02*
G03*
X273398Y394810I-11844J0D01*
G01*
X302514Y172720D02*
G03*
X313544Y183750I0J11030D01*
G01*
X357124Y293878D02*
G03*
X348902Y285656I0J-8222D01*
G01*
X380492Y293878D02*
G03*
X389062Y302448I0J8570D01*
G01*
X288544Y201942D02*
G03*
X273544Y186942I0J-15000D01*
G01*
X337312Y325628D02*
G03*
X332232Y320548I0J-5080D01*
G01*
Y260858D02*
G03*
X338836Y254254I6604J0D01*
G01*
X409034Y330106D02*
G03*
X401762Y337378I-7272J0D01*
G01*
X389034Y258666D02*
G03*
X393446Y254254I4412J0D01*
G01*
X323812Y228854D02*
G03*
X313544Y218586I0J-10268D01*
G01*
Y251060D02*
G03*
X323050Y241554I9506J0D01*
G01*
X313544Y289706D02*
G03*
X307086Y296164I-6458J0D01*
G01*
X237490Y320040D02*
X253544D01*
X273544Y281942D02*
Y320040D01*
X94742Y68326D02*
X122174D01*
X125476Y71628D02*
Y81534D01*
X148534D01*
X92456Y70612D02*
Y78534D01*
Y385110D02*
Y396748D01*
X96774Y401066D02*
X121158D01*
X125476Y382110D02*
Y396748D01*
X92483Y53848D02*
X125476D01*
X70575Y75757D02*
Y85127D01*
X142240Y70612D02*
X191262D01*
X208280Y49784D02*
X264668D01*
X197866Y60198D02*
Y64008D01*
X139860Y394810D02*
X261424D01*
X94750Y407836D02*
X126834D01*
X261424Y394810D02*
X273398D01*
X85438Y407510D02*
X94750Y407836D01*
X76887Y91440D02*
X238506D01*
X69596Y377440D02*
Y391668D01*
X74926Y372110D02*
X208788D01*
X237490Y147320D02*
X253544D01*
X212090Y172720D02*
Y225298D01*
Y237998D02*
Y294640D01*
X181610Y179578D02*
X194649D01*
X171591Y101534D02*
Y169559D01*
X125476Y101534D02*
Y117509D01*
X101149Y128778D02*
X114207D01*
X181560Y283972D02*
X194649D01*
X171591Y293941D02*
Y362110D01*
X101149Y334772D02*
X114300D01*
X148534Y101534D02*
Y154178D01*
X101149Y179578D02*
X123134D01*
X194649Y101534D02*
Y128778D01*
X125476Y345948D02*
Y362110D01*
X101149Y283972D02*
X123134D01*
X148534Y309372D02*
Y362110D01*
X194649Y334772D02*
Y362110D01*
X275336Y60452D02*
Y85852D01*
X254000Y106934D02*
X261424D01*
Y119692D01*
Y94234D02*
X266954D01*
X297180Y91186D02*
Y165862D01*
X313544Y183750D02*
Y218586D01*
X194649Y81534D02*
X261424D01*
X171591D02*
X194649D01*
X148534D02*
X171591D01*
X228346Y332994D02*
X270256D01*
X216662Y344678D02*
Y364236D01*
X125476Y382110D02*
X148534D01*
X194649D02*
X261424D01*
X171591D02*
X194649D01*
X148534D02*
X171591D01*
X273544Y131812D02*
Y186942D01*
X261424Y94234D02*
Y106934D01*
X306832Y81534D02*
X315664D01*
X290322Y172720D02*
X302514D01*
X283544D02*
X290322D01*
X283544Y296164D02*
X290576D01*
X306418Y382110D02*
X315664D01*
X290576Y296164D02*
X307086D01*
X299212Y304800D02*
Y374904D01*
X285242Y326136D02*
Y382966D01*
X273544Y320040D02*
X279146D01*
X261424Y394810D02*
Y407510D01*
X273544Y320040D02*
Y329706D01*
X263544Y172720D02*
Y201942D01*
X348902Y274828D02*
Y285656D01*
X357124Y293878D02*
X380492D01*
X389062Y302448D02*
Y313878D01*
X337312Y325628D02*
X349062D01*
X332232Y260858D02*
Y320548D01*
X338836Y254254D02*
X351848D01*
X409034Y274828D02*
Y330106D01*
X389062Y337378D02*
X401762D01*
X389034Y258666D02*
Y274828D01*
X393446Y254254D02*
X406088D01*
X368902Y274828D02*
X389034D01*
X323812Y228854D02*
X351848D01*
X313544Y251060D02*
Y266942D01*
X323050Y241554D02*
X351848D01*
X313544Y266942D02*
Y289706D01*
X263544Y266942D02*
Y296164D01*
D11*
X383867Y553901D02*
G03*
X399107Y569141I0J15240D01*
G01*
X458543Y693347D02*
G03*
X477847Y712651I0J19304D01*
G01*
X359679Y528501D02*
X399107D01*
X359679Y553901D02*
X383867D01*
X399107Y528501D02*
X465147D01*
X399107Y569141D02*
Y578539D01*
X465147D01*
X395863Y628831D02*
Y667947D01*
X450103Y693347D02*
X458543D01*
X477847Y712651D02*
Y732717D01*
X359679Y791391D02*
Y818663D01*
Y844063D02*
X399107D01*
X341630Y82042D02*
G03*
X329438Y94234I-12192J0D01*
G01*
X341630Y76708D02*
G03*
X358648Y59690I17018J0D01*
G01*
X480314D02*
G03*
X504698Y84074I0J24384D01*
G01*
Y111252D02*
G03*
X479298Y136652I-25400J0D01*
G01*
X392684Y105664D02*
G03*
X418084Y80264I25400J0D01*
G01*
X351848Y133858D02*
G03*
X377248Y108458I25400J0D01*
G01*
X253646Y357660D02*
G03*
X261424Y365438I0J7778D01*
G01*
X257174Y64584D02*
G03*
X261424Y68834I0J4250D01*
G01*
X454660Y323088D02*
G03*
X382938Y394810I-71722J0D01*
G01*
X454660Y219964D02*
G03*
X433070Y241554I-21590J0D01*
G01*
X358648Y59690D02*
X480314D01*
X341630Y76708D02*
Y82042D01*
X504698Y84074D02*
Y111252D01*
X315664Y94234D02*
X329438D01*
X454660Y219964D02*
Y323088D01*
Y136652D02*
Y219964D01*
Y136652D02*
X479298D01*
X418084Y80264D02*
X454660D01*
X377248Y108458D02*
X392684D01*
Y105664D02*
Y108458D01*
X351848Y133858D02*
Y216154D01*
X240030Y357660D02*
X253646D01*
X228346Y64584D02*
X257174D01*
X261424Y365438D02*
Y369410D01*
X315664Y394810D02*
X382938D01*
X406088Y241554D02*
X433070D01*
D12*
X162379Y528501D02*
G03*
X169491Y535613I0J7112D01*
G01*
X493087Y663203D02*
G03*
X475643Y680647I-17444J0D01*
G01*
X146377Y528501D02*
X162379D01*
X169491Y535613D02*
Y541201D01*
X215606D02*
X238664D01*
X192549D02*
X215606D01*
X169491D02*
X192549D01*
X238664D02*
X305439D01*
X493087Y654993D02*
Y663203D01*
X450103Y680647D02*
X475643D01*
X383286Y199390D02*
G03*
X394716Y187960I11430J0D01*
G01*
X394208Y228854D02*
G03*
X383286Y217932I0J-10922D01*
G01*
Y199390D02*
Y217932D01*
X394208Y228854D02*
X406088D01*
X394716Y187960D02*
X406088D01*
D13*
X317559Y591493D02*
D03*
X294059D02*
D03*
X317559Y779453D02*
D03*
X294059D02*
D03*
X273544Y320040D02*
D03*
X250044D02*
D03*
X273544Y147320D02*
D03*
X250044D02*
D03*
X986132Y276384D02*
D03*
X1009632D02*
D03*
X699742Y274454D02*
D03*
X676242D02*
D03*
D14*
X327059Y747957D02*
D03*
X308059D02*
D03*
X433549Y726621D02*
D03*
X452549D02*
D03*
X412417D02*
D03*
X393417D02*
D03*
X327059Y624513D02*
D03*
X308059D02*
D03*
X389534Y274828D02*
D03*
X408534D02*
D03*
X368402D02*
D03*
X349402D02*
D03*
X283044Y296164D02*
D03*
X264044D02*
D03*
X283044Y172720D02*
D03*
X264044D02*
D03*
X680742Y168384D02*
D03*
X979492Y171686D02*
D03*
X1078096Y115552D02*
D03*
Y139682D02*
D03*
X638980D02*
D03*
Y115552D02*
D03*
X1044568Y424670D02*
D03*
X1025568D02*
D03*
X657980Y115552D02*
D03*
Y139682D02*
D03*
X1059096D02*
D03*
Y115552D02*
D03*
X1072706Y170416D02*
D03*
X1091706D02*
D03*
X998492Y171686D02*
D03*
X699742Y168384D02*
D03*
X607082Y168486D02*
D03*
X626082D02*
D03*
X925696Y404456D02*
D03*
X906696D02*
D03*
X819016D02*
D03*
X800016D02*
D03*
D15*
X240814Y679885D02*
D03*
X164614D02*
D03*
X240814Y692585D02*
D03*
X164614D02*
D03*
X135890Y237998D02*
D03*
X212090D02*
D03*
X135890Y225298D02*
D03*
X212090D02*
D03*
D16*
X238664Y735765D02*
D03*
Y761165D02*
D03*
Y786565D02*
D03*
X145164D02*
D03*
Y761165D02*
D03*
Y735765D02*
D03*
X238664Y585905D02*
D03*
Y611305D02*
D03*
Y636705D02*
D03*
X145164D02*
D03*
Y611305D02*
D03*
Y585905D02*
D03*
X194649Y283972D02*
D03*
Y309372D02*
D03*
Y334772D02*
D03*
X101149D02*
D03*
Y309372D02*
D03*
Y283972D02*
D03*
Y128778D02*
D03*
Y154178D02*
D03*
Y179578D02*
D03*
X194649D02*
D03*
Y154178D02*
D03*
Y128778D02*
D03*
D17*
X146377Y528501D02*
D03*
X395863Y628831D02*
D03*
X126057Y689227D02*
D03*
X477847Y732717D02*
D03*
X359679Y791391D02*
D03*
X146377Y844063D02*
D03*
X240030Y357660D02*
D03*
X406088Y187960D02*
D03*
Y146558D02*
D03*
X859300Y194292D02*
D03*
X726204Y311712D02*
D03*
X840250Y292082D02*
D03*
X807920Y446260D02*
D03*
X907560Y506712D02*
D03*
X939310Y168536D02*
D03*
X772432D02*
D03*
D18*
X399107Y528501D02*
D03*
X465147D02*
D03*
Y553520D02*
D03*
Y578539D02*
D03*
X399107D02*
D03*
X493087Y629974D02*
D03*
Y654993D02*
D03*
X399107Y844063D02*
D03*
X228346Y64584D02*
D03*
X454660Y80264D02*
D03*
Y136652D02*
D03*
Y108458D02*
D03*
X392684D02*
D03*
X81280Y231822D02*
D03*
X92456Y385110D02*
D03*
Y78534D02*
D03*
X859300Y65006D02*
D03*
X969790Y696196D02*
D03*
X839047Y575800D02*
D03*
X1023892Y696196D02*
D03*
X1109490Y509304D02*
D03*
Y587992D02*
D03*
X637050Y511812D02*
D03*
X731030Y543542D02*
D03*
X637050Y434322D02*
D03*
X877080Y575800D02*
D03*
X999000Y316792D02*
D03*
X1002708Y534652D02*
D03*
X794530Y708206D02*
D03*
X969790Y618230D02*
D03*
X921530Y696196D02*
D03*
D19*
X238664Y541201D02*
D03*
Y561201D02*
D03*
X215606Y541201D02*
D03*
Y561201D02*
D03*
X169491Y541201D02*
D03*
Y561201D02*
D03*
X192549Y541201D02*
D03*
Y561201D02*
D03*
Y831363D02*
D03*
Y811363D02*
D03*
X238664Y831363D02*
D03*
Y811363D02*
D03*
X215606Y831363D02*
D03*
Y811363D02*
D03*
X169491Y831363D02*
D03*
Y811363D02*
D03*
X148534Y362110D02*
D03*
Y382110D02*
D03*
X171591Y101534D02*
D03*
Y81534D02*
D03*
Y362110D02*
D03*
Y382110D02*
D03*
X194649Y101534D02*
D03*
Y81534D02*
D03*
Y362110D02*
D03*
Y382110D02*
D03*
X125476Y362110D02*
D03*
Y382110D02*
D03*
X148534Y81534D02*
D03*
Y101534D02*
D03*
X125476Y81534D02*
D03*
Y101534D02*
D03*
D20*
X450103Y706047D02*
D03*
Y693347D02*
D03*
Y680647D02*
D03*
Y667947D02*
D03*
X395863D02*
D03*
Y680647D02*
D03*
Y693347D02*
D03*
Y706047D02*
D03*
X305439Y566601D02*
D03*
Y553901D02*
D03*
Y541201D02*
D03*
Y528501D02*
D03*
X359679D02*
D03*
Y541201D02*
D03*
Y553901D02*
D03*
Y566601D02*
D03*
Y856763D02*
D03*
Y844063D02*
D03*
Y831363D02*
D03*
Y818663D02*
D03*
X305439D02*
D03*
Y831363D02*
D03*
Y844063D02*
D03*
Y856763D02*
D03*
X406088Y254254D02*
D03*
Y241554D02*
D03*
Y228854D02*
D03*
Y216154D02*
D03*
X351848D02*
D03*
Y228854D02*
D03*
Y241554D02*
D03*
Y254254D02*
D03*
D21*
X433077Y765671D02*
D03*
Y789171D02*
D03*
X389062Y313878D02*
D03*
Y337378D02*
D03*
D22*
X393077Y777421D02*
D03*
X349062Y325628D02*
D03*
D23*
X307559Y718735D02*
D03*
X332559D02*
D03*
X357559D02*
D03*
X307559Y653735D02*
D03*
X332559D02*
D03*
X357559D02*
D03*
X263544Y266942D02*
D03*
X288544D02*
D03*
X313544D02*
D03*
X263544Y201942D02*
D03*
X288544D02*
D03*
X313544D02*
D03*
D24*
X315664Y106934D02*
D03*
Y94234D02*
D03*
Y81534D02*
D03*
Y68834D02*
D03*
X261424D02*
D03*
Y81534D02*
D03*
Y94234D02*
D03*
Y106934D02*
D03*
Y407510D02*
D03*
Y394810D02*
D03*
Y382110D02*
D03*
Y369410D02*
D03*
X315664D02*
D03*
Y382110D02*
D03*
Y394810D02*
D03*
Y407510D02*
D03*
X831672Y527540D02*
D03*
X885912Y552940D02*
D03*
Y540240D02*
D03*
Y527540D02*
D03*
Y514840D02*
D03*
X831672D02*
D03*
Y540240D02*
D03*
Y552940D02*
D03*
D25*
X1029480Y276384D02*
G03*
X1024492Y271397I0J-4988D01*
G01*
X1004080Y276384D02*
G03*
X998492Y270796I0J-5588D01*
G01*
X678494Y90914D02*
G03*
X686940Y99360I0J8446D01*
G01*
Y131554D02*
G03*
X678812Y139682I-8128J0D01*
G01*
X1037756D02*
G03*
X1029882Y131808I0J-7874D01*
G01*
Y99503D02*
G03*
X1038470Y90914I8589J0D01*
G01*
X711726Y349486D02*
G03*
X702836Y340596I0J-8890D01*
G01*
X692952Y330712D02*
G03*
X702836Y340596I0J9884D01*
G01*
X857776Y351264D02*
G03*
X846554Y362486I-11222J0D01*
G01*
X886986Y696196D02*
G03*
X870984Y680194I0J-16002D01*
G01*
X938498Y424670D02*
G03*
X925696Y411868I0J-12802D01*
G01*
X936770Y441794D02*
G03*
X953894Y424670I17124J0D01*
G01*
X936770Y572752D02*
G03*
X911370Y598152I-25400J0D01*
G01*
X870984Y608058D02*
G03*
X880890Y598152I9906J0D01*
G01*
X922140Y499498D02*
G03*
X914926Y506712I-7214J0D01*
G01*
X907560Y521190D02*
G03*
X901210Y527540I-6350J0D01*
G01*
X896005Y487061D02*
G03*
X894758Y487154I-1247J-8289D01*
G01*
X883938Y491472D02*
G03*
X888256Y487154I4318J0D01*
G01*
X903140Y478772D02*
G03*
X896005Y487061I-8382J0D01*
G01*
X793260Y529572D02*
G03*
X800880Y537192I0J7620D01*
G01*
X793260Y529572D02*
G03*
X785640Y521952I0J-7620D01*
G01*
X800016Y404456D02*
G03*
X779802Y424670I-20214J0D01*
G01*
X777258D02*
G03*
X785640Y433052I0J8382D01*
G01*
X846092Y597390D02*
G03*
X858284Y609582I0J12192D01*
G01*
X826280Y597390D02*
G03*
X800880Y571990I0J-25400D01*
G01*
X863112Y516362D02*
G03*
X839234Y540240I-23878J0D01*
G01*
X876112Y449456D02*
G03*
X883938Y457282I0J7826D01*
G01*
X842282Y457286D02*
G03*
X850112Y449456I7830J0D01*
G01*
X1028210Y543542D02*
G03*
X1043447Y528305I15237J0D01*
G01*
X1028210Y543542D02*
G03*
X1019320Y552432I-8890J0D01*
G01*
X991380D02*
G03*
X978574Y539626I0J-12806D01*
G01*
X998894Y457746D02*
G03*
X985336Y471304I-13558J0D01*
G01*
X1044568Y480398D02*
G03*
X1034662Y490304I-9906J0D01*
G01*
X1032274Y401810D02*
G03*
X1018812Y388348I0J-13462D01*
G01*
X1032274Y401810D02*
G03*
X1044568Y414104I0J12294D01*
G01*
X794784Y65006D02*
G03*
X815214Y85436I0J20430D01*
G01*
X900304Y82896D02*
G03*
X918195Y65006I17890J0D01*
G01*
X921530Y115552D02*
G03*
X926610Y120632I0J5080D01*
G01*
X955312Y193698D02*
G03*
X938404Y210606I-16908J0D01*
G01*
X948200Y147302D02*
G03*
X955312Y154414I0J7112D01*
G01*
X936770Y147302D02*
G03*
X926610Y137142I0J-10160D01*
G01*
X874540Y120632D02*
G03*
X879620Y115552I5080J0D01*
G01*
X786910Y132189D02*
G03*
X803547Y115552I16637J0D01*
G01*
X786910Y134602D02*
G03*
X775480Y146032I-11430J0D01*
G01*
X769130Y196832D02*
G03*
X757192Y184894I0J-11938D01*
G01*
Y154160D02*
G03*
X765320Y146032I8128J0D01*
G01*
X821014Y152568D02*
G03*
X832630Y140952I11616J0D01*
G01*
X840250Y133332D02*
G03*
X832630Y140952I-7620J0D01*
G01*
X833900Y115552D02*
G03*
X840250Y121902I0J6350D01*
G01*
X918092Y168536D02*
G03*
X925704Y176148I0J7612D01*
G01*
X905884Y187536D02*
G03*
X892320Y173972I0J-13564D01*
G01*
X883430Y140952D02*
G03*
X892320Y149842I0J8890D01*
G01*
X883430Y140952D02*
G03*
X874540Y132062I0J-8890D01*
G01*
X938404Y220090D02*
G03*
X933976Y224518I-4428J0D01*
G01*
X917212D02*
G03*
X913004Y220310I0J-4208D01*
G01*
X944586Y210606D02*
G03*
X960138Y226158I0J15552D01*
G01*
X906646Y168536D02*
G03*
X900304Y162194I0J-6342D01*
G01*
X804216Y168536D02*
G03*
X808314Y172634I0J4098D01*
G01*
X815214Y148936D02*
G03*
X795614Y168536I-19600J0D01*
G01*
X704510Y380550D02*
G03*
X724786Y360274I20276J0D01*
G01*
X762787Y509212D02*
G03*
X760187Y511812I-2600J0D01*
G01*
X790694Y247226D02*
G03*
X808314Y264846I0J17620D01*
G01*
X833714Y323324D02*
G03*
X808314Y297924I0J-25400D01*
G01*
X844314Y323324D02*
G03*
X857776Y336786I0J13462D01*
G01*
X925704Y297924D02*
G03*
X900304Y323324I-25400J0D01*
G01*
X873524Y334500D02*
G03*
X884681Y323324I11176J0D01*
G01*
X884716Y323324D02*
G03*
X884717Y323324I-44J3000D01*
G01*
X884681Y323324D02*
G03*
X884716Y323324I-10J3000D01*
G01*
X925704Y256666D02*
G03*
X935144Y247226I9440J0D01*
G01*
X795614Y191684D02*
G03*
X790466Y196832I-5148J0D01*
G01*
X795614Y218354D02*
G03*
X785742Y228226I-9872J0D01*
G01*
X801778Y224518D02*
G03*
X795614Y218354I0J-6164D01*
G01*
X821014Y219116D02*
G03*
X815612Y224518I-5402J0D01*
G01*
X1005308Y509304D02*
G03*
X1002708Y506704I0J-2600D01*
G01*
X734632Y437670D02*
G03*
X743786Y446824I0J9154D01*
G01*
X712742Y90406D02*
G03*
X738142Y65006I25400J0D01*
G01*
X986092D02*
G03*
X1011492Y90406I0J25400D01*
G01*
X747286Y409684D02*
G03*
X732300Y424670I-14986J0D01*
G01*
X792498Y598914D02*
G03*
X804182Y610598I0J11684D01*
G01*
X811814Y618230D02*
G03*
X804182Y610598I0J-7632D01*
G01*
X742102Y672470D02*
G03*
X723918Y654286I0J-18184D01*
G01*
X785386Y598914D02*
G03*
X771416Y584944I0J-13970D01*
G01*
X800016Y387886D02*
G03*
X825416Y362486I25400J0D01*
G01*
X862712Y410456D02*
G03*
X855874Y418828I-6839J1393D01*
G01*
X828523D02*
G03*
X819016Y409322I0J-9507D01*
G01*
X862950Y398456D02*
G03*
X873085Y389110I10135J822D01*
G01*
X898297Y389110D02*
G03*
X906696Y397509I0J8399D01*
G01*
X788434Y620906D02*
G03*
X793768Y626240I0J5334D01*
G01*
X748302Y626819D02*
G03*
X754214Y620906I5912J0D01*
G01*
X1098060Y170416D02*
G03*
X1120666Y193022I0J22606D01*
G01*
X1023476Y221216D02*
G03*
X1011492Y209232I0J-11984D01*
G01*
X1085706Y209763D02*
G03*
X1074254Y221216I-11453J0D01*
G01*
X1120666Y280906D02*
G03*
X1106188Y295384I-14478J0D01*
G01*
X1006264Y360560D02*
G03*
X1018812Y373108I0J12548D01*
G01*
X900296Y362486D02*
G03*
X925696Y387886I0J25400D01*
G01*
X887604Y362486D02*
G03*
X873524Y348406I0J-14080D01*
G01*
X712742Y208008D02*
G03*
X702328Y218422I-10414J0D01*
G01*
X649750D02*
G03*
X639082Y207754I0J-10668D01*
G01*
X626082Y293454D02*
G03*
X607082Y274454I0J-19000D01*
G01*
X1033610Y276384D02*
X1029480D01*
X1024492Y246154D02*
Y271397D01*
X1009632Y276384D02*
X1004080D01*
X998492Y246154D02*
Y270796D01*
X686940Y99360D02*
Y102552D01*
X678494Y90914D02*
X657980D01*
X686940Y128552D02*
Y131554D01*
X1059096Y139682D02*
X1037756D01*
X1029882Y128552D02*
Y131808D01*
Y99503D02*
Y102552D01*
X1059096Y90914D02*
X1038470D01*
X842604Y349486D02*
X711726D01*
X692952Y330712D02*
X665082D01*
X857776Y336786D02*
Y351264D01*
X870984Y672470D02*
Y680194D01*
X921530Y696196D02*
X886986D01*
X953894Y424670D02*
X938498D01*
X936770Y441794D02*
Y572752D01*
X911370Y598152D02*
X880890D01*
X870984Y608058D02*
Y618230D01*
X914926Y506712D02*
X907560D01*
X922140Y478772D02*
Y499498D01*
X907560Y506712D02*
Y521190D01*
X901210Y527540D02*
X885912D01*
X894758Y487154D02*
X888256D01*
X883938Y491472D02*
Y495638D01*
X800880Y537192D02*
Y571990D01*
X785640Y433052D02*
Y521952D01*
X779802Y424670D02*
X777258D01*
X769786D01*
X846092Y597390D02*
X826280D01*
X863112Y495638D02*
Y516362D01*
Y495638D02*
X842282D01*
X883938D02*
X863112D01*
X883938Y457282D02*
Y476638D01*
X842282Y457286D02*
Y476638D01*
X1046706Y528305D02*
X1043447D01*
X1019320Y552432D02*
X991380D01*
X978574Y490304D02*
Y539626D01*
X998894Y437670D02*
Y457746D01*
X985336Y471304D02*
X978574D01*
X1044568Y424670D02*
Y480398D01*
X1034662Y490304D02*
X1026788D01*
X1002708D01*
X1044568Y414104D02*
Y424670D01*
X1026788Y509304D02*
X1005308D01*
X1046706D02*
X1026788D01*
X978574Y490304D02*
X953894D01*
X1002708D02*
X978574D01*
X1025568Y424670D02*
X998894D01*
X652082Y293454D02*
X626082D01*
X652082Y311712D02*
Y330712D01*
Y293454D02*
Y311712D01*
X815214Y85436D02*
Y102852D01*
X794784Y65006D02*
X789814D01*
X925704D02*
X918195D01*
X900304Y82896D02*
Y102852D01*
X921530Y115552D02*
X879620D01*
X984882D02*
X921530D01*
X948200Y147302D02*
X936770D01*
X955312Y154414D02*
Y193698D01*
X926610Y120632D02*
Y137142D01*
X833900Y115552D02*
X803547D01*
X786910Y132189D02*
Y134602D01*
X775480Y146032D02*
X765320D01*
X757192Y154160D02*
Y184894D01*
X821014Y152568D02*
Y210606D01*
X840250Y121902D02*
Y133332D01*
X821014Y210606D02*
Y219116D01*
X913004Y168536D02*
X906646D01*
X918092D02*
X913004D01*
X939310D02*
X918092D01*
X925704Y176148D02*
Y210606D01*
X913004Y187536D02*
X905884D01*
X913004Y210606D02*
Y220310D01*
Y187536D02*
Y210606D01*
X892320Y149842D02*
Y173972D01*
X874540Y120632D02*
Y132062D01*
X933976Y224518D02*
X917212D01*
X938404Y210606D02*
Y220090D01*
X944586Y210606D02*
X938404D01*
X960138Y226158D02*
Y228226D01*
X900304Y128252D02*
Y162194D01*
X804216Y168536D02*
X795614D01*
X815214Y128252D02*
Y148936D01*
X762787Y472034D02*
Y492812D01*
X747286Y360274D02*
X724786D01*
X769786D02*
X747286D01*
X704510Y380550D02*
Y492812D01*
X731030Y511812D02*
Y543542D01*
X760187Y511812D02*
X731030D01*
X704510D01*
X731030Y492812D02*
X704510D01*
X762787D02*
X731030D01*
X1072706Y295384D02*
Y336786D01*
X808314Y264846D02*
Y297924D01*
X844314Y323324D02*
X833714D01*
X925704Y256666D02*
Y264846D01*
Y297924D01*
X884717Y323324D02*
X884716D01*
X900304D02*
X884717D01*
X795614Y187536D02*
Y210606D01*
X790466Y196832D02*
X769130D01*
X785742Y228226D02*
X761256D01*
X795614Y210606D02*
Y218354D01*
X815612Y224518D02*
X801778D01*
X803547Y115552D02*
X731940D01*
X1002708Y506704D02*
Y534652D01*
X734632Y437670D02*
X724786D01*
X743786Y446824D02*
Y472034D01*
X686940Y115552D02*
X657980D01*
X678812Y139682D02*
X657980D01*
X773414Y65006D02*
X738142D01*
X712742Y199224D02*
Y208008D01*
Y90406D02*
Y199224D01*
X1011492Y201154D02*
Y209232D01*
Y90406D02*
Y201154D01*
X986092Y65006D02*
X942104D01*
X1059096Y115552D02*
X1029882D01*
X808314Y172634D02*
Y210606D01*
X795614Y168536D02*
X772432D01*
X747286Y379274D02*
Y409684D01*
X732300Y424670D02*
X724786D01*
X792498Y598914D02*
X785386D01*
X845584Y618230D02*
X811814D01*
X723918Y594906D02*
Y654286D01*
X748302Y672470D02*
X742102D01*
X771285D02*
X748302D01*
X793768D02*
X771285D01*
X845584D02*
X793768D01*
X771416Y575906D02*
Y584944D01*
X858284Y609582D02*
Y618230D01*
X800016Y387886D02*
Y404456D01*
X842604Y362486D02*
X825416D01*
X790694Y247226D02*
X761256D01*
X925696Y387886D02*
Y404456D01*
Y411868D01*
X855874Y418828D02*
X828523D01*
X898297Y389110D02*
X873085D01*
X819016Y404456D02*
Y409322D01*
X906696Y397509D02*
Y404456D01*
X862950Y398456D02*
X863112Y404456D01*
Y404456D02*
X862712Y410456D01*
X839234Y540240D02*
X831672D01*
X788434Y620906D02*
X784416D01*
X793768Y626240D02*
Y653470D01*
X758416Y575906D02*
X723918D01*
X758416Y620906D02*
X754214D01*
X771416D02*
Y653470D01*
X771285D01*
X748302Y626819D02*
Y653470D01*
X960138Y247226D02*
X935144D01*
X1120666Y193022D02*
Y280906D01*
X1098706Y246154D02*
Y276384D01*
X1098060Y170416D02*
X1091706D01*
X1085706Y201154D02*
Y209763D01*
X1072706Y170416D02*
Y201154D01*
X998492Y171686D02*
Y201154D01*
X1072706Y246154D02*
Y276384D01*
X1074254Y221216D02*
X1023476D01*
X1106188Y295384D02*
X1098706D01*
X1072706Y336786D02*
Y355786D01*
X1098706Y295384D02*
X1072706D01*
X1018812Y373108D02*
Y388348D01*
X1006264Y360560D02*
X998894D01*
Y379560D02*
Y411670D01*
X900296Y362486D02*
X887604D01*
X953894Y437670D02*
Y471304D01*
X863112Y449456D02*
Y476638D01*
X846554Y362486D02*
X842604D01*
X769786Y379274D02*
Y411670D01*
X724786Y379274D02*
Y411670D01*
X873524Y334500D02*
Y348406D01*
X699742Y168384D02*
Y199224D01*
X702328Y218422D02*
X649750D01*
X725742Y244224D02*
Y247886D01*
X725696D01*
X699742Y244224D02*
Y274454D01*
X725696Y247886D02*
Y274454D01*
X725742D02*
X725696D01*
X626082Y168486D02*
Y199224D01*
X639082D02*
Y207754D01*
X607082Y168486D02*
Y274454D01*
X652082Y244224D02*
Y274454D01*
X626082Y244224D02*
Y274454D01*
D26*
X858284Y686036D02*
G03*
X852514Y691806I-5770J0D01*
G01*
X794530Y708206D02*
G03*
X810930Y691806I16400J0D01*
G01*
X814850Y446260D02*
G03*
X824320Y455730I0J9470D01*
G01*
X831672Y514840D02*
G03*
X824320Y507488I0J-7352D01*
G01*
X872000Y231122D02*
G03*
X859300Y218422I0J-12700D01*
G01*
X956836Y343898D02*
G03*
X963948Y336786I7112J0D01*
G01*
X956836Y343898D02*
G03*
X951248Y349486I-5588J0D01*
G01*
X671190Y434322D02*
G03*
X691510Y454642I0J20320D01*
G01*
X671190Y434322D02*
G03*
X658582Y421714I0J-12608D01*
G01*
X1074796Y587992D02*
G03*
X1053206Y566402I0J-21590D01*
G01*
X904440Y567998D02*
G03*
X896638Y575800I-7802J0D01*
G01*
X900630Y540240D02*
G03*
X904440Y544050I0J3810D01*
G01*
X795614Y312588D02*
G03*
X786910Y321292I-8704J0D01*
G01*
X735784D02*
G03*
X726204Y311712I0J-9580D01*
G01*
X691510Y473692D02*
G03*
X698010Y480192I0J6500D01*
G01*
X950050Y316792D02*
G03*
X938404Y305146I0J-11646D01*
G01*
X1059135Y316864D02*
G03*
X1066206Y323936I0J7072D01*
G01*
X889200Y283882D02*
G03*
X880890Y275572I0J-8310D01*
G01*
X913004Y275208D02*
G03*
X904330Y283882I-8674J0D01*
G01*
X887604Y231122D02*
G03*
X913004Y256522I0J25400D01*
G01*
X858284Y672470D02*
Y686036D01*
X852514Y691806D02*
X845584D01*
X826280D02*
X810930D01*
X845584D02*
X826280D01*
X814850Y446260D02*
X807920D01*
X824320Y455730D02*
Y496552D01*
Y507488D01*
X859300Y194292D02*
Y218422D01*
X1059706Y336786D02*
X963948D01*
X951248Y349486D02*
X887604D01*
X691510Y511812D02*
X637050D01*
X671190Y434322D02*
X637050D01*
X658582Y368536D02*
Y421714D01*
X691510Y454642D02*
Y473692D01*
X1109490Y509304D02*
X1059706D01*
X1109490Y587992D02*
X1074796D01*
X1053206Y547352D02*
Y566402D01*
X969790Y618230D02*
X924070D01*
X903750D02*
X883684D01*
X924070D02*
X903750D01*
X896638Y575800D02*
X877080D01*
X904440Y563100D02*
Y567998D01*
Y544050D02*
Y563100D01*
X900630Y540240D02*
X885912D01*
X1053206Y528305D02*
Y547352D01*
X1059706Y490202D02*
Y509304D01*
Y471152D02*
Y490202D01*
Y393682D02*
Y471152D01*
X658582Y349740D02*
Y368536D01*
Y330712D02*
Y349740D01*
X726204Y311712D02*
X699742D01*
X680742D02*
X665082D01*
X699742D02*
X680742D01*
X786910Y321292D02*
X735784D01*
X795614Y304782D02*
Y312588D01*
Y285732D02*
Y304782D01*
Y264846D02*
Y285732D01*
X698010Y480192D02*
Y492812D01*
X691510Y530842D02*
Y549892D01*
Y511812D02*
Y530842D01*
X1059706Y374632D02*
Y393682D01*
Y355786D02*
Y374632D01*
X938404Y297924D02*
Y305146D01*
X1033290Y316792D02*
X950050D01*
X1059135Y316864D02*
X1052340D01*
X1066206Y323936D02*
Y336786D01*
X1052340Y316792D02*
Y316864D01*
Y316792D02*
X1033290D01*
X938404Y264846D02*
Y297924D01*
X960038Y264846D02*
X938404D01*
X897400Y283882D02*
X889200D01*
X880890Y264846D02*
Y275572D01*
X887604Y231122D02*
X872000D01*
X913004Y264846D02*
Y275208D01*
Y256522D02*
Y264846D01*
X904330Y283882D02*
X897400D01*
X840250Y264846D02*
Y292082D01*
Y264846D02*
X821014D01*
X859300D02*
X840250D01*
D27*
X1053610Y276384D02*
D03*
X1033610D02*
D03*
X725742Y274454D02*
D03*
X745742D02*
D03*
D28*
X793768Y652970D02*
D03*
Y672970D02*
D03*
X748302Y652970D02*
D03*
Y672970D02*
D03*
D29*
X771285Y653470D02*
D03*
Y672470D02*
D03*
X960138Y247226D02*
D03*
Y228226D02*
D03*
X998894Y379560D02*
D03*
Y360560D02*
D03*
X761256Y228226D02*
D03*
X795614Y187536D02*
D03*
X913004D02*
D03*
X1098706Y295384D02*
D03*
Y276384D02*
D03*
X652082Y293454D02*
D03*
Y274454D02*
D03*
X883938Y495638D02*
D03*
Y476638D02*
D03*
X863112Y495638D02*
D03*
Y476638D02*
D03*
X913004Y168536D02*
D03*
X795614D02*
D03*
X723918Y594906D02*
D03*
Y575906D02*
D03*
X761256Y247226D02*
D03*
D30*
X924904Y65006D02*
D03*
X942904D02*
D03*
X790614D02*
D03*
X772614D02*
D03*
D31*
X1002708Y490604D02*
D03*
Y506404D02*
D03*
X762787Y493112D02*
D03*
Y508912D02*
D03*
X924070Y634330D02*
D03*
Y618530D02*
D03*
X897400Y299982D02*
D03*
Y284182D02*
D03*
X1052340Y300764D02*
D03*
Y316564D02*
D03*
X826280Y707906D02*
D03*
Y692106D02*
D03*
X680742Y295612D02*
D03*
Y311412D02*
D03*
X859300Y248746D02*
D03*
Y264546D02*
D03*
D32*
X808220Y477502D02*
D03*
X824020D02*
D03*
X779514Y285732D02*
D03*
X795314D02*
D03*
X675410Y549892D02*
D03*
X691210D02*
D03*
X675410Y473692D02*
D03*
X691210D02*
D03*
X954504Y297924D02*
D03*
X938704D02*
D03*
X920540Y563100D02*
D03*
X904740D02*
D03*
X1075806Y393682D02*
D03*
X1060006D02*
D03*
X1075806Y471152D02*
D03*
X1060006D02*
D03*
X1069306Y566402D02*
D03*
X1053506D02*
D03*
X642482Y368536D02*
D03*
X658282D02*
D03*
D33*
X887604Y362486D02*
D03*
Y336486D02*
D03*
X842604D02*
D03*
Y362486D02*
D03*
X887604Y349486D02*
D03*
X842604D02*
D03*
X953894Y424670D02*
D03*
Y411670D02*
D03*
X998894D02*
D03*
Y424670D02*
D03*
Y437670D02*
D03*
X953894D02*
D03*
X731940Y115552D02*
D03*
Y128552D02*
D03*
X686940D02*
D03*
Y115552D02*
D03*
Y102552D02*
D03*
X731940D02*
D03*
X984882Y115552D02*
D03*
Y102552D02*
D03*
X1029882D02*
D03*
Y115552D02*
D03*
Y128552D02*
D03*
X984882D02*
D03*
X769786Y411670D02*
D03*
X724786D02*
D03*
Y424670D02*
D03*
Y437670D02*
D03*
X769786D02*
D03*
Y424670D02*
D03*
D34*
X675110Y530842D02*
D03*
Y454642D02*
D03*
X1076106Y490202D02*
D03*
X1069606Y547352D02*
D03*
X642182Y349740D02*
D03*
X1076106Y374632D02*
D03*
X807920Y496552D02*
D03*
X920840Y544050D02*
D03*
X779214Y304782D02*
D03*
X691510Y530842D02*
D03*
Y454642D02*
D03*
X1059706Y490202D02*
D03*
X1053206Y547352D02*
D03*
X795614Y304782D02*
D03*
X904440Y544050D02*
D03*
X824320Y496552D02*
D03*
X1059706Y374632D02*
D03*
X658582Y349740D02*
D03*
D35*
X1033290Y300392D02*
D03*
X880890Y248446D02*
D03*
X960038Y281246D02*
D03*
X840250Y248446D02*
D03*
X903750Y634630D02*
D03*
X845584Y708206D02*
D03*
X699742Y295312D02*
D03*
X845584Y691806D02*
D03*
X1033290Y316792D02*
D03*
X880890Y264846D02*
D03*
X960038D02*
D03*
X699742Y311712D02*
D03*
X903750Y618230D02*
D03*
X840250Y264846D02*
D03*
D36*
X883684Y672470D02*
D03*
X795614Y210606D02*
D03*
X821014D02*
D03*
X913004D02*
D03*
X938404D02*
D03*
X900304Y264846D02*
D03*
X913004D02*
D03*
X925704D02*
D03*
X938404D02*
D03*
X900304Y210606D02*
D03*
X925704D02*
D03*
X883684Y618230D02*
D03*
X858284Y672470D02*
D03*
X845584D02*
D03*
X870984D02*
D03*
Y618230D02*
D03*
X858284D02*
D03*
X845584D02*
D03*
X782914Y264846D02*
D03*
X795614D02*
D03*
X808314D02*
D03*
X821014D02*
D03*
X808314Y210606D02*
D03*
X782914D02*
D03*
D37*
X638980Y90914D02*
D03*
X1078096D02*
D03*
X1059096D02*
D03*
X657980D02*
D03*
X762787Y472034D02*
D03*
X743786D02*
D03*
X922140Y478772D02*
D03*
X903140D02*
D03*
D38*
X691510Y492812D02*
D03*
X1059706Y528305D02*
D03*
X1046706D02*
D03*
Y509304D02*
D03*
X1053206D02*
D03*
X1059706D02*
D03*
X1053206Y528305D02*
D03*
X698010Y492812D02*
D03*
X704510D02*
D03*
Y511812D02*
D03*
X698010D02*
D03*
X691510D02*
D03*
X1059706Y355786D02*
D03*
X1066206D02*
D03*
X1072706D02*
D03*
Y336786D02*
D03*
X1066206D02*
D03*
X1059706D02*
D03*
X665082Y330712D02*
D03*
X652082D02*
D03*
Y311712D02*
D03*
X658582D02*
D03*
X665082D02*
D03*
X658582Y330712D02*
D03*
D39*
X1026788Y509304D02*
D03*
Y490304D02*
D03*
X978574D02*
D03*
Y471304D02*
D03*
X953894Y490304D02*
D03*
Y471304D02*
D03*
X731030Y511812D02*
D03*
Y492812D02*
D03*
X1072706Y276384D02*
D03*
Y295384D02*
D03*
X747286Y360274D02*
D03*
Y379274D02*
D03*
X724786Y360274D02*
D03*
Y379274D02*
D03*
X769786Y360274D02*
D03*
Y379274D02*
D03*
X626082Y293454D02*
D03*
Y274454D02*
D03*
X842282Y495638D02*
D03*
Y476638D02*
D03*
D40*
X815214Y128252D02*
D03*
X900304D02*
D03*
Y102852D02*
D03*
X815214D02*
D03*
D41*
X1085706Y201154D02*
D03*
X1098706D02*
D03*
Y246154D02*
D03*
X1085706D02*
D03*
X1072706D02*
D03*
Y201154D02*
D03*
X1011492D02*
D03*
X1024492D02*
D03*
Y246154D02*
D03*
X1011492D02*
D03*
X998492D02*
D03*
Y201154D02*
D03*
X863112Y404456D02*
D03*
X876112D02*
D03*
Y449456D02*
D03*
X863112D02*
D03*
X850112D02*
D03*
Y404456D02*
D03*
X712742Y199224D02*
D03*
X725742D02*
D03*
Y244224D02*
D03*
X712742D02*
D03*
X699742D02*
D03*
Y199224D02*
D03*
X626082D02*
D03*
Y244224D02*
D03*
X639082D02*
D03*
X652082D02*
D03*
Y199224D02*
D03*
X639082D02*
D03*
X758416Y575906D02*
D03*
Y620906D02*
D03*
X771416D02*
D03*
X784416D02*
D03*
Y575906D02*
D03*
X771416D02*
D03*
D42*
X499691Y855653D02*
D03*
X487426Y402336D02*
D03*
X1099330Y687052D02*
D03*
M02*
