G04*
G04 #@! TF.GenerationSoftware,Altium Limited,Altium Designer,22.11.1 (43)*
G04*
G04 Layer_Physical_Order=2*
G04 Layer_Color=16711680*
%FSLAX44Y44*%
%MOMM*%
G71*
G04*
G04 #@! TF.SameCoordinates,06BBF7B1-46A0-4337-B342-F52713360293*
G04*
G04*
G04 #@! TF.FilePolarity,Positive*
G04*
G01*
G75*
%ADD42C,0.7000*%
G36*
X506760Y889380D02*
X511744Y888183D01*
X516479Y886221D01*
X520849Y883543D01*
X524747Y880215D01*
X528075Y876317D01*
X530754Y871947D01*
X532715Y867212D01*
X533912Y862228D01*
X534300Y857293D01*
X534277Y857118D01*
Y513710D01*
X534300Y513535D01*
X533912Y508600D01*
X532715Y503616D01*
X530754Y498881D01*
X528075Y494511D01*
X524747Y490613D01*
X520849Y487285D01*
X516479Y484606D01*
X511744Y482645D01*
X506760Y481448D01*
X501825Y481060D01*
X501650Y481083D01*
X113660D01*
X113485Y481060D01*
X108550Y481448D01*
X103566Y482645D01*
X98831Y484606D01*
X94461Y487285D01*
X90563Y490613D01*
X87234Y494511D01*
X84556Y498881D01*
X82595Y503616D01*
X81398Y508600D01*
X81053Y512990D01*
X81165Y513842D01*
X81165Y513842D01*
Y857118D01*
X81142Y857293D01*
X81530Y862228D01*
X82727Y867212D01*
X84689Y871947D01*
X87367Y876317D01*
X90695Y880215D01*
X94593Y883543D01*
X98963Y886221D01*
X103698Y888183D01*
X108682Y889380D01*
X113535Y889761D01*
X113660Y889745D01*
X501650D01*
X501825Y889768D01*
X506760Y889380D01*
D02*
G37*
G36*
X1118739Y754502D02*
X1122503Y753360D01*
X1125972Y751506D01*
X1129013Y749011D01*
X1131508Y745970D01*
X1133362Y742501D01*
X1134504Y738737D01*
X1134877Y734946D01*
X1134861Y734822D01*
Y49766D01*
X1134861Y49766D01*
X1134861D01*
X1134768Y48534D01*
X1134504Y45851D01*
X1133362Y42087D01*
X1131508Y38618D01*
X1129013Y35577D01*
X1125972Y33082D01*
X1122503Y31228D01*
X1118739Y30086D01*
X1114947Y29713D01*
X1114824Y29729D01*
X603269D01*
X603268Y29729D01*
X603152Y29714D01*
X599371Y30086D01*
X595607Y31228D01*
X592138Y33082D01*
X589097Y35577D01*
X586602Y38618D01*
X584748Y42087D01*
X583606Y45851D01*
X583232Y49653D01*
X583249Y49784D01*
Y734822D01*
X583232Y734946D01*
X583606Y738737D01*
X584748Y742501D01*
X586602Y745970D01*
X589097Y749011D01*
X592138Y751506D01*
X595607Y753360D01*
X599371Y754502D01*
X603163Y754876D01*
X603286Y754859D01*
X1114824D01*
X1114947Y754876D01*
X1118739Y754502D01*
D02*
G37*
G36*
X506760Y428370D02*
X511744Y427173D01*
X516479Y425211D01*
X520849Y422533D01*
X524747Y419205D01*
X528075Y415307D01*
X530754Y410937D01*
X532715Y406202D01*
X533912Y401218D01*
X534300Y396283D01*
X534277Y396108D01*
X534277Y66040D01*
X534486Y64450D01*
X534277Y62860D01*
X534277D01*
X534311Y62823D01*
X533912Y57750D01*
X532715Y52766D01*
X530754Y48031D01*
X528075Y43661D01*
X524747Y39763D01*
X520849Y36435D01*
X516479Y33756D01*
X511744Y31795D01*
X506760Y30598D01*
X501825Y30210D01*
X501650Y30233D01*
X62860D01*
X62685Y30210D01*
X57750Y30598D01*
X52766Y31795D01*
X48031Y33756D01*
X43661Y36435D01*
X39763Y39763D01*
X36435Y43661D01*
X33756Y48031D01*
X31795Y52766D01*
X30598Y57750D01*
X30259Y62058D01*
X30365Y62860D01*
X30365Y396108D01*
X30342Y396283D01*
X30730Y401218D01*
X31927Y406202D01*
X33888Y410937D01*
X36567Y415307D01*
X39895Y419205D01*
X43793Y422533D01*
X48163Y425211D01*
X52898Y427173D01*
X57882Y428370D01*
X62817Y428758D01*
X62992Y428735D01*
X501650D01*
X501825Y428758D01*
X506760Y428370D01*
D02*
G37*
%LPC*%
G36*
X500961Y861664D02*
Y856923D01*
X505703D01*
X504812Y859074D01*
X503113Y860773D01*
X500961Y861664D01*
D02*
G37*
G36*
X498421D02*
X496270Y860773D01*
X494571Y859074D01*
X493680Y856923D01*
X498421D01*
Y861664D01*
D02*
G37*
G36*
X505703Y854383D02*
X500961D01*
Y849641D01*
X503113Y850532D01*
X504812Y852231D01*
X505703Y854383D01*
D02*
G37*
G36*
X498421D02*
X493680D01*
X494571Y852231D01*
X496270Y850532D01*
X498421Y849641D01*
Y854383D01*
D02*
G37*
G36*
X1100600Y693064D02*
Y688322D01*
X1105342D01*
X1104450Y690473D01*
X1102751Y692173D01*
X1100600Y693064D01*
D02*
G37*
G36*
X1098060D02*
X1095909Y692173D01*
X1094210Y690473D01*
X1093318Y688322D01*
X1098060D01*
Y693064D01*
D02*
G37*
G36*
X1105342Y685782D02*
X1100600D01*
Y681040D01*
X1102751Y681932D01*
X1104450Y683631D01*
X1105342Y685782D01*
D02*
G37*
G36*
X1098060D02*
X1093318D01*
X1094210Y683631D01*
X1095909Y681932D01*
X1098060Y681040D01*
Y685782D01*
D02*
G37*
G36*
X488696Y408348D02*
Y403606D01*
X493438D01*
X492547Y405757D01*
X490847Y407457D01*
X488696Y408348D01*
D02*
G37*
G36*
X486156D02*
X484005Y407457D01*
X482305Y405757D01*
X481414Y403606D01*
X486156D01*
Y408348D01*
D02*
G37*
G36*
X493438Y401066D02*
X488696D01*
Y396324D01*
X490847Y397215D01*
X492547Y398915D01*
X493438Y401066D01*
D02*
G37*
G36*
X486156D02*
X481414D01*
X482305Y398915D01*
X484005Y397215D01*
X486156Y396324D01*
Y401066D01*
D02*
G37*
%LPD*%
D42*
X499691Y855653D02*
D03*
X487426Y402336D02*
D03*
X1099330Y687052D02*
D03*
M02*
