G04*
G04 #@! TF.GenerationSoftware,Altium Limited,Altium Designer,22.11.1 (43)*
G04*
G04 Layer_Color=8421504*
%FSLAX44Y44*%
%MOMM*%
G71*
G04*
G04 #@! TF.SameCoordinates,06BBF7B1-46A0-4337-B342-F52713360293*
G04*
G04*
G04 #@! TF.FilePolarity,Positive*
G04*
G01*
G75*
%ADD13R,1.1500X1.1500*%
%ADD14R,1.0000X1.4000*%
%ADD15R,1.2700X0.7600*%
%ADD16R,1.7000X0.9000*%
%ADD17R,1.5000X3.0000*%
%ADD18R,3.0000X1.5000*%
%ADD19R,1.4500X0.9000*%
%ADD20R,1.5260X0.6500*%
%ADD21R,2.0000X1.6000*%
%ADD22R,2.0000X2.0000*%
%ADD23R,1.2000X1.5000*%
%ADD24R,1.5250X0.6500*%
%ADD27R,0.9500X1.4500*%
%ADD28R,1.4500X0.9500*%
%ADD29R,1.4500X1.0000*%
%ADD30R,1.1500X1.4500*%
%ADD31R,1.5200X1.1900*%
%ADD32R,1.1900X1.5200*%
%ADD33R,1.5000X0.6000*%
%ADD34R,0.9400X1.4300*%
%ADD35R,1.4300X0.9400*%
%ADD36R,0.6500X1.5260*%
%ADD37R,1.0000X1.4500*%
%ADD38R,0.4000X1.2000*%
%ADD39R,1.4000X1.0000*%
%ADD40R,3.6830X1.2700*%
%ADD41R,0.6000X1.5000*%
D13*
X317559Y591493D02*
D03*
X294059D02*
D03*
X317559Y779453D02*
D03*
X294059D02*
D03*
X273544Y320040D02*
D03*
X250044D02*
D03*
X273544Y147320D02*
D03*
X250044D02*
D03*
X986132Y276384D02*
D03*
X1009632D02*
D03*
X699742Y274454D02*
D03*
X676242D02*
D03*
D14*
X327059Y747957D02*
D03*
X308059D02*
D03*
X433549Y726621D02*
D03*
X452549D02*
D03*
X412417D02*
D03*
X393417D02*
D03*
X327059Y624513D02*
D03*
X308059D02*
D03*
X389534Y274828D02*
D03*
X408534D02*
D03*
X368402D02*
D03*
X349402D02*
D03*
X283044Y296164D02*
D03*
X264044D02*
D03*
X283044Y172720D02*
D03*
X264044D02*
D03*
X680742Y168384D02*
D03*
X979492Y171686D02*
D03*
X1078096Y115552D02*
D03*
Y139682D02*
D03*
X638980D02*
D03*
Y115552D02*
D03*
X1044568Y424670D02*
D03*
X1025568D02*
D03*
X657980Y115552D02*
D03*
Y139682D02*
D03*
X1059096D02*
D03*
Y115552D02*
D03*
X1072706Y170416D02*
D03*
X1091706D02*
D03*
X998492Y171686D02*
D03*
X699742Y168384D02*
D03*
X607082Y168486D02*
D03*
X626082D02*
D03*
X925696Y404456D02*
D03*
X906696D02*
D03*
X819016D02*
D03*
X800016D02*
D03*
D15*
X240814Y679885D02*
D03*
X164614D02*
D03*
X240814Y692585D02*
D03*
X164614D02*
D03*
X135890Y237998D02*
D03*
X212090D02*
D03*
X135890Y225298D02*
D03*
X212090D02*
D03*
D16*
X238664Y735765D02*
D03*
Y761165D02*
D03*
Y786565D02*
D03*
X145164D02*
D03*
Y761165D02*
D03*
Y735765D02*
D03*
X238664Y585905D02*
D03*
Y611305D02*
D03*
Y636705D02*
D03*
X145164D02*
D03*
Y611305D02*
D03*
Y585905D02*
D03*
X194649Y283972D02*
D03*
Y309372D02*
D03*
Y334772D02*
D03*
X101149D02*
D03*
Y309372D02*
D03*
Y283972D02*
D03*
Y128778D02*
D03*
Y154178D02*
D03*
Y179578D02*
D03*
X194649D02*
D03*
Y154178D02*
D03*
Y128778D02*
D03*
D17*
X146377Y528501D02*
D03*
X395863Y628831D02*
D03*
X126057Y689227D02*
D03*
X477847Y732717D02*
D03*
X359679Y791391D02*
D03*
X146377Y844063D02*
D03*
X240030Y357660D02*
D03*
X406088Y187960D02*
D03*
Y146558D02*
D03*
X859300Y194292D02*
D03*
X726204Y311712D02*
D03*
X840250Y292082D02*
D03*
X807920Y446260D02*
D03*
X907560Y506712D02*
D03*
X939310Y168536D02*
D03*
X772432D02*
D03*
D18*
X399107Y528501D02*
D03*
X465147D02*
D03*
Y553520D02*
D03*
Y578539D02*
D03*
X399107D02*
D03*
X493087Y629974D02*
D03*
Y654993D02*
D03*
X399107Y844063D02*
D03*
X228346Y64584D02*
D03*
X454660Y80264D02*
D03*
Y136652D02*
D03*
Y108458D02*
D03*
X392684D02*
D03*
X81280Y231822D02*
D03*
X92456Y385110D02*
D03*
Y78534D02*
D03*
X859300Y65006D02*
D03*
X969790Y696196D02*
D03*
X839047Y575800D02*
D03*
X1023892Y696196D02*
D03*
X1109490Y509304D02*
D03*
Y587992D02*
D03*
X637050Y511812D02*
D03*
X731030Y543542D02*
D03*
X637050Y434322D02*
D03*
X877080Y575800D02*
D03*
X999000Y316792D02*
D03*
X1002708Y534652D02*
D03*
X794530Y708206D02*
D03*
X969790Y618230D02*
D03*
X921530Y696196D02*
D03*
D19*
X238664Y541201D02*
D03*
Y561201D02*
D03*
X215606Y541201D02*
D03*
Y561201D02*
D03*
X169491Y541201D02*
D03*
Y561201D02*
D03*
X192549Y541201D02*
D03*
Y561201D02*
D03*
Y831363D02*
D03*
Y811363D02*
D03*
X238664Y831363D02*
D03*
Y811363D02*
D03*
X215606Y831363D02*
D03*
Y811363D02*
D03*
X169491Y831363D02*
D03*
Y811363D02*
D03*
X148534Y362110D02*
D03*
Y382110D02*
D03*
X171591Y101534D02*
D03*
Y81534D02*
D03*
Y362110D02*
D03*
Y382110D02*
D03*
X194649Y101534D02*
D03*
Y81534D02*
D03*
Y362110D02*
D03*
Y382110D02*
D03*
X125476Y362110D02*
D03*
Y382110D02*
D03*
X148534Y81534D02*
D03*
Y101534D02*
D03*
X125476Y81534D02*
D03*
Y101534D02*
D03*
D20*
X450103Y706047D02*
D03*
Y693347D02*
D03*
Y680647D02*
D03*
Y667947D02*
D03*
X395863D02*
D03*
Y680647D02*
D03*
Y693347D02*
D03*
Y706047D02*
D03*
X305439Y566601D02*
D03*
Y553901D02*
D03*
Y541201D02*
D03*
Y528501D02*
D03*
X359679D02*
D03*
Y541201D02*
D03*
Y553901D02*
D03*
Y566601D02*
D03*
Y856763D02*
D03*
Y844063D02*
D03*
Y831363D02*
D03*
Y818663D02*
D03*
X305439D02*
D03*
Y831363D02*
D03*
Y844063D02*
D03*
Y856763D02*
D03*
X406088Y254254D02*
D03*
Y241554D02*
D03*
Y228854D02*
D03*
Y216154D02*
D03*
X351848D02*
D03*
Y228854D02*
D03*
Y241554D02*
D03*
Y254254D02*
D03*
D21*
X433077Y765671D02*
D03*
Y789171D02*
D03*
X389062Y313878D02*
D03*
Y337378D02*
D03*
D22*
X393077Y777421D02*
D03*
X349062Y325628D02*
D03*
D23*
X307559Y718735D02*
D03*
X332559D02*
D03*
X357559D02*
D03*
X307559Y653735D02*
D03*
X332559D02*
D03*
X357559D02*
D03*
X263544Y266942D02*
D03*
X288544D02*
D03*
X313544D02*
D03*
X263544Y201942D02*
D03*
X288544D02*
D03*
X313544D02*
D03*
D24*
X315664Y106934D02*
D03*
Y94234D02*
D03*
Y81534D02*
D03*
Y68834D02*
D03*
X261424D02*
D03*
Y81534D02*
D03*
Y94234D02*
D03*
Y106934D02*
D03*
Y407510D02*
D03*
Y394810D02*
D03*
Y382110D02*
D03*
Y369410D02*
D03*
X315664D02*
D03*
Y382110D02*
D03*
Y394810D02*
D03*
Y407510D02*
D03*
X831672Y527540D02*
D03*
X885912Y552940D02*
D03*
Y540240D02*
D03*
Y527540D02*
D03*
Y514840D02*
D03*
X831672D02*
D03*
Y540240D02*
D03*
Y552940D02*
D03*
D27*
X1053610Y276384D02*
D03*
X1033610D02*
D03*
X725742Y274454D02*
D03*
X745742D02*
D03*
D28*
X793768Y652970D02*
D03*
Y672970D02*
D03*
X748302Y652970D02*
D03*
Y672970D02*
D03*
D29*
X771285Y653470D02*
D03*
Y672470D02*
D03*
X960138Y247226D02*
D03*
Y228226D02*
D03*
X998894Y379560D02*
D03*
Y360560D02*
D03*
X761256Y228226D02*
D03*
X795614Y187536D02*
D03*
X913004D02*
D03*
X1098706Y295384D02*
D03*
Y276384D02*
D03*
X652082Y293454D02*
D03*
Y274454D02*
D03*
X883938Y495638D02*
D03*
Y476638D02*
D03*
X863112Y495638D02*
D03*
Y476638D02*
D03*
X913004Y168536D02*
D03*
X795614D02*
D03*
X723918Y594906D02*
D03*
Y575906D02*
D03*
X761256Y247226D02*
D03*
D30*
X924904Y65006D02*
D03*
X942904D02*
D03*
X790614D02*
D03*
X772614D02*
D03*
D31*
X1002708Y490604D02*
D03*
Y506404D02*
D03*
X762787Y493112D02*
D03*
Y508912D02*
D03*
X924070Y634330D02*
D03*
Y618530D02*
D03*
X897400Y299982D02*
D03*
Y284182D02*
D03*
X1052340Y300764D02*
D03*
Y316564D02*
D03*
X826280Y707906D02*
D03*
Y692106D02*
D03*
X680742Y295612D02*
D03*
Y311412D02*
D03*
X859300Y248746D02*
D03*
Y264546D02*
D03*
D32*
X808220Y477502D02*
D03*
X824020D02*
D03*
X779514Y285732D02*
D03*
X795314D02*
D03*
X675410Y549892D02*
D03*
X691210D02*
D03*
X675410Y473692D02*
D03*
X691210D02*
D03*
X954504Y297924D02*
D03*
X938704D02*
D03*
X920540Y563100D02*
D03*
X904740D02*
D03*
X1075806Y393682D02*
D03*
X1060006D02*
D03*
X1075806Y471152D02*
D03*
X1060006D02*
D03*
X1069306Y566402D02*
D03*
X1053506D02*
D03*
X642482Y368536D02*
D03*
X658282D02*
D03*
D33*
X887604Y362486D02*
D03*
Y336486D02*
D03*
X842604D02*
D03*
Y362486D02*
D03*
X887604Y349486D02*
D03*
X842604D02*
D03*
X953894Y424670D02*
D03*
Y411670D02*
D03*
X998894D02*
D03*
Y424670D02*
D03*
Y437670D02*
D03*
X953894D02*
D03*
X731940Y115552D02*
D03*
Y128552D02*
D03*
X686940D02*
D03*
Y115552D02*
D03*
Y102552D02*
D03*
X731940D02*
D03*
X984882Y115552D02*
D03*
Y102552D02*
D03*
X1029882D02*
D03*
Y115552D02*
D03*
Y128552D02*
D03*
X984882D02*
D03*
X769786Y411670D02*
D03*
X724786D02*
D03*
Y424670D02*
D03*
Y437670D02*
D03*
X769786D02*
D03*
Y424670D02*
D03*
D34*
X675110Y530842D02*
D03*
Y454642D02*
D03*
X1076106Y490202D02*
D03*
X1069606Y547352D02*
D03*
X642182Y349740D02*
D03*
X1076106Y374632D02*
D03*
X807920Y496552D02*
D03*
X920840Y544050D02*
D03*
X779214Y304782D02*
D03*
X691510Y530842D02*
D03*
Y454642D02*
D03*
X1059706Y490202D02*
D03*
X1053206Y547352D02*
D03*
X795614Y304782D02*
D03*
X904440Y544050D02*
D03*
X824320Y496552D02*
D03*
X1059706Y374632D02*
D03*
X658582Y349740D02*
D03*
D35*
X1033290Y300392D02*
D03*
X880890Y248446D02*
D03*
X960038Y281246D02*
D03*
X840250Y248446D02*
D03*
X903750Y634630D02*
D03*
X845584Y708206D02*
D03*
X699742Y295312D02*
D03*
X845584Y691806D02*
D03*
X1033290Y316792D02*
D03*
X880890Y264846D02*
D03*
X960038D02*
D03*
X699742Y311712D02*
D03*
X903750Y618230D02*
D03*
X840250Y264846D02*
D03*
D36*
X883684Y672470D02*
D03*
X795614Y210606D02*
D03*
X821014D02*
D03*
X913004D02*
D03*
X938404D02*
D03*
X900304Y264846D02*
D03*
X913004D02*
D03*
X925704D02*
D03*
X938404D02*
D03*
X900304Y210606D02*
D03*
X925704D02*
D03*
X883684Y618230D02*
D03*
X858284Y672470D02*
D03*
X845584D02*
D03*
X870984D02*
D03*
Y618230D02*
D03*
X858284D02*
D03*
X845584D02*
D03*
X782914Y264846D02*
D03*
X795614D02*
D03*
X808314D02*
D03*
X821014D02*
D03*
X808314Y210606D02*
D03*
X782914D02*
D03*
D37*
X638980Y90914D02*
D03*
X1078096D02*
D03*
X1059096D02*
D03*
X657980D02*
D03*
X762787Y472034D02*
D03*
X743786D02*
D03*
X922140Y478772D02*
D03*
X903140D02*
D03*
D38*
X691510Y492812D02*
D03*
X1059706Y528305D02*
D03*
X1046706D02*
D03*
Y509304D02*
D03*
X1053206D02*
D03*
X1059706D02*
D03*
X1053206Y528305D02*
D03*
X698010Y492812D02*
D03*
X704510D02*
D03*
Y511812D02*
D03*
X698010D02*
D03*
X691510D02*
D03*
X1059706Y355786D02*
D03*
X1066206D02*
D03*
X1072706D02*
D03*
Y336786D02*
D03*
X1066206D02*
D03*
X1059706D02*
D03*
X665082Y330712D02*
D03*
X652082D02*
D03*
Y311712D02*
D03*
X658582D02*
D03*
X665082D02*
D03*
X658582Y330712D02*
D03*
D39*
X1026788Y509304D02*
D03*
Y490304D02*
D03*
X978574D02*
D03*
Y471304D02*
D03*
X953894Y490304D02*
D03*
Y471304D02*
D03*
X731030Y511812D02*
D03*
Y492812D02*
D03*
X1072706Y276384D02*
D03*
Y295384D02*
D03*
X747286Y360274D02*
D03*
Y379274D02*
D03*
X724786Y360274D02*
D03*
Y379274D02*
D03*
X769786Y360274D02*
D03*
Y379274D02*
D03*
X626082Y293454D02*
D03*
Y274454D02*
D03*
X842282Y495638D02*
D03*
Y476638D02*
D03*
D40*
X815214Y128252D02*
D03*
X900304D02*
D03*
Y102852D02*
D03*
X815214D02*
D03*
D41*
X1085706Y201154D02*
D03*
X1098706D02*
D03*
Y246154D02*
D03*
X1085706D02*
D03*
X1072706D02*
D03*
Y201154D02*
D03*
X1011492D02*
D03*
X1024492D02*
D03*
Y246154D02*
D03*
X1011492D02*
D03*
X998492D02*
D03*
Y201154D02*
D03*
X863112Y404456D02*
D03*
X876112D02*
D03*
Y449456D02*
D03*
X863112D02*
D03*
X850112D02*
D03*
Y404456D02*
D03*
X712742Y199224D02*
D03*
X725742D02*
D03*
Y244224D02*
D03*
X712742D02*
D03*
X699742D02*
D03*
Y199224D02*
D03*
X626082D02*
D03*
Y244224D02*
D03*
X639082D02*
D03*
X652082D02*
D03*
Y199224D02*
D03*
X639082D02*
D03*
X758416Y575906D02*
D03*
Y620906D02*
D03*
X771416D02*
D03*
X784416D02*
D03*
Y575906D02*
D03*
X771416D02*
D03*
M02*
